<svg xmlns="http://www.w3.org/2000/svg" width="65.991" height="57.338" viewBox="0 0 65.991 57.338">
  <g id="partner2" transform="translate(-302.177 -3752.299)">
    <g id="Group_98" data-name="Group 98">
      <rect id="Rectangle_78" data-name="Rectangle 78" width="1.767" height="10.655" transform="translate(366.401 3796.383)" fill="#fff"/>
      <path id="Path_321" data-name="Path 321" d="M303.945,3803.583v-3.249h-1.768v3.249a3.406,3.406,0,0,0,3.335,3.4v.008h.072l14.314,0v-1.767l-14.314,0A1.641,1.641,0,0,1,303.945,3803.583Z" fill="#fff"/>
      <path id="Path_322" data-name="Path 322" d="M361.8,3803.621a1.552,1.552,0,0,1-1.573,1.6H345.3v-4.883h-1.766v4.883H325.12v-8.843h-1.764v10.611h36.867v0a3.445,3.445,0,0,0,3.406-3.445c0-1.389,0-3.2,0-3.2H361.8Z" fill="#fff"/>
      <rect id="Rectangle_79" data-name="Rectangle 79" width="1.782" height="1.783" transform="translate(343.502 3807.854)" fill="#fff"/>
      <rect id="Rectangle_80" data-name="Rectangle 80" width="1.781" height="1.783" transform="translate(339.946 3807.854)" fill="#fff"/>
      <rect id="Rectangle_81" data-name="Rectangle 81" width="1.783" height="1.781" transform="translate(305.71 3800.344)" fill="#fff"/>
      <rect id="Rectangle_82" data-name="Rectangle 82" width="1.782" height="1.781" transform="translate(309.273 3800.344)" fill="#fff"/>
      <rect id="Rectangle_83" data-name="Rectangle 83" width="1.78" height="1.783" transform="translate(360.026 3807.854)" fill="#fff"/>
    </g>
    <path id="Path_323" data-name="Path 323" d="M336,3752.3c5.464,18.38,30.33,32.041,32.161,33.049V3752.3Zm-.055,29.886s0-27.362,0-29.886H302.188v33.072h.224c1.437-.81,27.011-15.069,32.681-33.067v3.757a47.1,47.1,0,0,1-19.61,25.224,88.941,88.941,0,0,0-13.038,4.086h65.712v0C343.04,3775.53,335.941,3782.185,335.941,3782.185Zm-.848.193s-4.2-3.827-16.82-1.646a42.043,42.043,0,0,0,16.82-20.042Z" fill="#ec4115"/>
    <rect id="Rectangle_84" data-name="Rectangle 84" width="65.968" height="2.944" transform="translate(302.184 3787.93)" fill="#ec4115"/>
  </g>
</svg>
