<svg xmlns="http://www.w3.org/2000/svg" width="48.968" height="59.937" viewBox="0 0 48.968 59.937">
  <g id="service3" transform="translate(-1315.852 -2374.169)">
    <g id="Group_36" data-name="Group 36">
      <path id="Path_26" data-name="Path 26" d="M1353.257,2434.059l3.1.023h.144l3.1.023,1.929-12.055-2.525-2.616.235-26.86-2.4-.018h-.144l-2.4-.018-.235,26.86-2.563,2.579Z" fill="#4c5157"/>
      <path id="Path_27" data-name="Path 27" d="M1352.392,2405.781l8.691.064a3.474,3.474,0,0,0,3.5-3.449l.237-24.662a3.475,3.475,0,0,0-3.45-3.5l-8.69-.064a3.475,3.475,0,0,0-3.5,3.449l-.236,24.663A3.474,3.474,0,0,0,1352.392,2405.781Z" fill="#929698"/>
    </g>
    <g id="Group_37" data-name="Group 37">
      <path id="Path_28" data-name="Path 28" d="M1333.207,2374.169v13.472h-9.663v-13.472a12.524,12.524,0,1,0,9.663,0Z" fill="#4c5157"/>
      <path id="Path_29" data-name="Path 29" d="M1336.867,2424.291h.01l-5.426-28.43-2.957-1.543v-.124l-.118.062-.118-.062v.124l-2.958,1.543-5.513,28.808h.042c-.027.279-.042.562-.042.849a8.589,8.589,0,1,0,17.08-1.226Zm-8.491,4.16a3.625,3.625,0,1,1,3.624-3.625A3.625,3.625,0,0,1,1328.376,2428.451Z" fill="#4c5157"/>
    </g>
  </g>
</svg>
