<svg xmlns="http://www.w3.org/2000/svg" width="60.172" height="60.171" viewBox="0 0 60.172 60.171">
  <g id="service2" transform="translate(-749.968 -2373.935)">
    <g id="Group_31" data-name="Group 31">
      <g id="Group_27" data-name="Group 27">
        <path id="Path_20" data-name="Path 20" d="M780.054,2397.742a6.259,6.259,0,0,1,4.344,1.747c3.222-2.51,6.641-6.846,6.641-10.276,0-5.146-7.694-6.3-10.875-6.3s-3.772,4.171-3.772,9.317a24.387,24.387,0,0,0,.608,6.307A6.253,6.253,0,0,1,780.054,2397.742Z" fill="#4c5157"/>
      </g>
      <g id="Group_28" data-name="Group 28">
        <path id="Path_21" data-name="Path 21" d="M791.848,2400.359a24.342,24.342,0,0,0-6.308.608,6.272,6.272,0,0,1-.955,7.4c2.51,3.222,6.846,6.641,10.277,6.641,5.145,0,6.3-7.694,6.3-10.875S796.993,2400.359,791.848,2400.359Z" fill="#4c5157"/>
      </g>
      <g id="Group_29" data-name="Group 29">
        <path id="Path_22" data-name="Path 22" d="M780.054,2410.3a6.255,6.255,0,0,1-4.344-1.748c-3.222,2.511-6.641,6.847-6.641,10.277,0,5.146,7.694,6.3,10.875,6.3s3.771-4.172,3.771-9.317a24.348,24.348,0,0,0-.608-6.308A6.249,6.249,0,0,1,780.054,2410.3Z" fill="#4c5157"/>
      </g>
      <g id="Group_30" data-name="Group 30">
        <path id="Path_23" data-name="Path 23" d="M773.775,2404.02a6.252,6.252,0,0,1,1.748-4.343c-2.51-3.222-6.847-6.641-10.277-6.641-5.145,0-6.3,7.693-6.3,10.875s4.172,3.771,9.317,3.771a24.386,24.386,0,0,0,6.308-.608A6.253,6.253,0,0,1,773.775,2404.02Z" fill="#4c5157"/>
      </g>
    </g>
    <g id="Group_32" data-name="Group 32">
      <path id="Path_24" data-name="Path 24" d="M780.054,2434.106a30.085,30.085,0,1,1,30.086-30.085A30.12,30.12,0,0,1,780.054,2434.106Zm0-56.284a26.2,26.2,0,1,0,26.2,26.2A26.227,26.227,0,0,0,780.054,2377.822Z" fill="#929698"/>
    </g>
    <g id="Group_34" data-name="Group 34">
      <g id="Group_33" data-name="Group 33">
        <path id="Path_25" data-name="Path 25" d="M780.054,2396.991a7.03,7.03,0,1,0,7.029,7.029A7.029,7.029,0,0,0,780.054,2396.991Zm0,10.261a3.231,3.231,0,1,1,3.231-3.232A3.231,3.231,0,0,1,780.054,2407.252Z" fill="#929698"/>
      </g>
    </g>
  </g>
</svg>
