<svg xmlns="http://www.w3.org/2000/svg" width="47.919" height="56.815" viewBox="0 0 47.919 56.815">
  <g id="service1" transform="translate(-207.521 -2374.852)">
    <path id="Path_17" data-name="Path 17" d="M253.042,2379.862c-13.373,0-21.486-4.963-21.56-5.008v0h0v5.268a51.685,51.685,0,0,0,19.263,4.391v15.863a32.6,32.6,0,0,1-2.995,10.817,30.224,30.224,0,0,1-16.268,15.437v5.038l.4-.148c22.683-8.5,23.558-31.012,23.558-31.012v-20.7Q254.215,2379.863,253.042,2379.862Z" fill="#4c5157"/>
    <path id="Path_18" data-name="Path 18" d="M231.48,2374.853h0v0c-.074.045-8.189,5.008-21.56,5.008q-1.173,0-2.4-.053v20.7s.875,22.512,23.558,31.012l.4.148Z" fill="#4c5157"/>
    <path id="Path_19" data-name="Path 19" d="M215.213,2411.192a32.592,32.592,0,0,1-2.995-10.811v-15.869a51.678,51.678,0,0,0,19.262-4.391h0v-5.268h0v0c-.074.045-8.189,5.008-21.56,5.008q-1.173,0-2.4-.053v20.7s.875,22.512,23.558,31.012l.4.148v-5.038A30.226,30.226,0,0,1,215.213,2411.192Z" fill="#929698"/>
  </g>
</svg>
