<svg xmlns="http://www.w3.org/2000/svg" width="15.75" height="18" viewBox="0 0 15.75 18"><defs><style>.a{fill:#fff;}</style></defs><path class="a" d="M5.2,10.125H3.8A.423.423,0,0,1,3.375,9.7V8.3A.423.423,0,0,1,3.8,7.875H5.2a.423.423,0,0,1,.422.422V9.7A.423.423,0,0,1,5.2,10.125ZM9,9.7V8.3a.423.423,0,0,0-.422-.422H7.172A.423.423,0,0,0,6.75,8.3V9.7a.423.423,0,0,0,.422.422H8.578A.423.423,0,0,0,9,9.7Zm3.375,0V8.3a.423.423,0,0,0-.422-.422H10.547a.423.423,0,0,0-.422.422V9.7a.423.423,0,0,0,.422.422h1.406A.423.423,0,0,0,12.375,9.7ZM9,13.078V11.672a.423.423,0,0,0-.422-.422H7.172a.423.423,0,0,0-.422.422v1.406a.423.423,0,0,0,.422.422H8.578A.423.423,0,0,0,9,13.078Zm-3.375,0V11.672A.423.423,0,0,0,5.2,11.25H3.8a.423.423,0,0,0-.422.422v1.406A.423.423,0,0,0,3.8,13.5H5.2A.423.423,0,0,0,5.625,13.078Zm6.75,0V11.672a.423.423,0,0,0-.422-.422H10.547a.423.423,0,0,0-.422.422v1.406a.423.423,0,0,0,.422.422h1.406A.423.423,0,0,0,12.375,13.078ZM15.75,3.938V16.313A1.688,1.688,0,0,1,14.063,18H1.688A1.688,1.688,0,0,1,0,16.313V3.938A1.688,1.688,0,0,1,1.688,2.25H3.375V.422A.423.423,0,0,1,3.8,0H5.2a.423.423,0,0,1,.422.422V2.25h4.5V.422A.423.423,0,0,1,10.547,0h1.406a.423.423,0,0,1,.422.422V2.25h1.688A1.688,1.688,0,0,1,15.75,3.938ZM14.063,16.1V5.625H1.688V16.1a.212.212,0,0,0,.211.211H13.852A.212.212,0,0,0,14.063,16.1Z"/></svg>