<?xml version="1.0" encoding="utf-8"?>
<!-- Generator: Adobe Illustrator 23.1.0, SVG Export Plug-In . SVG Version: 6.00 Build 0)  -->
<svg version="1.1" id="Component_65_16" xmlns="http://www.w3.org/2000/svg" xmlns:xlink="http://www.w3.org/1999/xlink" x="0px"
	 y="0px" viewBox="0 0 20 20" style="enable-background:new 0 0 20 20;" xml:space="preserve">
<style type="text/css">
	.st0{fill:#63799B;}
	.st1{fill:#2AAA05;}
</style>
<g id="Group_3250" transform="translate(-362 -195)">
	<path id="Path_1906" class="st0" d="M374,195h-9.7c-1.3,0-2.3,1-2.3,2.3c0,0,0,0,0,0v12.8c0,1.3,1,2.3,2.3,2.3c0,0,0,0,0,0h5.5
		c-0.9-1.8-0.9-3.9-0.2-5.8c0,0-0.1,0-0.1,0h-4.2c-0.5,0-0.8-0.4-0.8-0.8c0-0.5,0.4-0.8,0.8-0.8h4.2c0.3,0,0.6,0.2,0.7,0.4
		c0.5-0.8,1.3-1.5,2.1-2.1h-7c-0.5,0-0.8-0.4-0.8-0.8c0-0.5,0.4-0.8,0.8-0.8h7.6c0.5,0,0.8,0.4,0.8,0.8c0,0,0,0.1,0,0.1
		c0.8-0.3,1.7-0.5,2.5-0.5v-4.8C376.3,196,375.3,195,374,195C374,195,374,195,374,195z M368.7,200h-3.4c-0.5,0-0.8-0.4-0.8-0.8
		s0.4-0.8,0.8-0.8h3.4c0.5,0,0.8,0.4,0.8,0.8C369.6,199.6,369.2,200,368.7,200z"/>
	<path id="Icon_awesome-check-circle" class="st1" d="M382,209.4c0,3.1-2.5,5.6-5.7,5.6s-5.7-2.5-5.7-5.6s2.5-5.6,5.7-5.6
		c0,0,0,0,0,0C379.5,203.9,382,206.4,382,209.4z M375.7,212.4l4.2-4.1c0.1-0.1,0.1-0.4,0-0.5l-0.5-0.5c-0.1-0.1-0.4-0.1-0.5,0
		l-3.4,3.4l-1.6-1.6c-0.1-0.1-0.4-0.1-0.5,0l-0.5,0.5c-0.1,0.1-0.1,0.4,0,0.5l2.4,2.3C375.3,212.5,375.5,212.5,375.7,212.4
		L375.7,212.4z"/>
</g>
</svg>
