<svg xmlns="http://www.w3.org/2000/svg" width="12.25" height="14" viewBox="0 0 12.25 14">
  <path id="fa-calendar-alti" d="M4.047,7.875H2.953a.329.329,0,0,1-.328-.328V6.453a.329.329,0,0,1,.328-.328H4.047a.329.329,0,0,1,.328.328V7.547A.329.329,0,0,1,4.047,7.875ZM7,7.547V6.453a.329.329,0,0,0-.328-.328H5.578a.329.329,0,0,0-.328.328V7.547a.329.329,0,0,0,.328.328H6.672A.329.329,0,0,0,7,7.547Zm2.625,0V6.453A.329.329,0,0,0,9.3,6.125H8.2a.329.329,0,0,0-.328.328V7.547a.329.329,0,0,0,.328.328H9.3A.329.329,0,0,0,9.625,7.547ZM7,10.172V9.078a.329.329,0,0,0-.328-.328H5.578a.329.329,0,0,0-.328.328v1.094a.329.329,0,0,0,.328.328H6.672A.329.329,0,0,0,7,10.172Zm-2.625,0V9.078a.329.329,0,0,0-.328-.328H2.953a.329.329,0,0,0-.328.328v1.094a.329.329,0,0,0,.328.328H4.047A.329.329,0,0,0,4.375,10.172Zm5.25,0V9.078A.329.329,0,0,0,9.3,8.75H8.2a.329.329,0,0,0-.328.328v1.094A.329.329,0,0,0,8.2,10.5H9.3A.329.329,0,0,0,9.625,10.172ZM12.25,3.063v9.625A1.313,1.313,0,0,1,10.938,14H1.313A1.313,1.313,0,0,1,0,12.688V3.063A1.313,1.313,0,0,1,1.313,1.75H2.625V.328A.329.329,0,0,1,2.953,0H4.047a.329.329,0,0,1,.328.328V1.75h3.5V.328A.329.329,0,0,1,8.2,0H9.3a.329.329,0,0,1,.328.328V1.75h1.313A1.313,1.313,0,0,1,12.25,3.063Zm-1.312,9.461V4.375H1.313v8.148a.165.165,0,0,0,.164.164h9.3A.165.165,0,0,0,10.938,12.523Z" fill="#63799b"/>
</svg>
