<svg xmlns="http://www.w3.org/2000/svg" width="18" height="14" viewBox="0 0 18 14"><defs><style>.a{fill:#fff;}</style></defs><path class="a" d="M9,32A9,9,0,0,0,1.221,45.525.989.989,0,0,0,2.078,46H15.922a.989.989,0,0,0,.858-.475A9,9,0,0,0,9,32Zm0,2a.987.987,0,0,1,.948.739,1.684,1.684,0,0,0-.108.208l-.288.865A.974.974,0,0,1,9,36a1,1,0,0,1,0-2ZM3,43a1,1,0,1,1,1-1A1,1,0,0,1,3,43Zm1.5-5a1,1,0,1,1,1-1A1,1,0,0,1,4.5,38Zm7.712-2.263L10.3,41.487A1.963,1.963,0,0,1,10.722,44H7.278a1.979,1.979,0,0,1,1.594-2.987l1.917-5.75a.75.75,0,0,1,1.423.475Zm.458,1.787.485-1.455A.986.986,0,0,1,13.5,36a1,1,0,0,1,0,2A.985.985,0,0,1,12.67,37.525ZM15,43a1,1,0,1,1,1-1A1,1,0,0,1,15,43Z" transform="translate(0 -32)"/></svg>