<svg xmlns="http://www.w3.org/2000/svg" width="12.434" height="14.21" viewBox="0 0 12.434 14.21">
  <path id="trash-alt-solid" d="M.888,12.878A1.332,1.332,0,0,0,2.22,14.21h7.993a1.332,1.332,0,0,0,1.332-1.332V3.552H.888ZM8.437,5.773a.444.444,0,1,1,.888,0V11.99a.444.444,0,0,1-.888,0Zm-2.664,0a.444.444,0,1,1,.888,0V11.99a.444.444,0,0,1-.888,0Zm-2.664,0a.444.444,0,1,1,.888,0V11.99a.444.444,0,0,1-.888,0ZM11.99.888H8.66L8.4.369A.666.666,0,0,0,7.8,0H4.63a.658.658,0,0,0-.594.369L3.775.888H.444A.444.444,0,0,0,0,1.332V2.22a.444.444,0,0,0,.444.444H11.99a.444.444,0,0,0,.444-.444V1.332A.444.444,0,0,0,11.99.888Z" fill="#63799b"/>
</svg>
