<?xml version="1.0" encoding="utf-8"?>
<!-- Generator: Adobe Illustrator 23.1.0, SVG Export Plug-In . SVG Version: 6.00 Build 0)  -->
<svg version="1.1" id="trash-alt-solid" xmlns="http://www.w3.org/2000/svg" xmlns:xlink="http://www.w3.org/1999/xlink" x="0px"
	 y="0px" viewBox="0 0 20 20" style="enable-background:new 0 0 20 20;" xml:space="preserve">
<style type="text/css">
	.st0{fill:#63799B;}
</style>
<g id="Component_60" transform="translate(4 4)">
	<path id="Path_267" class="st0" d="M8.4-0.7l4.1,4.1L2.2,13.8l-4.1-4.1L8.4-0.7z M15.6-1.6l-1.8-1.8c-0.7-0.7-1.8-0.7-2.5,0
		L9.5-1.7l4.1,4.1l2-2C16.1-0.2,16.1-1.1,15.6-1.6C15.6-1.6,15.6-1.6,15.6-1.6z M-4,15.4C-4,15.7-3.9,15.9-3.6,16c0.1,0,0.1,0,0.2,0
		l4.5-1.1L-3,10.8L-4,15.4z"/>
</g>
</svg>
