<svg xmlns="http://www.w3.org/2000/svg" width="14" height="10.5" viewBox="0 0 14 10.5">
  <path id="envelope-solid" d="M13.735,67.467A.165.165,0,0,1,14,67.6v5.592A1.313,1.313,0,0,1,12.688,74.5H1.313A1.313,1.313,0,0,1,0,73.188V67.6a.164.164,0,0,1,.265-.129c.612.476,1.425,1.08,4.214,3.106A4.892,4.892,0,0,0,7,71.878a4.894,4.894,0,0,0,2.524-1.3C12.313,68.55,13.122,67.943,13.735,67.467ZM7,71c.634.011,1.548-.8,2.007-1.132,3.629-2.633,3.9-2.863,4.741-3.519A.654.654,0,0,0,14,65.832v-.52A1.313,1.313,0,0,0,12.688,64H1.313A1.313,1.313,0,0,0,0,65.313v.52a.658.658,0,0,0,.252.517c.837.654,1.113.886,4.741,3.519C5.452,70.2,6.366,71.011,7,71Z" transform="translate(0 -64)" fill="#63799b"/>
</svg>
