<svg xmlns="http://www.w3.org/2000/svg" width="18" height="13.5" viewBox="0 0 18 13.5"><defs><style>.a{fill:#fff;}</style></defs><path class="a" d="M17.438,75.25H2.25V64.563A.562.562,0,0,0,1.688,64H.563A.562.562,0,0,0,0,64.563V76.375A1.125,1.125,0,0,0,1.125,77.5H17.438A.562.562,0,0,0,18,76.938V75.813A.562.562,0,0,0,17.438,75.25ZM16.313,65.125H12.162a.844.844,0,0,0-.6,1.44L12.7,67.7l-2.579,2.58L7.546,67.7a1.125,1.125,0,0,0-1.591,0L3.54,70.12a.563.563,0,0,0,0,.8l.8.8a.563.563,0,0,0,.8,0l1.619-1.62L9.329,72.67a1.125,1.125,0,0,0,1.591,0L14.3,69.3l1.139,1.139a.844.844,0,0,0,1.44-.6v-4.15A.562.562,0,0,0,16.313,65.125Z" transform="translate(0 -64)"/></svg>