<svg xmlns="http://www.w3.org/2000/svg" width="17.231" height="18" viewBox="0 0 17.231 18"><defs><style>.a{fill:#fff;}</style></defs><path class="a" d="M35.655,19.262l-1.546-.893a6.99,6.99,0,0,0,0-2.548l1.546-.893a.439.439,0,0,0,.2-.508,9.038,9.038,0,0,0-1.985-3.433.437.437,0,0,0-.537-.083l-1.546.893a6.849,6.849,0,0,0-2.206-1.274V8.741a.435.435,0,0,0-.341-.425,9.123,9.123,0,0,0-3.963,0,.435.435,0,0,0-.341.425v1.785A7.065,7.065,0,0,0,22.729,11.8l-1.542-.893a.431.431,0,0,0-.537.083,8.984,8.984,0,0,0-1.985,3.433.434.434,0,0,0,.2.508l1.546.893a6.99,6.99,0,0,0,0,2.548l-1.546.893a.439.439,0,0,0-.2.508,9.038,9.038,0,0,0,1.985,3.433.437.437,0,0,0,.537.083l1.546-.893a6.849,6.849,0,0,0,2.206,1.274v1.785a.435.435,0,0,0,.341.425,9.123,9.123,0,0,0,3.963,0,.435.435,0,0,0,.341-.425V23.671A7.065,7.065,0,0,0,31.79,22.4l1.546.893a.431.431,0,0,0,.537-.083,8.984,8.984,0,0,0,1.985-3.433A.448.448,0,0,0,35.655,19.262Zm-8.4.737a2.9,2.9,0,1,1,2.9-2.9A2.907,2.907,0,0,1,27.258,20Z" transform="translate(-18.644 -8.099)"/></svg>