<svg xmlns="http://www.w3.org/2000/svg" width="18" height="12.6" viewBox="0 0 18 12.6"><defs><style>.a{fill:#fff;}</style></defs><path class="a" d="M2.7,37.4A1.8,1.8,0,1,0,.9,35.6,1.8,1.8,0,0,0,2.7,37.4Zm12.6,0a1.8,1.8,0,1,0-1.8-1.8A1.8,1.8,0,0,0,15.3,37.4Zm.9.9H14.4a1.8,1.8,0,0,0-1.268.523A4.114,4.114,0,0,1,15.244,41.9H17.1A.9.9,0,0,0,18,41v-.9A1.8,1.8,0,0,0,16.2,38.3ZM9,38.3a3.15,3.15,0,1,0-3.15-3.15A3.148,3.148,0,0,0,9,38.3Zm2.16.9h-.233a4.349,4.349,0,0,1-3.853,0H6.84A3.241,3.241,0,0,0,3.6,42.44v.81A1.35,1.35,0,0,0,4.95,44.6h8.1a1.35,1.35,0,0,0,1.35-1.35v-.81A3.241,3.241,0,0,0,11.16,39.2Zm-6.292-.377A1.8,1.8,0,0,0,3.6,38.3H1.8A1.8,1.8,0,0,0,0,40.1V41a.9.9,0,0,0,.9.9H2.753A4.124,4.124,0,0,1,4.868,38.823Z" transform="translate(0 -32)"/></svg>