<?xml version="1.0" encoding="utf-8"?>
<!-- Generator: Adobe Illustrator 23.1.0, SVG Export Plug-In . SVG Version: 6.00 Build 0)  -->
<svg version="1.1" id="Component_59_9" xmlns="http://www.w3.org/2000/svg" xmlns:xlink="http://www.w3.org/1999/xlink" x="0px"
	 y="0px" viewBox="0 0 20 20" style="enable-background:new 0 0 20 20;" xml:space="preserve">
<style type="text/css">
	.st0{fill:#63799B;}
	.st1{fill:#FF4E00;}
</style>
<g id="Group_3251" transform="translate(-388 -196)">
	<path id="Path_1920" class="st0" d="M399.9,196h-9.6c-1.3,0-2.3,1-2.3,2.3c0,0,0,0,0,0v12.9c0,1.3,1,2.3,2.3,2.3c0,0,0,0,0,0h5.5
		c-0.9-1.8-0.9-4-0.2-5.8c0,0-0.1,0-0.1,0h-4.2c-0.5,0-0.8-0.4-0.8-0.8c0-0.5,0.4-0.8,0.8-0.8h4.2c0.3,0,0.6,0.2,0.7,0.4
		c0.5-0.8,1.2-1.6,2.1-2.1h-7c-0.5,0-0.8-0.4-0.8-0.8s0.4-0.8,0.8-0.8h7.5c0.5,0,0.8,0.4,0.8,0.8c0,0,0,0.1,0,0.1
		c0.8-0.3,1.6-0.5,2.5-0.5v-4.8C402.2,197,401.2,196,399.9,196C399.9,196,399.9,196,399.9,196z M394.7,201h-3.3
		c-0.5,0-0.8-0.4-0.8-0.8s0.4-0.8,0.8-0.8h3.3c0.5,0,0.8,0.4,0.8,0.8S395.1,201,394.7,201z"/>
	<path id="Path_1919" class="st1" d="M406.4,206.4c-2.2-2.2-5.8-2.2-8,0c-2.2,2.2-2.2,5.8,0,8c2.2,2.2,5.8,2.2,8,0
		C408.5,212.2,408.5,208.6,406.4,206.4z M403.4,212.6l-1-1l-1,1c-0.3,0.3-0.9,0.3-1.2,0c-0.3-0.3-0.3-0.9,0-1.2l1-1l-1-1
		c-0.3-0.3-0.3-0.9,0-1.2c0.3-0.3,0.9-0.3,1.2,0l0,0l1,1l1-1c0.3-0.3,0.9-0.3,1.2,0s0.3,0.9,0,1.2l-1,1l1,1c0.3,0.3,0.3,0.9,0,1.2
		S403.7,212.9,403.4,212.6z"/>
</g>
<g id="Group_3249" transform="translate(-388 -196)">
	<path id="Path_1920-2" class="st0" d="M399.9,196h-9.6c-1.3,0-2.3,1-2.3,2.3c0,0,0,0,0,0v12.9c0,1.3,1,2.3,2.3,2.3c0,0,0,0,0,0h5.5
		c-0.9-1.8-0.9-4-0.2-5.8c0,0-0.1,0-0.1,0h-4.2c-0.5,0-0.8-0.4-0.8-0.8s0.4-0.8,0.8-0.8h4.2c0.3,0,0.6,0.2,0.7,0.4
		c0.5-0.8,1.2-1.6,2.1-2.1h-7c-0.5,0-0.8-0.4-0.8-0.8c0-0.5,0.4-0.8,0.8-0.8h7.5c0.5,0,0.8,0.4,0.8,0.8c0,0,0,0.1,0,0.1
		c0.8-0.3,1.6-0.5,2.5-0.5v-4.8C402.2,197,401.2,196,399.9,196C399.9,196,399.9,196,399.9,196z M394.7,201h-3.3
		c-0.5,0-0.8-0.4-0.8-0.8c0-0.5,0.4-0.8,0.8-0.8h3.3c0.5,0,0.8,0.4,0.8,0.8C395.5,200.6,395.1,201,394.7,201z"/>
	<path id="Path_1919-2" class="st1" d="M406.4,206.4c-2.2-2.2-5.8-2.2-8,0c-2.2,2.2-2.2,5.8,0,8c2.2,2.2,5.8,2.2,8,0
		C408.5,212.2,408.5,208.6,406.4,206.4z M403.4,212.6l-1-1l-1,1c-0.3,0.3-0.9,0.3-1.2,0c-0.3-0.3-0.3-0.9,0-1.2l1-1l-1-1
		c-0.3-0.3-0.3-0.9,0-1.2c0.3-0.3,0.9-0.3,1.2,0l0,0l1,1l1-1c0.3-0.3,0.9-0.3,1.2,0c0.3,0.3,0.3,0.9,0,1.2l-1,1l1,1
		c0.3,0.3,0.3,0.9,0,1.2C404.3,212.9,403.7,212.9,403.4,212.6z"/>
</g>
</svg>
