<?xml version="1.0" encoding="utf-8"?>
<!-- Generator: Adobe Illustrator 23.1.0, SVG Export Plug-In . SVG Version: 6.00 Build 0)  -->
<svg version="1.1" id="Layer_1" xmlns="http://www.w3.org/2000/svg" xmlns:xlink="http://www.w3.org/1999/xlink" x="0px" y="0px"
	 viewBox="0 0 110 110" style="enable-background:new 0 0 110 110;" xml:space="preserve">
<style type="text/css">
	.st0{fill:#EBF2F9;}
	.st1{fill:#FFFFFF;}
</style>
<g>
	<path id="Rectangle_1" class="st0" d="M3,0h104c1.7,0,3,1.3,3,3v104c0,1.7-1.3,3-3,3H3c-1.7,0-3-1.3-3-3V3C0,1.3,1.3,0,3,0z"/>
	<path id="users-solid" class="st1" d="M55,55c11,0,20-9,20-20s-9-20-20-20s-20,9-20,20C35,46,43.9,55,55,55C55,55,55,55,55,55z
		 M68.7,60.7h-1.5c-7.7,3.8-16.8,3.8-24.5,0h-1.5c-11.4,0-20.6,9.2-20.6,20.6v5.1c0,4.7,3.8,8.6,8.6,8.6h51.4c4.7,0,8.6-3.8,8.6-8.6
		v-5.1C89.3,69.9,80.1,60.7,68.7,60.7z"/>
</g>
</svg>
