<svg width="40" height="40" viewBox="0 0 40 40" fill="none" xmlns="http://www.w3.org/2000/svg">
<path d="M32.4751 2.49219H2.46181C1.42579 2.49219 0.585938 3.33204 0.585938 4.36806V8.74504H34.3509V4.36806C34.3509 3.33204 33.5111 2.49219 32.4751 2.49219Z" fill="white"/>
<path d="M32.4751 31.2549H2.46181C1.42579 31.2549 0.585938 30.415 0.585938 29.379V8.7449H34.3509V29.3791C34.3509 30.415 33.5111 31.2549 32.4751 31.2549Z" fill="white"/>
<path d="M29.974 15.623H19.9696C19.6242 15.623 19.3442 15.3431 19.3442 14.9977V13.1219C19.3442 12.7766 19.6242 12.4966 19.9696 12.4966H29.974C30.3193 12.4966 30.5993 12.7765 30.5993 13.1219V14.9977C30.5992 15.343 30.3193 15.623 29.974 15.623Z" fill="#E0E0FF"/>
<path d="M18.1899 25.1465L15.1117 23.8639C14.6456 23.6698 14.3421 23.2144 14.3421 22.7096V20.6253H9.33983V22.7096C9.33983 23.2145 9.03624 23.6699 8.57022 23.864L5.492 25.1466C4.79293 25.4379 4.33762 26.1209 4.33762 26.8782V31.2552H19.3443V26.8782C19.3443 26.1208 18.889 25.4378 18.1899 25.1465Z" fill="#EBEBFA"/>
<path d="M9.33981 20.6252V22.7096C9.33981 22.825 9.31981 22.9367 9.28973 23.0444C10.0378 23.4905 10.9084 23.7517 11.8409 23.7517C12.7734 23.7517 13.644 23.4905 14.3921 23.0444C14.362 22.9367 14.342 22.825 14.342 22.7096V20.6253L9.33981 20.6252Z" fill="#EBEBFA"/>
<path d="M11.8409 13.122C9.76896 13.122 8.08926 14.5218 8.08926 16.2484V18.7495C8.08926 20.8215 9.76896 22.5012 11.8409 22.5012C13.9129 22.5012 15.5926 20.8215 15.5926 18.7495V16.2484C15.5926 14.5217 13.9129 13.122 11.8409 13.122Z" fill="#E0E0FF"/>
<path d="M30.5745 20.7681L22.9947 23.4046C22.7214 23.4996 22.5506 23.7682 22.5776 24.0563C22.7558 25.9518 23.8623 32.8641 30.6392 37.2871C30.8467 37.4225 31.1239 37.4225 31.3314 37.2871C38.1082 32.8641 39.2148 25.9518 39.3929 24.0563C39.4199 23.7682 39.2492 23.4996 38.9759 23.4046L31.3961 20.7681C31.13 20.6756 30.8405 20.6756 30.5745 20.7681Z" fill="#E0E0FF"/>
<path d="M22.119 30.669H19.9302V26.878C19.9302 25.881 19.3356 24.989 18.4153 24.6057L15.337 23.323C15.0885 23.2195 14.928 22.9787 14.928 22.7096V21.7947C15.7168 20.9925 16.1785 19.9 16.1785 18.7495V16.2484C16.1785 14.2014 14.2327 12.536 11.8409 12.536C9.4492 12.536 7.50332 14.2013 7.50332 16.2484V18.7495C7.50332 19.8999 7.96505 20.9924 8.75388 21.7947V22.7096C8.75388 22.9787 8.59333 23.2195 8.34489 23.3231L5.26667 24.6057C4.34635 24.9891 3.75166 25.8811 3.75166 26.8781V30.6691H2.46181C1.75056 30.6691 1.17188 30.0904 1.17188 29.3792V9.3309H33.765V19.0621C33.765 19.3856 34.0273 19.648 34.3509 19.648C34.6745 19.648 34.9368 19.3856 34.9368 19.0621V4.36806C34.9368 3.01063 33.8325 1.90625 32.4751 1.90625H2.46181C1.10438 1.90625 0 3.01063 0 4.36806V29.3791C0 30.7366 1.10438 31.8409 2.46181 31.8409H22.119C22.4426 31.8409 22.7049 31.5785 22.7049 31.2549C22.7049 30.9313 22.4426 30.669 22.119 30.669ZM2.46181 3.07813H32.4751C33.1864 3.07813 33.765 3.65681 33.765 4.36806V8.15902H1.17188V4.36806C1.17188 3.65681 1.75056 3.07813 2.46181 3.07813ZM4.92354 26.878C4.92354 26.3556 5.23511 25.8883 5.71738 25.6873L8.79568 24.4047C9.48216 24.1187 9.92576 23.4533 9.92576 22.7096V22.5826C10.1408 22.5964 10.3555 22.4912 10.4708 22.2921C10.633 22.012 10.5374 21.6536 10.2574 21.4914C9.28154 20.9264 8.67528 19.8757 8.67528 18.7496V16.2484C8.67528 14.8477 10.0954 13.708 11.841 13.708C13.5866 13.708 15.0067 14.8476 15.0067 16.2484V18.7496C15.0067 19.8762 14.4001 20.9271 13.4236 21.4921C13.1435 21.6541 13.0478 22.0125 13.2098 22.2927C13.3184 22.4804 13.5152 22.5854 13.7176 22.5854C13.7305 22.5854 13.7434 22.5837 13.7563 22.5829V22.7097C13.7563 23.4535 14.1998 24.1189 14.8864 24.4049L17.9647 25.6876C18.4469 25.8884 18.7585 26.3558 18.7585 26.8782V30.6692H4.92354V26.878Z" fill="#6B707F"/>
<path d="M3.09331 6.2046C3.4169 6.2046 3.67925 5.94225 3.67925 5.61866C3.67925 5.29506 3.4169 5.03271 3.09331 5.03271H3.08706C2.76346 5.03271 2.50424 5.29506 2.50424 5.61866C2.50424 5.94225 2.76971 6.2046 3.09331 6.2046Z" fill="#6B707F"/>
<path d="M6.8387 6.2046C7.1623 6.2046 7.42464 5.94225 7.42464 5.61866C7.42464 5.29506 7.1623 5.03271 6.8387 5.03271H6.83245C6.50885 5.03271 6.24963 5.29506 6.24963 5.61866C6.24963 5.94225 6.5151 6.2046 6.8387 6.2046Z" fill="#6B707F"/>
<path d="M4.96284 6.2046C5.28644 6.2046 5.54879 5.94225 5.54879 5.61866C5.54879 5.29506 5.28644 5.03271 4.96284 5.03271H4.9566C4.633 5.03271 4.37378 5.29506 4.37378 5.61866C4.37378 5.94225 4.63925 6.2046 4.96284 6.2046Z" fill="#6B707F"/>
<path d="M9.33982 6.2046H31.8498C32.1734 6.2046 32.4357 5.94225 32.4357 5.61866C32.4357 5.29506 32.1734 5.03271 31.8498 5.03271H9.33982C9.01622 5.03271 8.75388 5.29506 8.75388 5.61866C8.75388 5.94225 9.01622 6.2046 9.33982 6.2046Z" fill="#6B707F"/>
<path d="M39.6068 23.008L31.1656 20.0719C31.0409 20.0284 30.9053 20.0284 30.7806 20.0719L24.7103 22.1832C24.4047 22.2895 24.2431 22.6235 24.3494 22.9291C24.4557 23.2348 24.7897 23.3962 25.0952 23.2901L30.973 21.2457L38.8002 23.9682C38.732 24.7164 38.5025 26.3927 37.7414 28.4001C36.8136 30.8472 34.8897 34.2643 30.973 36.8133C27.0732 34.2751 25.1506 30.8764 24.2209 28.4429C23.1799 25.718 23.118 23.5697 23.1175 23.5483C23.1102 23.2251 22.8464 22.9696 22.5193 22.9755C22.1958 22.9824 21.939 23.2502 21.9458 23.5737C21.9479 23.6678 22.0072 25.9102 23.1087 28.8155C24.1247 31.4951 26.26 35.2646 30.6632 38.0052C30.758 38.0642 30.8654 38.0937 30.9728 38.0937C31.0803 38.0937 31.1877 38.0643 31.2825 38.0052C35.6857 35.2646 37.821 31.4951 38.837 28.8155C39.9385 25.9102 39.9979 23.6678 39.9999 23.5737C40.0055 23.3198 39.8466 23.0913 39.6068 23.008Z" fill="#6B707F"/>
<path d="M30.3308 31.3498C30.4807 31.3498 30.6307 31.2926 30.7451 31.1782L34.7822 27.141C35.0111 26.9122 35.0111 26.5412 34.7822 26.3124C34.5534 26.0836 34.1824 26.0836 33.9536 26.3124L30.3308 29.9353L28.176 27.7805C27.9472 27.5517 27.5762 27.5517 27.3474 27.7805C27.1186 28.0093 27.1186 28.3803 27.3474 28.6091L29.9165 31.1782C30.0309 31.2926 30.1809 31.3498 30.3308 31.3498Z" fill="#6B707F"/>
<path d="M31.1852 14.9977V13.1218C31.1852 12.4539 30.6418 11.9106 29.974 11.9106H19.9695C19.3016 11.9106 18.7583 12.454 18.7583 13.1218V14.9977C18.7583 15.6656 19.3017 16.2089 19.9695 16.2089H29.9739C30.6418 16.209 31.1852 15.6656 31.1852 14.9977ZM19.9302 14.9977V13.1218C19.9302 13.1001 19.9478 13.0825 19.9695 13.0825H29.9739C29.9956 13.0825 30.0132 13.1002 30.0132 13.1218V14.9977C30.0132 15.0194 29.9956 15.037 29.9739 15.037H19.9695C19.9478 15.0371 19.9302 15.0194 19.9302 14.9977Z" fill="#6B707F"/>
<path d="M28.0588 18.124C28.0588 17.8004 27.7964 17.5381 27.4728 17.5381H19.9695C19.6459 17.5381 19.3835 17.8004 19.3835 18.124C19.3835 18.4476 19.6459 18.71 19.9695 18.71H27.4728C27.7964 18.71 28.0588 18.4476 28.0588 18.124Z" fill="#6B707F"/>
<path d="M19.9695 20.0394C19.6459 20.0394 19.3835 20.3017 19.3835 20.6253C19.3835 20.9489 19.6459 21.2113 19.9695 21.2113H24.3465C24.6701 21.2113 24.9324 20.9489 24.9324 20.6253C24.9324 20.3017 24.6701 20.0394 24.3465 20.0394H19.9695Z" fill="#6B707F"/>
</svg>
