<svg width="189" height="161" viewBox="0 0 189 161" fill="none" xmlns="http://www.w3.org/2000/svg">
<path d="M189 143.285V155.607C189 158.369 186.761 160.607 184 160.607H0.180115C0.180115 160.607 8.18935 146.375 26.3191 135.536C26.3191 135.536 29.6643 135.87 29.4549 133.627C29.2454 131.385 27.9889 128.674 29.4549 129.922C30.9209 131.176 30.9209 134.446 31.5435 133.017C32.1718 131.588 31.3341 128.454 32.3812 129.606C33.4284 130.758 34.4698 132.995 35.3076 131.769C36.1453 130.544 52.4524 125.957 53.709 125.748C54.9656 125.539 54.3033 122.862 54.6542 122.8C56.4259 122.467 54.6656 125.33 56.59 124.5C58.5145 123.664 64.1634 123.614 66.6709 122.077C69.1784 120.541 115.394 116.158 149.265 123.563C183.147 130.967 189 143.285 189 143.285Z" fill="#D0D4DE"/>
<path d="M85.4289 81.8923C85.3271 81.8923 85.2252 81.8471 85.1629 81.7567C84.2743 80.5198 82.6498 76.8939 82.48 75.2221C82.3101 73.5503 83.2667 69.5572 83.3064 69.3878C83.346 69.2127 83.5214 69.1054 83.7026 69.1449C83.878 69.1844 83.9856 69.3652 83.946 69.5403C83.9346 69.5798 82.9781 73.5955 83.1309 75.1543C83.2894 76.7075 84.8686 80.2205 85.695 81.3727C85.8025 81.5195 85.7686 81.7228 85.6214 81.8302C85.5591 81.8697 85.4912 81.8923 85.4289 81.8923Z" fill="#3B4B75"/>
<path d="M90.0817 118.813L87.9251 118.654C90.2628 118.028 91.7118 114.272 92.6174 111.691C92.7873 111.205 92.9514 110.742 93.1155 110.318C93.925 108.223 93.9929 101.699 93.9476 99.1917C93.608 98.0113 92.708 95.1365 92.0797 94.199C91.808 93.7923 91.7118 93.3405 91.808 92.8886C92.0061 91.9398 92.9797 91.3298 93.8344 90.7876C94.1061 90.6125 94.5023 90.364 94.6664 90.2115C94.8589 89.0029 96.2683 88.6245 97.3154 88.3421C97.6437 88.2573 97.955 88.1726 98.2041 88.0823C99.2173 87.156 103.649 78.6898 104.628 74.1488C105.455 70.3083 104.057 68.9584 104.04 68.9471L105.319 67.4561C105.557 67.6537 107.623 69.5458 106.547 74.5611C105.71 78.4582 100.859 89.1328 99.0135 89.8727C98.6456 90.0195 98.2267 90.1325 97.8249 90.2398C97.4456 90.3414 96.8287 90.5052 96.5966 90.6521C96.4721 91.4428 95.7023 91.9285 94.8872 92.4425C94.5702 92.6458 94.0099 92.996 93.8004 93.2275C94.7287 94.7242 95.7645 98.3558 95.8834 98.7794L95.9174 99.0279C95.9343 99.9542 96.0589 108.144 94.9551 111.018C94.7966 111.425 94.6438 111.871 94.4797 112.334C93.4665 115.232 93.4269 117.92 90.0817 118.813Z" fill="#C9E8F7"/>
<path d="M126.568 99.2257C125.017 98.4632 120.992 97.6782 118.587 97.1699C117.556 96.9496 116.668 96.7632 116 96.5938C114.573 96.2323 113.583 96.6333 112.711 96.9891C112.394 97.119 112.089 97.2433 111.783 97.3167C110.56 97.6217 109.728 96.4243 109.123 95.5433C109.06 95.4529 108.981 95.3399 108.908 95.2326C108.902 95.2383 108.896 95.2383 108.891 95.2439C108.126 95.6901 107.074 96.3001 106.083 96.012C105.613 95.8765 105.234 95.5546 104.996 95.0914C104.696 94.504 104.549 93.8941 104.425 93.3519C104.238 92.5668 104.108 92.0698 103.717 91.7592C102.381 90.6917 102.387 90.189 102.353 90.0365L103.361 88.4043C103.361 88.4099 104.17 89.6073 104.945 90.2286C105.879 90.9741 106.123 92.002 106.338 92.9057C106.44 93.3462 106.542 93.7585 106.711 94.12C107.023 94.0635 107.645 93.7021 107.9 93.5552C108.262 93.3462 108.523 93.1937 108.8 93.126C109.683 92.9057 110.232 93.6851 110.753 94.4363C110.94 94.7074 111.268 95.1818 111.477 95.3682C111.619 95.3174 111.789 95.2496 111.975 95.1762C112.955 94.7752 114.438 94.1708 116.492 94.6961C117.121 94.8542 117.992 95.0406 119 95.2552C121.649 95.8144 124.202 96.5542 125.973 97.424L126.568 99.2257Z" fill="#C9E8F7"/>
<path d="M137.713 109.855C137.65 109.855 137.588 109.838 137.531 109.804C133.875 107.426 125.639 106.754 125.554 106.749C125.373 106.737 125.237 106.579 125.254 106.399C125.266 106.218 125.43 106.071 125.605 106.099C125.951 106.127 134.09 106.788 137.888 109.256C138.041 109.358 138.08 109.556 137.984 109.708C137.922 109.804 137.82 109.855 137.713 109.855Z" fill="#3B4B75"/>
<path d="M134.769 103.428C134.56 103.428 134.305 103.388 134.016 103.304C132.85 102.97 126.675 99.6551 126.409 99.5139C126.251 99.4292 126.188 99.2315 126.273 99.0734C126.358 98.9152 126.562 98.8588 126.72 98.9378C128.922 100.118 133.315 102.423 134.192 102.671C134.684 102.812 134.877 102.767 134.928 102.75C134.962 102.603 135.092 102.496 135.245 102.496C135.426 102.496 135.573 102.643 135.573 102.824C135.573 102.953 135.511 103.134 135.335 103.264C135.199 103.371 135.013 103.428 134.769 103.428Z" fill="#3B4B75"/>
<path d="M138.205 99.0621C138.205 99.0621 135.092 102.089 135.092 102.417C135.092 102.745 137.305 104.704 137.469 105.36C137.633 106.015 139.111 105.196 139.518 105.36C139.926 105.523 139.846 106.67 138.697 106.913C137.548 107.156 137.633 110.104 138.041 110.51C138.448 110.917 141.975 112.719 143.939 114.763C145.903 116.808 146.973 118.852 147.793 119.18C148.614 119.508 149.435 119.75 149.678 118.118C149.922 116.48 150.171 112.967 148.037 110.431C145.909 107.895 145.003 107.653 144.346 107.653C143.69 107.653 142.626 107.732 143.033 106.834C143.441 105.936 144.346 105.117 144.018 104.382C143.695 103.643 141.154 98.8192 138.205 99.0621Z" fill="#3B4B75"/>
<path d="M149.593 120.377C148.92 120.377 148.529 119.988 148.399 119.734C148.32 119.57 148.382 119.378 148.546 119.293C148.71 119.214 148.903 119.276 148.982 119.434C149.01 119.479 149.231 119.847 149.922 119.677C150.861 119.44 151.597 119.174 151.812 118.056C152.05 116.797 151.869 113.436 150.38 111.008C149.622 109.776 148.603 108.822 147.788 108.054C146.905 107.223 146.203 106.568 146.152 105.868C146.135 105.614 146.129 105.36 146.124 105.094C146.101 104.179 146.078 103.236 145.535 102.146C144.794 100.666 143.028 98.7346 141.358 98.0512C139.824 97.4242 139.133 97.701 138.505 99.1864C138.431 99.3502 138.245 99.4293 138.075 99.3615C137.911 99.2937 137.831 99.1017 137.899 98.9322C138.664 97.1193 139.739 96.69 141.601 97.4468C143.48 98.215 145.331 100.293 146.112 101.858C146.724 103.078 146.746 104.14 146.775 105.083C146.78 105.337 146.786 105.58 146.803 105.828C146.837 106.275 147.482 106.879 148.229 107.579C149.078 108.37 150.131 109.358 150.935 110.669C152.61 113.402 152.678 116.972 152.452 118.18C152.169 119.677 151.127 120.055 150.08 120.321C149.905 120.36 149.741 120.377 149.593 120.377Z" fill="#3B4B75"/>
<path d="M91.2533 69.1392C89.6458 69.1392 86.7308 68.9302 85.2025 67.5182C84.3818 66.7614 83.9799 66.1514 83.6177 65.6149C83.312 65.1517 83.046 64.7507 82.5592 64.2989C81.3026 63.1241 81.8177 61.763 81.8403 61.7065C81.9083 61.537 82.0951 61.458 82.2649 61.5201C82.4347 61.5879 82.5139 61.7743 82.4517 61.9437C82.4347 61.9832 82.0837 62.9603 83.0064 63.8245C83.5497 64.3271 83.8497 64.779 84.1667 65.2534C84.5176 65.7843 84.8855 66.3321 85.6497 67.0381C87.2232 68.4953 90.7156 68.5122 91.7571 68.4783C91.9382 68.4727 92.091 68.6139 92.0967 68.7946C92.1024 68.9754 91.9608 69.1279 91.7797 69.1335C91.6212 69.1392 91.4458 69.1392 91.2533 69.1392Z" fill="#3B4B75"/>
<path d="M93.6646 72.0537C90.4496 72.0537 87.3081 71.455 85.6384 70.7998C82.1686 69.4443 82.2705 67.9872 82.3837 67.5749C82.429 67.4111 82.4856 67.2699 82.5365 67.14C82.6724 66.8011 82.7177 66.6768 82.5139 66.3719C82.0441 65.6715 82.4233 64.1522 82.4686 63.9828C82.5139 63.8077 82.6894 63.7004 82.8705 63.7512C83.046 63.7964 83.1535 63.9771 83.1026 64.1522C82.9497 64.7283 82.8365 65.6885 83.0573 66.016C83.4535 66.6091 83.295 67.0044 83.1422 67.3885C83.0969 67.5014 83.0516 67.62 83.012 67.7556C82.8592 68.3091 83.5158 69.2749 85.8761 70.2011C88.7119 71.3138 95.9287 72.2626 100.202 70.2124C107.136 66.8802 107.628 65.6489 107.611 65.3496C107.6 65.0672 107.566 64.7622 107.532 64.4459C107.436 63.5422 107.323 62.52 107.634 61.7236C108.019 60.7296 108.404 59.7412 108.008 58.5043C107.725 57.6289 107.662 56.3186 107.606 55.0534C107.566 54.2853 107.532 53.5567 107.453 53.0032C107.221 51.4444 106.728 50.3205 106.53 50.1567C106.389 50.0437 106.372 49.8347 106.491 49.6935C106.61 49.5523 106.813 49.5354 106.955 49.654C107.43 50.0494 107.917 51.6195 108.104 52.9129C108.189 53.5002 108.228 54.2401 108.262 55.0308C108.319 56.2564 108.381 57.5216 108.636 58.3179C109.1 59.7751 108.659 60.9216 108.262 61.9326C107.996 62.6216 108.093 63.5197 108.183 64.3894C108.217 64.717 108.251 65.0333 108.268 65.327C108.302 66.0612 107.538 67.428 100.491 70.8111C98.572 71.7091 96.0928 72.0537 93.6646 72.0537Z" fill="#3B4B75"/>
<path d="M123.154 72.6183C121.485 72.6183 119.634 72.2455 118.79 72.0535C117.472 71.7541 117.211 70.0259 117.019 68.7664C116.951 68.3033 116.843 67.6086 116.713 67.4956C115.932 66.976 115.802 66.5185 115.802 65.3212C115.802 64.6999 115.445 64.2311 115.032 63.6833C114.777 63.3444 114.517 62.9942 114.302 62.5763C113.843 61.6613 112.253 57.1938 112.643 55.9061C112.915 55.0024 111.811 52.9748 110 52.2688C108.03 51.5007 104.096 49.0721 103.932 48.9704C103.779 48.8744 103.729 48.6711 103.825 48.5186C103.921 48.3661 104.125 48.3209 104.278 48.4113C104.317 48.4339 108.325 50.9133 110.238 51.6532C112.304 52.4552 113.651 54.7991 113.272 56.0868C112.989 57.0187 114.313 61.1304 114.89 62.2769C115.072 62.644 115.321 62.9716 115.558 63.2823C116 63.8696 116.458 64.4796 116.458 65.3155C116.458 66.4281 116.566 66.6089 117.075 66.9478C117.438 67.1906 117.534 67.8062 117.664 68.6647C117.839 69.8 118.055 71.2119 118.932 71.4096C121.966 72.1043 125.39 72.285 125.758 71.0538C126.064 70.0202 125.934 68.3823 125.815 66.9365C125.73 65.8859 125.651 64.8919 125.747 64.2311C125.888 63.2314 124.032 56.2788 122.917 52.1276C122.379 50.1113 121.949 48.5186 121.819 47.8804C121.422 46.0166 109.977 37.748 107.045 36.5563C104.521 35.5284 100.751 34.1842 97.1287 34.2915C97.0324 34.3028 96.9362 34.2519 96.874 34.1842C96.2287 33.4612 95.4023 32.6479 95.0797 32.4615C95.0287 32.518 94.9495 32.5971 94.8815 32.6762C94.1004 33.5177 92.2722 35.4945 89.6515 35.1612C87.3931 34.8732 86.0799 34.3479 85.4629 34.0881C85.4516 34.3479 85.4063 34.6699 85.1686 34.9071C85.1516 34.924 85.1346 34.9353 85.1176 34.9523C85.061 34.9862 83.7196 35.8277 80.0461 35.4945C76.4801 35.1725 74.5217 34.9918 71.1029 31.5861C70.1463 30.6316 69.0369 29.4681 67.8539 28.2312C65.103 25.3565 61.9899 22.0976 60.8013 21.5046C59.4428 20.8268 56.9976 20.5557 56.1146 20.4767C56.0184 21.5102 55.5146 24.5262 52.9505 25.5372C52.9562 25.9438 53.1316 27.1412 54.7052 29.1914C54.9373 29.4907 55.2259 29.8804 55.5712 30.3266C58.2145 33.817 64.4125 41.9839 66.3766 42.8255C67.0105 43.0966 68.0633 43.475 69.286 43.9099C72.5972 45.0959 76.7235 46.5701 77.9518 47.8013C78.9933 48.8405 79.8876 52.7828 80.68 56.2619C81.1442 58.2951 81.6196 60.4018 81.9026 60.7407C82.3271 61.249 83.1988 61.6895 83.9007 62.0454C84.6139 62.4068 85.0271 62.6271 85.2025 62.8925C85.3044 63.045 85.2648 63.2484 85.112 63.3444C84.9648 63.4404 84.7554 63.4065 84.6592 63.254C84.5629 63.1128 84.0309 62.8417 83.6064 62.6271C82.8535 62.243 81.9139 61.7686 81.4045 61.1586C81.0366 60.7181 80.6687 59.148 80.0461 56.4031C79.3499 53.3476 78.3989 49.1625 77.4933 48.2588C76.3669 47.1348 72.15 45.6269 69.0652 44.5199C67.8369 44.0793 66.7728 43.7009 66.1219 43.4185C63.9936 42.5092 57.9542 34.54 55.0505 30.7107C54.7108 30.2645 54.4165 29.8804 54.1901 29.5755C52.0279 26.7515 52.2939 25.3565 52.3279 25.2096C52.3562 25.1023 52.4354 25.0176 52.543 24.978C55.3448 24.0292 55.4863 20.1378 55.492 20.0982C55.492 20.0079 55.5316 19.9232 55.5995 19.8667C55.6674 19.8045 55.7523 19.7763 55.8429 19.782C55.9844 19.7933 59.3183 20.0135 61.1013 20.9059C62.3918 21.5498 65.4144 24.7126 68.3294 27.7681C69.5067 28.9994 70.6161 30.1628 71.567 31.1117C74.816 34.3536 76.582 34.5117 80.1083 34.8337C83.2101 35.1161 84.512 34.5287 84.7327 34.4101C84.812 34.2971 84.812 34.0712 84.8176 33.9131C84.8176 33.7323 84.829 33.3031 85.2195 33.3031C85.3214 33.3031 85.412 33.3426 85.6271 33.433C86.1704 33.6645 87.4383 34.2124 89.7421 34.5061C92.0231 34.7941 93.6929 32.9924 94.4117 32.2243C94.6438 31.9702 94.7457 31.8685 94.8532 31.812C95.0457 31.716 95.391 31.5409 97.2758 33.625C100.966 33.5572 104.764 34.9071 107.311 35.9407C110.266 37.1437 121.994 45.4292 122.481 47.7335C122.611 48.3492 123.036 49.9362 123.573 51.9469C125.22 58.0918 126.568 63.2653 126.42 64.3102C126.335 64.9032 126.409 65.8577 126.494 66.8743C126.613 68.3767 126.749 70.0767 126.409 71.2289C126.075 72.302 124.694 72.6183 123.154 72.6183Z" fill="#3B4B75"/>
<path d="M89.6062 37.923C88.5421 37.923 87.5345 37.7535 86.6346 37.4429C83.3629 36.3189 83.3969 35.2176 83.4365 35.003C83.4705 34.8222 83.646 34.7093 83.8214 34.7432C83.9912 34.7771 84.1044 34.9296 84.0875 35.099C84.0931 35.1555 84.2176 35.9179 86.8496 36.8216C89.7703 37.8269 94.0042 37.2678 96.8682 33.7604C96.9815 33.6192 97.1909 33.6023 97.3324 33.7153C97.4739 33.8282 97.4965 34.0372 97.3777 34.1727C95.1815 36.8555 92.2438 37.923 89.6062 37.923Z" fill="#3B4B75"/>
<path d="M60.9484 12.0554L20.4098 4.96729L57.8919 6.2776L60.9484 12.0554Z" fill="#C9E8F7"/>
<path d="M54.275 6.15372V4.3125L20.4098 4.96766L54.275 6.15372Z" fill="#A7D4E8"/>
<path d="M56.4712 4.27292L49.4751 0.607422L20.4098 4.96762L56.4712 4.27292Z" fill="#C9E8F7"/>
<path d="M52.6449 25.6277C52.5543 25.6277 52.4637 25.5882 52.3958 25.5148C52.3449 25.4583 47.3752 19.6917 45.8865 18.5283C45.5865 18.2911 45.2696 18.0313 44.9356 17.7658C43.5998 16.6814 42.0885 15.4445 40.5489 14.795C38.5112 13.9309 35.9075 9.75705 35.7943 9.57631C35.6981 9.42382 35.749 9.22049 35.9019 9.12448C36.0547 9.02846 36.2585 9.0793 36.3547 9.23179C36.383 9.27133 38.9584 13.4113 40.8036 14.1907C42.4281 14.8797 43.979 16.1392 45.3488 17.2575C45.6771 17.5229 45.9884 17.7771 46.2884 18.0143C47.828 19.2173 52.6845 24.8539 52.8882 25.0912C53.0071 25.2267 52.9901 25.4357 52.8543 25.5543C52.7977 25.6051 52.7184 25.6277 52.6449 25.6277Z" fill="#3B4B75"/>
<path d="M42.7168 8.81917L21.2871 4.96729L43.4922 11.6318L42.7168 8.81917Z" fill="#A7D4E8"/>
<path d="M46.7582 12.6093L54.7165 14.9984L55.2655 11.0731L45.8016 9.37305C45.8016 9.37305 46.0111 10.5986 46.1299 11.0787C46.2545 11.5644 46.7582 12.6093 46.7582 12.6093Z" fill="#89C9E5"/>
<path d="M86.7365 34.5457C86.7082 34.5457 86.6742 34.54 86.6459 34.5344C86.4704 34.4836 86.3742 34.3028 86.4195 34.1277C86.4252 34.1052 87.0365 31.9533 86.4308 30.4566C86.3629 30.2872 86.4421 30.1008 86.6119 30.033C86.7817 29.9652 86.9685 30.0443 87.0365 30.2137C87.727 31.9194 87.0761 34.2125 87.0478 34.3085C87.0082 34.4497 86.878 34.5457 86.7365 34.5457Z" fill="#3B4B75"/>
<path d="M94.0325 33.4048C93.9306 33.4048 93.8288 33.3596 93.7665 33.2692C92.8722 32.038 91.3779 29.8861 91.4345 29.2761C91.4515 29.0954 91.6213 28.9599 91.7911 28.9824C91.9722 28.9994 92.1024 29.1575 92.0854 29.3383C92.108 29.6771 93.2514 31.4449 94.2929 32.8852C94.4004 33.032 94.3665 33.2353 94.2193 33.3426C94.1684 33.3822 94.1005 33.4048 94.0325 33.4048Z" fill="#3B4B75"/>
<path d="M130.666 84.2813C130.592 84.2813 130.513 84.2756 130.433 84.2531C129.528 84.0497 125.985 80.4294 125.322 79.5483C124.705 78.7294 123.794 78.2267 123.46 78.0686C123.256 78.2945 122.86 79.0739 122.803 79.7856C122.736 80.6214 122.605 81.4404 122.119 81.7736C121.96 81.8809 121.694 81.9826 121.321 81.8696C120.313 81.5646 120.471 80.6327 120.681 79.345L120.754 78.8932C120.924 77.8314 121.524 76.7018 121.887 76.024C121.977 75.8546 122.079 75.6682 122.124 75.5609C121.864 75.1204 120.8 73.3752 120.07 72.1891C119.973 72.0366 120.024 71.8333 120.177 71.7373C120.33 71.6413 120.534 71.6921 120.63 71.8446C120.97 72.4037 122.679 75.1938 122.764 75.3576C122.866 75.5666 122.775 75.7416 122.464 76.329C122.124 76.9672 121.553 78.0347 121.405 78.9892L121.332 79.4467C121.111 80.7909 121.1 81.1185 121.513 81.2427C121.666 81.2879 121.728 81.2484 121.756 81.2314C122.051 81.0281 122.13 80.051 122.158 79.7291C122.232 78.7972 122.77 77.7297 123.166 77.4699C123.347 77.3513 123.494 77.3795 123.568 77.4021C123.913 77.5151 125.102 78.1477 125.854 79.153C126.72 80.3108 130.032 83.4849 130.581 83.6092C130.643 83.6205 130.75 83.6374 130.779 83.581C130.835 83.4736 130.79 83.0783 130.292 82.6208C129.647 82.0334 127.501 79.2546 127.688 78.5769C127.728 78.4301 127.841 78.3227 127.988 78.2945C128.294 78.2324 128.605 78.4583 130.349 79.9945C131.249 80.7852 132.601 81.9826 132.952 82.056C133.139 82.0956 133.269 82.1125 133.349 82.1181C133.309 82.0391 133.241 81.9261 133.116 81.7567C132.845 81.3839 132.301 80.7909 131.781 80.2204C131.028 79.3902 130.309 78.6108 130.06 78.1477C129.975 77.9895 130.032 77.7918 130.196 77.7015C130.354 77.6168 130.552 77.6732 130.643 77.837C130.858 78.2324 131.605 79.057 132.273 79.7799C132.833 80.3899 133.36 80.9716 133.654 81.3726C133.949 81.7793 134.198 82.2029 133.988 82.5304C133.773 82.8637 133.303 82.7959 132.833 82.7055C132.347 82.6095 131.413 81.8075 129.924 80.4972C129.528 80.147 129.052 79.7234 128.668 79.4071C129.177 80.2656 130.156 81.6155 130.739 82.1407C131.367 82.7055 131.616 83.4115 131.367 83.8859C131.22 84.1401 130.966 84.2813 130.666 84.2813Z" fill="#3B4B75"/>
<path d="M133.977 81.5478C133.518 81.5478 132.941 81.3388 132.652 81.175C132.494 81.0846 132.437 80.887 132.528 80.7288C132.618 80.5707 132.816 80.5142 132.975 80.6046C133.394 80.8418 133.965 80.9265 134.09 80.8813C134.101 80.8644 134.113 80.8531 134.118 80.8474C134.113 80.8474 134.107 80.6554 133.496 80.0849C132.607 79.2547 131.209 77.4361 130.649 76.6906C130.558 76.5719 130.552 76.3573 130.649 76.2444C131.039 75.7756 134.384 77.3344 134.418 77.3457C134.452 77.3626 134.475 77.3626 134.481 77.3626C134.486 77.3401 134.492 77.0972 134.062 76.747C133.541 76.3234 130.626 75.256 126.256 73.8892L126.177 73.8666C125.249 73.5785 124.858 72.2626 124.819 72.1157C124.768 71.9406 124.869 71.7599 125.045 71.7147C125.226 71.6695 125.402 71.7656 125.447 71.9406C125.532 72.2513 125.871 73.0872 126.369 73.2453L126.449 73.2679C129.686 74.2845 133.711 75.6231 134.475 76.2444C135.205 76.8374 135.222 77.4135 135.018 77.7298C134.831 78.0178 134.464 78.1025 134.124 77.9331C133.784 77.7637 132.528 77.2666 131.69 76.9786C132.324 77.7975 133.292 79.0062 133.943 79.6105C134.537 80.164 134.786 80.5481 134.769 80.8926C134.758 81.1863 134.554 81.3501 134.475 81.4122C134.35 81.5082 134.175 81.5478 133.977 81.5478Z" fill="#3B4B75"/>
<path d="M82.0498 6.15353C82.0498 6.15353 77.997 7.1984 77.4537 9.40674C76.9046 11.6207 77.4537 13.9081 79.2027 13.6935C80.9517 13.4732 83.2441 11.9483 84.778 12.0556C86.3063 12.1629 85.978 12.739 85.4346 13.7048C84.8855 14.6706 85.8704 16.3085 88.6043 15.546C91.3382 14.7836 91.4458 13.3659 93.4099 13.9081C95.374 14.456 93.5797 18.9235 94.0438 19.5786C94.5023 20.2338 94.5872 21.1036 95.64 19.5786C96.6928 18.0537 98.2211 15.9809 99.8569 16.5231C101.498 17.071 98.3286 20.2282 96.6872 20.8833C95.0457 21.5385 95.0457 21.5385 95.0457 21.5385C95.0457 21.5385 94.3891 26.1133 93.4042 26.7685C93.4042 26.7685 99.9588 25.8987 102.472 23.6056C104.985 21.3182 102.8 21.3182 103.236 20.1152C103.672 18.9178 106.185 18.8275 106.185 17.3477C106.185 15.8623 105.857 16.0826 103.564 14.9925C101.272 13.9025 101.923 13.3546 102.251 12.8124C102.579 12.2646 102.908 11.2875 101.051 10.7396C99.1946 10.1918 94.7966 8.88713 95.6287 7.68412C96.4607 6.48676 96.8513 4.08639 94.0325 4.30666C91.2137 4.52693 88.5194 6.34556 86.9176 6.14224C85.3157 5.95021 83.8214 5.50402 82.0498 6.15353Z" fill="#3B4B75"/>
<path d="M87.393 30.8066C87.3704 30.8066 87.3421 30.8066 87.3194 30.7953C87.1327 30.7501 86.8836 30.6936 86.5836 30.6315C84.6761 30.2136 80.7083 29.3494 78.5914 27.8527C76.0046 26.0228 76.4744 21.4706 76.9386 20.0191C77.3801 18.6353 78.4499 13.6651 78.4612 13.6143C78.4782 13.5296 78.5348 13.4505 78.6083 13.4053C78.6819 13.3602 78.7781 13.3432 78.863 13.3658C78.9706 13.394 79.0272 13.394 79.0555 13.394C79.0895 13.3771 79.1234 13.3658 79.163 13.3602C79.9102 13.2698 80.7989 12.9083 81.6535 12.5582C82.7969 12.095 83.8837 11.6545 84.795 11.7223C85.2987 11.7561 85.8987 11.8522 86.1251 12.2701C86.3629 12.7106 86.0799 13.2133 85.7176 13.8515C85.5478 14.1565 85.5874 14.5406 85.8251 14.8399C86.2836 15.4217 87.2855 15.5628 88.5138 15.224C89.6288 14.9133 90.2967 14.4841 90.8345 14.1339C91.6099 13.6313 92.2269 13.2359 93.5004 13.5861C95.074 14.021 94.7117 16.2688 94.4513 17.9067C94.3608 18.4602 94.2419 19.2227 94.3212 19.3865C94.4061 19.5051 94.4796 19.635 94.5476 19.7593C94.6155 19.8779 94.7174 20.0642 94.774 20.0925C94.757 20.0812 94.9325 20.0191 95.374 19.3808C96.2966 18.0423 98.0116 15.5516 99.9701 16.2011C100.395 16.3423 100.638 16.6472 100.649 17.0595C100.689 18.3529 98.2494 20.6008 96.8173 21.1769L95.3343 21.7699C95.1362 22.555 94.2815 25.8703 93.7042 26.9208C93.6759 26.9773 93.6363 27.0507 93.591 27.1354C93.2287 27.8527 92.4646 29.3381 90.9986 30.1062C90.8401 30.191 90.642 30.1288 90.5571 29.9707C90.4722 29.8126 90.5345 29.6149 90.6929 29.5302C91.9722 28.8581 92.6684 27.4969 93.0023 26.8417C93.0476 26.7457 93.0929 26.6723 93.1212 26.6102C93.7268 25.5201 94.7174 21.4988 94.7287 21.4593C94.7513 21.3576 94.8249 21.2729 94.9268 21.2334L96.5683 20.5782C97.8305 20.0755 100.015 17.9745 99.9871 17.0878C99.9871 16.9974 99.9644 16.9014 99.755 16.828C98.4475 16.3931 97.1343 17.9802 95.9117 19.7536C95.4079 20.4822 95.057 20.7533 94.7174 20.742C94.3438 20.725 94.1457 20.3862 93.9759 20.0812C93.9136 19.9739 93.8514 19.8609 93.7778 19.7536C93.5514 19.4373 93.6306 18.8669 93.8061 17.7994C94.0268 16.4044 94.3381 14.4897 93.3306 14.213C92.3457 13.9362 91.9382 14.2017 91.1967 14.6761C90.625 15.0489 89.9118 15.5064 88.6949 15.8452C86.5497 16.4439 85.6157 15.6193 85.3157 15.2353C84.9195 14.727 84.8516 14.0605 85.1516 13.5296C85.3553 13.1738 85.6214 12.6937 85.5591 12.5694C85.5534 12.5525 85.4572 12.417 84.761 12.3661C83.9969 12.3096 82.9384 12.7389 81.9083 13.1568C81.0309 13.5127 80.1309 13.8798 79.3159 13.9927C79.2423 14.0266 79.1687 14.0379 79.0442 14.0379C78.8008 15.1449 77.9631 18.9742 77.5669 20.2111C77.1593 21.4875 76.7122 25.7122 78.9763 27.3162C80.98 28.7338 84.8629 29.581 86.7251 29.9876C87.0308 30.0554 87.2855 30.1119 87.4779 30.1571C87.6534 30.1966 87.7609 30.3773 87.7213 30.5524C87.676 30.7106 87.5402 30.8066 87.393 30.8066ZM78.9536 13.4675C78.9536 13.4731 78.9536 13.4731 78.9536 13.4675C78.9536 13.4731 78.9536 13.4731 78.9536 13.4675ZM78.9706 13.4562C78.9649 13.4618 78.9593 13.4675 78.9593 13.4675C78.9593 13.4618 78.9649 13.4618 78.9706 13.4562Z" fill="#3B4B75"/>
<path d="M77.7593 18.5054C77.7084 18.5054 77.6574 18.4941 77.6065 18.4658C75.9084 17.5735 74.9349 15.8 74.5896 14.4445C74.4877 14.0322 74.3462 13.2923 74.5839 12.9365C74.7537 12.6824 75.0481 12.5525 75.382 12.5864C75.9197 12.6372 76.6839 13.1286 77.2046 14.3711C77.8329 15.8452 78.3536 16.523 78.3593 16.5286C78.4725 16.6698 78.4442 16.8788 78.3027 16.9861C78.1612 17.099 77.9517 17.0708 77.8442 16.9296C77.8216 16.9014 77.2669 16.1841 76.6046 14.6196C76.1631 13.5804 75.5914 13.2585 75.3197 13.2359C75.1896 13.2246 75.1443 13.2811 75.133 13.298C74.9462 13.7103 75.6141 16.6698 77.9178 17.8841C78.0763 17.9688 78.1385 18.1665 78.0536 18.3246C77.9914 18.4433 77.8782 18.5054 77.7593 18.5054Z" fill="#3B4B75"/>
<path d="M91.1231 17.602C91.0665 17.602 91.0099 17.5964 90.9533 17.5851C90.6703 17.523 90.4722 17.3253 90.4043 17.0372C90.3137 16.6532 89.493 16.1053 88.944 15.8399C88.7798 15.7608 88.7119 15.5631 88.7911 15.405C88.8704 15.2412 89.0685 15.1734 89.227 15.2525C89.4987 15.3824 90.8515 16.0715 91.0439 16.8904C91.0552 16.9412 91.0665 16.9412 91.0892 16.9469C91.1854 16.9695 91.3609 16.896 91.4571 16.7661C91.5363 16.6588 91.542 16.5402 91.4741 16.4047C91.0496 15.6083 90.7496 15.1621 90.3873 15.0661C90.2118 15.0209 90.1043 14.8402 90.1496 14.6651C90.1949 14.49 90.3703 14.3827 90.5515 14.4336C91.2081 14.603 91.6043 15.2582 92.0514 16.0997C92.2439 16.4612 92.2156 16.8452 91.9778 17.1615C91.7741 17.4382 91.4401 17.602 91.1231 17.602Z" fill="#3B4B75"/>
<path d="M79.3612 15.3255C79.3272 15.3255 79.2932 15.3198 79.2593 15.3085C78.8461 15.173 78.597 14.9471 78.5178 14.6477C78.3933 14.1846 78.7499 13.7723 78.7895 13.7271C78.9083 13.5916 79.1178 13.5803 79.2536 13.7045C79.3895 13.8231 79.4008 14.0321 79.2819 14.162C79.2253 14.2298 79.1291 14.3879 79.1517 14.4839C79.1687 14.5404 79.2366 14.5969 79.3498 14.6477C79.6498 14.5122 80.4026 14.2072 81.263 14.1733C81.4554 14.1676 81.6026 14.0547 81.6932 13.8457C81.7951 13.6029 81.7781 13.3374 81.7328 13.2301C81.5856 13.247 81.4328 13.1623 81.3819 13.0211C81.3196 12.8573 81.3932 12.6766 81.5573 12.6088C81.7781 12.5185 82.0101 12.5636 82.1743 12.7274C82.4799 13.0324 82.4743 13.6367 82.3158 14.0547C82.1347 14.5291 81.7554 14.8059 81.2913 14.8285C80.3404 14.868 79.531 15.2916 79.5196 15.2972C79.4687 15.3142 79.4178 15.3255 79.3612 15.3255Z" fill="#3B4B75"/>
<path d="M80.1819 17.2741C79.7291 17.1046 79.4574 17.003 79.1687 16.9352C79.0272 16.9013 78.8801 16.8674 78.7103 16.8392C78.5348 16.8053 78.348 16.7884 78.1046 16.7262C78.3423 16.3083 78.8574 16.1276 79.3442 16.2405C79.8197 16.3648 80.2102 16.7827 80.1819 17.2741Z" fill="#3B4B75"/>
<path d="M86.1365 18.1782C86.3402 17.9014 86.6402 17.7263 86.9685 17.6303C87.2912 17.5287 87.6534 17.523 87.9874 17.5964C88.3213 17.6868 88.6496 17.8223 88.893 18.0539C89.1534 18.2685 89.3402 18.5509 89.4477 18.8672C89.1251 18.7599 88.8647 18.63 88.5987 18.534C88.3383 18.4267 88.0836 18.3589 87.8289 18.2968C87.5742 18.229 87.3138 18.2064 87.0365 18.1838C86.7591 18.1725 86.4704 18.1725 86.1365 18.1782Z" fill="#3B4B75"/>
<path d="M82.0951 22.0753C82.0724 22.0753 82.0554 22.0753 82.0328 22.0697C81.9875 22.0584 80.9347 21.8551 80.3178 21.567C80.1027 21.4654 79.9612 21.3016 79.8989 21.0813C79.763 20.6012 80.114 20.0477 80.1819 19.9461L81.8007 16.7663C81.8177 16.738 81.8347 16.7098 81.8573 16.6872C82.197 16.337 82.5196 16.2975 82.7347 16.3201C83.2441 16.3822 83.5441 16.8679 83.578 16.9244C83.6177 16.9866 83.629 17.0656 83.6177 17.139C83.612 17.1616 83.2498 19.5451 83.2101 20.5391C83.1592 21.7873 82.2196 22.0584 82.18 22.0697C82.1517 22.0697 82.1234 22.0753 82.0951 22.0753ZM82.3611 17.1052L80.7479 20.2736C80.6177 20.4713 80.4932 20.765 80.5328 20.9062C80.5385 20.9232 80.5442 20.9457 80.6008 20.974C81.0479 21.183 81.8121 21.358 82.0724 21.4089C82.2139 21.3411 82.5366 21.1208 82.5649 20.5109C82.5988 19.6072 82.8818 17.6925 82.9611 17.1729C82.8932 17.0882 82.78 16.9866 82.6667 16.9696C82.5649 16.9583 82.4743 17.0035 82.3611 17.1052Z" fill="#3B4B75"/>
<path d="M78.0989 18.1613C78.4215 18.0596 78.5574 18.1217 78.8744 18.246C79.7234 18.5792 80.0177 19.85 79.8366 20.3075C79.6555 20.7706 79.0668 20.2453 78.2178 19.9121C77.9404 19.8048 77.9121 19.8895 77.6801 19.8218L78.0989 18.1613Z" fill="#C9E8F7"/>
<path d="M84.812 21.3182C84.7158 21.9056 85.7629 21.7418 86.9855 21.9395C88.2081 22.1372 89.1534 22.6173 89.244 22.0299C89.3402 21.4425 88.5534 20.0023 87.3308 19.8046C86.1025 19.6126 84.9026 20.7309 84.812 21.3182Z" fill="#C9E8F7"/>
<path d="M81.7441 24.5374C82.4856 24.3115 83.1083 24.1928 83.7139 24.0065C84.0195 23.9274 84.2969 23.8088 84.5969 23.6902C84.8969 23.5716 85.1742 23.4021 85.5308 23.2271C85.4629 23.6055 85.2648 23.9726 84.9705 24.238C84.6875 24.5091 84.3252 24.7068 83.9516 24.8198C83.5724 24.9214 83.1875 24.9666 82.8083 24.9158C82.4403 24.8762 82.0668 24.7689 81.7441 24.5374Z" fill="#3B4B75"/>
<path d="M96.1324 51.8623C96.1324 54.9856 94.8193 57.5216 90.1156 57.5216C86.7931 57.5216 84.8007 54.9913 84.8007 51.8623C84.8007 48.739 86.1308 46.2031 90.1156 46.2031C94.0495 46.2088 96.1324 48.739 96.1324 51.8623Z" fill="#C9E8F7"/>
<path d="M89.5383 52.5627C89.4987 52.5627 89.4647 52.5627 89.4307 52.5627C89.244 52.5514 88.8987 52.5345 88.8025 52.2521C88.7119 51.9866 88.9327 51.8002 89.0911 51.659C89.1534 51.6082 89.2666 51.5065 89.3062 51.4444C89.2949 51.4388 89.2779 51.4275 89.2553 51.4105C88.8308 51.1112 85.9893 51.2072 83.4818 51.467C83.3007 51.4839 83.1422 51.354 83.1196 51.1733C83.1026 50.9926 83.2328 50.8344 83.4139 50.8118C84.3026 50.7215 88.7855 50.2866 89.6289 50.8683C89.8439 51.0208 89.9572 51.1959 89.9685 51.4049C89.9798 51.5969 89.8892 51.7607 89.7817 51.8906C90.0534 51.8736 90.4269 51.8285 90.8571 51.7776C92.7533 51.5517 95.923 51.1733 98.7249 51.9132C98.9003 51.9584 99.0022 52.1391 98.9569 52.3142C98.9116 52.4893 98.7305 52.5909 98.555 52.5458C95.8778 51.8398 92.7816 52.2069 90.9364 52.4271C90.3194 52.5062 89.8496 52.5627 89.5383 52.5627Z" fill="#3B4B75"/>
<path d="M43.7923 14.3431C43.6677 14.3431 43.5432 14.2697 43.4923 14.1454C43.1696 13.3942 43.164 11.9653 43.164 11.6716L42.3885 8.94933C42.3546 8.84202 42.3829 8.72341 42.4621 8.63869C42.5357 8.55397 42.6489 8.51444 42.7621 8.53703L45.5073 9.0171C45.6375 9.03969 46.2941 9.23172 46.4186 10.7115C46.4752 11.3779 46.679 11.8298 47.0412 12.4341C47.1375 12.5866 47.0865 12.7899 46.928 12.8803C46.7752 12.9706 46.5714 12.9255 46.4809 12.7673C46.079 12.0952 45.8299 11.553 45.7677 10.7623C45.6884 9.78522 45.3715 9.64967 45.3715 9.64967L43.1696 9.26561L43.8149 11.5304C43.8262 11.5587 43.8262 11.5926 43.8262 11.6264C43.8206 12.0613 43.8545 13.3039 44.0979 13.88C44.1715 14.0438 44.0923 14.2358 43.9281 14.3092C43.8828 14.3374 43.8375 14.3431 43.7923 14.3431Z" fill="#3B4B75"/>
<path d="M55.8146 20.4485C55.758 20.4485 55.7014 20.4315 55.6448 20.4033C54.8977 19.9571 48.3205 16.0149 47.4375 14.3883C47.3809 14.2866 47.3865 14.1567 47.4488 14.055C47.4488 14.0494 47.7148 13.6201 47.7714 12.9819C47.7884 12.8012 47.9525 12.6656 48.128 12.6826C48.3091 12.6995 48.4393 12.8577 48.428 13.0384C48.3827 13.575 48.2186 13.9929 48.1054 14.2188C49.0676 15.5574 54.0656 18.6976 55.9788 19.8385C56.1316 19.9289 56.1882 20.1322 56.092 20.2847C56.0354 20.392 55.9278 20.4485 55.8146 20.4485Z" fill="#3B4B75"/>
<path d="M89.1081 132.419C89.1081 132.419 88.7968 127.646 88.5251 127.409C88.2478 127.177 85.0158 127.618 84.3479 127.285C83.68 126.951 83.312 128.77 82.8819 128.996C82.4517 129.222 81.546 128.335 82.163 127.2C82.78 126.065 80.2499 124.026 79.6102 124.071C78.9706 124.122 74.9349 125.777 71.8104 125.957C68.686 126.138 66.2011 125.562 65.3408 126.014C64.4804 126.466 63.688 126.974 64.8823 128.352C66.0823 129.73 68.8558 132.453 72.5123 132.486C76.1688 132.52 77.0179 131.944 77.4877 131.396C77.9575 130.849 78.6537 129.9 79.1121 130.888C79.5763 131.876 79.6159 133.215 80.4706 133.469C81.331 133.729 87.2006 135.062 89.1081 132.419Z" fill="#3B4B75"/>
<path d="M83.6403 137.276C82.7007 137.276 81.8121 137.174 81.0989 136.999C79.6442 136.637 78.7329 135.898 77.9292 135.248C77.7141 135.073 77.499 134.898 77.2839 134.74C76.8764 134.44 75.8971 134.548 74.7651 134.672C73.4915 134.813 71.9123 134.983 70.2425 134.723C66.7558 134.169 63.7163 131.679 62.8673 130.622C61.8258 129.329 62.2503 128.194 62.7767 127.143C63.2635 126.166 64.0729 126.081 64.4295 126.166C64.605 126.211 64.7125 126.386 64.6672 126.562C64.6219 126.737 64.4521 126.844 64.2767 126.804C64.2201 126.793 63.722 126.714 63.3597 127.437C62.8786 128.403 62.5729 129.222 63.3767 130.216C64.2653 131.317 67.2256 133.588 70.3444 134.079C71.9236 134.327 73.4576 134.164 74.6915 134.028C76.016 133.881 77.0575 133.768 77.6744 134.22C77.9009 134.384 78.1216 134.565 78.3424 134.745C79.1291 135.384 79.9442 136.044 81.2574 136.372C83.0347 136.813 85.9384 136.722 87.7101 135.813C89.3572 134.966 89.6232 134.181 88.8195 132.571C88.7402 132.407 88.8025 132.215 88.9666 132.13C89.1251 132.051 89.3232 132.113 89.4081 132.277C90.3704 134.198 89.9685 135.389 88.0157 136.395C86.7874 137.016 85.1516 137.276 83.6403 137.276Z" fill="#3B4B75"/>
<path d="M80.8102 126.307C80.6913 126.307 80.5724 126.239 80.5158 126.127C80.4366 125.968 80.4988 125.776 80.6517 125.692C80.6969 125.663 82.1743 124.658 83.7874 118.033C83.8327 117.858 84.0082 117.756 84.1837 117.79C84.3591 117.835 84.4667 118.01 84.427 118.186C82.7176 125.212 81.1328 126.183 80.9573 126.268C80.9064 126.296 80.8611 126.307 80.8102 126.307Z" fill="#3B4B75"/>
<path d="M87.461 128.589C87.2911 128.589 87.144 128.454 87.1327 128.284C86.9798 125.822 90.2345 119.005 90.376 118.711C90.4552 118.547 90.6533 118.479 90.8118 118.558C90.976 118.637 91.0439 118.829 90.9647 118.993C90.9307 119.061 87.6421 125.952 87.7836 128.239C87.7949 128.42 87.6591 128.572 87.4779 128.583C87.4723 128.589 87.4666 128.589 87.461 128.589Z" fill="#3B4B75"/>
<path d="M90.0137 119.231C87.8629 119.231 84.0026 118.09 82.146 117.011C80.2159 115.887 80.7989 111.714 81.314 108.037C81.3762 107.585 81.4385 107.139 81.4951 106.71C81.7215 104.964 81.6649 101.593 81.6083 98.3337C81.5404 94.4818 81.4724 90.8502 81.829 89.3366C82.4856 86.5465 88.1742 76.1204 88.4176 75.6799C88.5025 75.5217 88.7006 75.4596 88.8647 75.55C89.0232 75.6347 89.0798 75.8324 88.9949 75.9962C88.9383 76.1035 83.1083 86.7837 82.4687 89.4891C82.129 90.918 82.197 94.6851 82.2649 98.3224C82.3215 101.604 82.3838 104.998 82.1517 106.794C82.0951 107.224 82.0328 107.67 81.9705 108.127C81.5064 111.431 80.9291 115.543 82.4856 116.447C84.4158 117.571 88.9496 118.841 90.6194 118.531C91.4345 118.384 94.225 117.582 95.7815 113.504C97.0494 110.189 97.4003 99.2204 97.4003 98.0852C97.4003 97.7859 96.8626 96.8765 96.4664 96.2101C95.6796 94.8885 95.3174 94.239 95.6513 93.8718C95.9174 93.5725 96.3815 93.7815 96.5513 93.8606C97.3154 94.2051 98.0173 94.7699 98.5267 95.1822C98.6513 95.2838 98.7871 95.3911 98.9116 95.4815C98.906 95.4533 98.8946 95.4194 98.889 95.3855C98.7475 94.8659 98.589 94.4084 98.4645 94.0413C98.1871 93.2449 98.0343 92.8044 98.2947 92.5107C98.4362 92.3526 98.6513 92.3017 98.9456 92.3582C99.8059 92.5276 100.276 92.4599 100.615 92.121C101.057 91.6466 108.823 79.1025 109.377 76.4198C110 73.4094 109.943 70.0715 109.259 68.9702C108.455 67.6881 107.481 66.3891 107.47 66.3778C107.362 66.2309 107.391 66.0276 107.538 65.9203C107.679 65.813 107.889 65.8412 107.996 65.9881C108.008 65.9993 108.998 67.321 109.813 68.6256C110.713 70.0602 110.594 73.7822 110.023 76.5497C109.451 79.3228 101.566 92.0927 101.085 92.5785C100.451 93.211 99.6305 93.1546 98.838 92.9964C98.872 93.1828 98.9909 93.516 99.0928 93.821C99.2229 94.1994 99.3871 94.6682 99.5343 95.2048C99.6475 95.6284 99.738 96.0576 99.438 96.2553C99.1097 96.4699 98.7645 96.1875 98.1305 95.6848C97.6211 95.2725 96.9815 94.7586 96.2966 94.4479C96.2853 94.4423 96.2683 94.4366 96.257 94.431C96.4041 94.7868 96.7777 95.4194 97.0438 95.8712C97.6834 96.9443 98.0683 97.6277 98.0683 98.0796C98.0683 98.1925 97.8135 110.053 96.4098 113.736C94.7287 118.135 91.6552 119.011 90.7552 119.175C90.5232 119.214 90.2798 119.231 90.0137 119.231Z" fill="#3B4B75"/>
<path d="M119.787 108.906C119.498 108.906 119.232 108.895 119 108.878C117.641 108.776 112.921 107.228 108.755 105.862C106.253 105.043 103.893 104.269 102.715 103.958C99.5342 103.122 97.5418 100.677 97.4626 100.575C97.3494 100.434 97.372 100.231 97.5135 100.118C97.655 100.005 97.8588 100.027 97.972 100.168C97.989 100.191 99.9135 102.546 102.879 103.326C104.074 103.642 106.445 104.416 108.959 105.24C112.881 106.528 117.772 108.126 119.051 108.222C120.964 108.369 124.207 107.963 125.305 106.246C126.409 104.517 126.545 100.344 126.251 99.3157L126.211 99.1745C125.86 97.9319 125.039 95.0289 122.362 94.1365C119.011 93.0239 113.164 91.4199 112.541 91.5272C112.411 91.5611 112.27 91.8774 112.185 92.0694C112.055 92.3574 111.919 92.6624 111.602 92.6681C111.268 92.6681 111.104 92.3235 111.025 92.1767C110.906 91.9395 110.787 91.6627 110.668 91.3747C110.487 90.9398 110.108 90.0361 109.898 89.9853C109.689 90.1434 109.411 90.4936 109.168 90.8042C108.642 91.4707 108.291 91.9056 107.894 91.77C107.549 91.6514 107.549 91.2109 107.549 91.0471C107.549 90.6235 107.628 90.2225 107.696 89.8723C107.872 88.9517 107.877 88.6354 107.272 88.4095C105.823 87.8673 105.5 85.467 105.5 84.5859C105.5 84.4051 105.647 84.2583 105.828 84.2583C106.01 84.2583 106.157 84.4051 106.157 84.5859C106.157 85.1563 106.383 87.376 107.504 87.7939C108.681 88.2344 108.5 89.1663 108.342 89.9909C108.279 90.2959 108.223 90.6179 108.211 90.9398C108.353 90.7817 108.523 90.5614 108.659 90.3976C108.953 90.0192 109.236 89.669 109.491 89.477C109.723 89.3075 109.938 89.3132 110.079 89.3527C110.6 89.4939 110.917 90.2507 111.285 91.1205C111.387 91.3634 111.489 91.6063 111.591 91.8152C111.591 91.8096 111.596 91.8096 111.596 91.8039C111.749 91.4651 111.953 91.0076 112.4 90.8946C113.238 90.6913 120.375 92.7867 122.583 93.5209C125.588 94.5206 126.505 97.7738 126.851 98.9994L126.89 99.1349C127.224 100.31 127.105 104.659 125.866 106.596C124.688 108.437 121.711 108.906 119.787 108.906Z" fill="#3B4B75"/>
<path d="M163.535 130.278C163.336 130.278 163.218 130.261 163.189 130.255C163.008 130.227 162.889 130.063 162.918 129.883C162.946 129.702 163.116 129.578 163.291 129.611C163.336 129.617 167.231 130.08 170.695 123.5C173.672 117.852 173.808 116.152 173.768 115.729C173.655 115.802 173.519 115.938 173.389 116.056C173.089 116.333 172.715 116.678 172.223 116.881C171.572 117.141 164.548 123.105 163.104 129.363C163.065 129.538 162.889 129.651 162.714 129.611C162.538 129.572 162.425 129.397 162.465 129.222C163.97 122.659 171.204 116.587 171.974 116.277C172.353 116.124 172.665 115.836 172.936 115.582C173.219 115.317 173.468 115.091 173.763 115.029C173.955 114.995 174.142 115.062 174.261 115.226C175.036 116.265 172.721 121.049 171.266 123.805C168.131 129.77 164.638 130.278 163.535 130.278Z" fill="#3B4B75"/>
<path d="M164.038 129.51C163.942 129.51 163.852 129.47 163.789 129.391C163.67 129.25 163.693 129.047 163.829 128.928C163.874 128.888 168.306 125.138 170.225 121.066C170.304 120.902 170.497 120.834 170.661 120.908C170.825 120.987 170.893 121.179 170.819 121.343C168.838 125.545 164.44 129.267 164.253 129.425C164.186 129.481 164.112 129.51 164.038 129.51Z" fill="#3B4B75"/>
<path d="M163.257 121.619C163.246 121.619 163.24 121.619 163.229 121.619C163.048 121.602 162.912 121.444 162.929 121.269C163.376 115.898 166.002 110.363 170.734 104.811C170.932 104.58 171.068 104.422 171.125 104.337C171.215 104.207 171.323 104.004 171.436 103.789C171.821 103.072 172.132 102.501 172.58 102.625C172.97 102.733 173.146 103.202 173.027 105.455C172.789 109.99 169.704 118.716 169.574 119.084C169.512 119.253 169.325 119.343 169.155 119.281C168.985 119.219 168.895 119.033 168.957 118.863C168.991 118.773 172.144 109.855 172.376 105.416C172.432 104.314 172.41 103.749 172.37 103.467C172.251 103.659 172.11 103.919 172.019 104.094C171.889 104.337 171.77 104.563 171.668 104.704C171.606 104.794 171.459 104.969 171.238 105.229C166.597 110.674 164.021 116.084 163.586 121.32C163.574 121.495 163.427 121.619 163.257 121.619Z" fill="#3B4B75"/>
<path d="M163.427 124.839C163.399 124.839 163.365 124.834 163.336 124.828C163.161 124.777 163.065 124.596 163.116 124.421C165.023 117.904 169.472 109.714 169.517 109.635C169.602 109.477 169.806 109.42 169.965 109.505C170.123 109.59 170.18 109.787 170.095 109.951C170.05 110.03 165.635 118.163 163.75 124.608C163.699 124.749 163.569 124.839 163.427 124.839Z" fill="#3B4B75"/>
<path d="M161.463 129.617C161.384 129.617 161.299 129.589 161.237 129.527C161.01 129.312 155.712 124.133 156.329 117.683C156.867 112.063 158.242 106.726 159.329 106.026C159.538 105.89 159.725 105.907 159.838 105.952C160.489 106.178 160.625 107.133 160.795 108.347C160.925 109.256 161.067 110.284 161.44 111.154C162.352 113.295 164.553 123.099 163.37 128.408C163.331 128.583 163.161 128.696 162.98 128.657C162.804 128.617 162.691 128.442 162.731 128.267C163.88 123.088 161.729 113.503 160.835 111.408C160.427 110.459 160.274 109.386 160.144 108.437C160.037 107.686 159.906 106.754 159.657 106.59C159.052 106.974 157.58 111.476 156.98 117.751C156.391 123.884 161.638 129.007 161.689 129.058C161.82 129.182 161.825 129.391 161.701 129.521C161.633 129.583 161.548 129.617 161.463 129.617Z" fill="#3B4B75"/>
<path d="M161.887 128.843C161.763 128.843 161.644 128.77 161.587 128.651C158.786 122.405 158.299 113.633 158.293 113.549C158.282 113.368 158.423 113.215 158.604 113.204C158.61 113.204 158.616 113.204 158.621 113.204C158.797 113.204 158.938 113.34 158.95 113.515C158.955 113.599 159.431 122.252 162.187 128.386C162.261 128.549 162.187 128.742 162.023 128.815C161.978 128.838 161.933 128.843 161.887 128.843Z" fill="#3B4B75"/>
<path d="M161.503 112.679C161.327 112.679 161.186 112.543 161.174 112.368C160.67 103.755 164.253 96.3169 165.968 92.7418C166.382 91.8833 166.704 91.2112 166.818 90.8441C167.197 89.5733 167.684 89.3587 168.017 89.4039C168.51 89.4717 169.184 90.0647 169.297 94.4418C169.444 99.9655 167.836 109.623 167.819 109.719C167.791 109.9 167.621 110.019 167.44 109.991C167.265 109.962 167.14 109.793 167.168 109.612C167.185 109.516 168.782 99.9203 168.634 94.4588C168.527 90.3866 167.916 90.0534 167.91 90.0478C167.882 90.0703 167.655 90.2963 167.44 91.0305C167.316 91.4428 166.999 92.1092 166.557 93.0242C164.859 96.5485 161.333 103.88 161.825 112.329C161.836 112.51 161.695 112.662 161.52 112.673C161.514 112.679 161.508 112.679 161.503 112.679Z" fill="#3B4B75"/>
<path d="M163.104 120.224C162.94 120.224 162.799 120.1 162.782 119.931C162.674 118.948 163.025 117.457 163.665 114.746C163.987 113.379 164.389 111.685 164.842 109.584C166.167 103.461 166.919 94.9839 166.931 94.8991C166.948 94.7184 167.106 94.5885 167.287 94.5998C167.468 94.6167 167.599 94.7749 167.587 94.9556C167.582 95.0403 166.818 103.557 165.487 109.719C165.035 111.826 164.633 113.526 164.31 114.893C163.687 117.53 163.342 118.988 163.438 119.857C163.461 120.038 163.331 120.196 163.15 120.219C163.127 120.224 163.116 120.224 163.104 120.224Z" fill="#3B4B75"/>
<path d="M168.182 131.916C168.04 131.916 167.91 131.825 167.87 131.684C167.819 131.509 167.916 131.328 168.091 131.278C168.312 131.21 168.538 131.142 168.759 131.074C168.725 131.057 168.697 131.035 168.668 131.006C168.595 130.939 168.482 130.792 168.538 130.532C168.6 130.244 168.821 129.916 169.031 129.6C169.053 129.566 169.076 129.532 169.099 129.493C167.87 129.95 166.172 130.459 164.995 129.95C164.831 129.877 164.752 129.685 164.825 129.521C164.899 129.357 165.091 129.278 165.255 129.352C166.37 129.832 168.351 129.08 169.002 128.832C169.229 128.742 169.659 128.578 169.885 128.866C170.117 129.154 169.891 129.493 169.574 129.962C169.466 130.12 169.348 130.3 169.263 130.459C169.449 130.413 169.704 130.334 169.908 130.272C170.451 130.103 171.068 129.911 171.583 129.911H171.589C171.957 129.911 172.059 130.086 172.081 130.233C172.127 130.538 172.155 130.741 168.278 131.91C168.244 131.91 168.21 131.916 168.182 131.916Z" fill="#3B4B75"/>
<path d="M160.359 129.425C160.308 129.425 160.257 129.414 160.206 129.386C160.15 129.357 158.842 128.668 157.795 127.539C157.263 126.963 156.867 126.821 156.691 126.872C156.618 126.895 156.578 126.951 156.555 127.053C156.51 127.307 156.352 127.403 156.261 127.437C155.95 127.556 155.644 127.307 155.288 127.019C155.259 126.996 155.231 126.974 155.197 126.946C155.203 126.985 155.203 127.025 155.208 127.059C155.265 127.719 155.356 128.713 154.642 129.035C154.478 129.109 154.286 129.041 154.206 128.877C154.133 128.713 154.201 128.521 154.365 128.442C154.654 128.307 154.591 127.561 154.552 127.115C154.506 126.629 154.478 126.302 154.75 126.149C155.044 125.98 155.344 126.223 155.695 126.505C155.774 126.567 155.876 126.652 155.972 126.72C156.074 126.483 156.261 126.313 156.499 126.24C156.788 126.155 157.405 126.155 158.271 127.087C159.238 128.132 160.495 128.793 160.506 128.798C160.665 128.883 160.727 129.081 160.642 129.239C160.591 129.357 160.478 129.425 160.359 129.425Z" fill="#3B4B75"/>
<path d="M46.8262 129.024C46.2941 129.024 45.7054 128.99 45.0828 128.906C42.513 128.561 38.766 127.234 35.5227 122.896C30.1511 115.707 29.9473 109.855 29.8568 107.353C29.8454 106.975 29.8341 106.676 29.8058 106.467C29.6643 105.343 29.8115 104.004 30.4681 103.727C30.6435 103.654 30.9831 103.597 31.3511 104.044C31.6284 104.377 31.6963 104.772 31.7586 105.156C31.8775 105.879 32.0133 106.704 33.6208 107.63C36.9717 109.567 48.1337 116.723 51.2242 127.336C51.2751 127.511 51.1732 127.691 51.0034 127.742C50.8279 127.793 50.6468 127.691 50.5959 127.522C47.579 117.141 36.5924 110.104 33.2982 108.195C31.4246 107.11 31.2492 106.037 31.119 105.258C31.0624 104.919 31.0228 104.654 30.853 104.456C30.7737 104.36 30.7228 104.332 30.7058 104.332C30.5926 104.399 30.3039 105.134 30.4624 106.387C30.4907 106.613 30.502 106.93 30.519 107.336C30.6039 109.776 30.8077 115.486 36.0547 122.512C39.1509 126.658 42.7055 127.923 45.1451 128.262C47.7997 128.623 49.7468 128.002 49.7638 127.991C49.9336 127.934 50.1204 128.025 50.177 128.2C50.2336 128.369 50.143 128.556 49.9676 128.612C49.894 128.629 48.677 129.024 46.8262 129.024Z" fill="#3B4B75"/>
<path d="M49.9279 127.872C49.911 127.872 49.8883 127.872 49.8713 127.866C49.6619 127.832 44.6526 126.934 39.2641 122.134C33.8642 117.327 32.251 110.793 32.234 110.725C32.1944 110.55 32.302 110.375 32.4774 110.329C32.6529 110.29 32.8284 110.397 32.8736 110.572C32.8906 110.634 34.4585 116.977 39.6999 121.642C44.9413 126.307 49.9336 127.205 49.9845 127.217C50.1657 127.245 50.2845 127.414 50.2506 127.595C50.2279 127.765 50.0864 127.872 49.9279 127.872Z" fill="#3B4B75"/>
<path d="M53.1373 127.759C52.9845 127.759 52.843 127.646 52.8147 127.493C52.7807 127.318 52.8996 127.143 53.0751 127.109C53.1373 127.098 59.2787 125.816 59.5334 114.418C59.8164 101.841 57.2523 95.8142 55.6901 94.2384C55.3618 93.9052 55.0731 93.7414 54.9316 93.7979C54.326 94.0407 54.275 96.8082 54.2411 98.4631C54.2014 100.677 53.1317 102.812 51.6543 105.76C51.1506 106.766 50.5789 107.906 49.9902 109.172C47.7771 113.921 48.9657 122.111 48.977 122.196C49.0053 122.376 48.8808 122.54 48.6997 122.568C48.5242 122.597 48.3544 122.472 48.3261 122.292C48.2752 121.947 47.0978 113.825 49.3959 108.895C49.9902 107.624 50.5619 106.477 51.0657 105.467C52.5034 102.592 53.5449 100.519 53.5845 98.4518C53.6411 95.5149 53.743 93.5663 54.6826 93.1936C55.3222 92.9394 55.9448 93.572 56.1486 93.7809C58.3334 95.9893 60.4334 103.236 60.1786 114.435C59.9126 126.409 53.4543 127.708 53.1826 127.759C53.1769 127.759 53.1543 127.759 53.1373 127.759Z" fill="#3B4B75"/>
<path d="M45.4846 130.673C45.479 130.673 45.479 130.673 45.4733 130.673C43.5432 130.606 43.4752 130.267 43.4413 130.08C43.396 129.843 43.5432 129.651 43.8828 129.504C44.5054 129.228 44.9469 129.256 45.3771 129.278C45.728 129.295 46.0563 129.318 46.5205 129.171C47.3865 128.906 47.5223 128.578 47.5223 128.572C47.5619 128.397 47.7431 128.296 47.9129 128.335C48.0883 128.375 48.1959 128.561 48.1563 128.736C48.1336 128.843 47.9468 129.414 46.7129 129.792C46.1356 129.973 45.711 129.945 45.3375 129.928C45.0828 129.911 44.862 129.9 44.6073 129.95C44.8677 129.984 45.1846 130.007 45.4959 130.018C45.6771 130.024 45.8186 130.176 45.8129 130.357C45.8073 130.532 45.6658 130.673 45.4846 130.673Z" fill="#3B4B75"/>
<path d="M55.4127 128.787C55.3221 128.787 55.2372 128.753 55.1693 128.68C55.0448 128.544 55.0561 128.341 55.1863 128.216C55.4014 128.019 55.6052 127.787 55.7467 127.595C55.7353 127.606 55.724 127.618 55.7127 127.629C55.4806 127.9 55.124 128.318 54.6769 128.086C54.1165 127.798 53.9524 127.16 53.9354 127.087C53.8958 126.912 54.0033 126.737 54.1788 126.691C54.3542 126.652 54.5297 126.759 54.575 126.934C54.6033 127.047 54.7335 127.38 54.9825 127.51C54.9825 127.482 55.1297 127.313 55.2146 127.211C55.4523 126.934 55.8542 126.465 56.3297 126.793C56.4712 126.895 56.5617 127.042 56.5731 127.217C56.607 127.742 55.9278 128.431 55.6335 128.702C55.5712 128.759 55.492 128.787 55.4127 128.787Z" fill="#3B4B75"/>
<path d="M53.0977 126.33C53.0524 126.33 53.0071 126.319 52.9619 126.302C52.7977 126.229 52.7241 126.031 52.7977 125.867C52.8487 125.754 57.8806 114.425 56.2788 100.841C56.2561 100.661 56.3863 100.497 56.5674 100.48C56.7429 100.452 56.9127 100.587 56.9297 100.768C58.5542 114.537 53.4486 126.025 53.3977 126.144C53.3411 126.257 53.2222 126.33 53.0977 126.33Z" fill="#3B4B75"/>
<path d="M48.4507 120.942C48.3318 120.942 48.2186 120.88 48.162 120.767C48.1167 120.682 43.8319 112.193 45.2187 99.4629C46.0903 91.4259 47.862 86.5348 49.0337 83.2986C49.6902 81.4856 50.1204 80.2882 50.0016 79.5427C49.9393 79.1586 49.4242 75.7699 50.3638 75.3519C50.5563 75.2672 50.8563 75.2559 51.2072 75.6851C52.1921 76.8938 55.1694 86.0434 54.9939 93.5947C54.9882 93.7754 54.8467 93.9166 54.6599 93.9166C54.4788 93.911 54.3373 93.7641 54.3373 93.5834C54.5128 85.97 51.4562 77.035 50.6978 76.1031C50.6638 76.0579 50.6298 76.0297 50.6072 76.0071C50.4374 76.3685 50.3695 77.7466 50.6468 79.441C50.794 80.3503 50.3355 81.6098 49.645 83.5188C48.4846 86.7268 46.7299 91.5728 45.8639 99.5307C44.5055 112.052 48.6997 120.383 48.7393 120.468C48.8242 120.631 48.7563 120.823 48.5978 120.908C48.5525 120.931 48.5016 120.942 48.4507 120.942Z" fill="#3B4B75"/>
<path d="M48.5582 113.6C48.3827 113.6 48.2355 113.458 48.2299 113.283C48.2242 113.17 48.1563 110.414 49.2261 104.467C50.2845 98.5648 51.4902 84.4168 51.5015 84.2756C51.5185 84.0949 51.6769 83.9706 51.8581 83.9763C52.0392 83.9932 52.175 84.1513 52.1581 84.3321C52.1467 84.4733 50.9411 98.6552 49.8713 104.586C48.8185 110.454 48.8864 113.238 48.8864 113.266C48.8921 113.447 48.7506 113.6 48.5695 113.605C48.5638 113.6 48.5638 113.6 48.5582 113.6Z" fill="#3B4B75"/>
<path d="M40.464 113.165C40.3734 113.165 40.2829 113.125 40.2149 113.052C40.1697 112.995 35.4717 107.556 34.317 100.253C33.1623 92.9563 32.6868 90.5164 31.9453 89.4659C31.5151 88.8559 31.4982 88.1895 31.9 87.8111C32.1265 87.6021 33.0151 87.0486 35.0415 88.6978C37.7074 90.8722 43.9903 98.864 45.5752 104.077C45.6261 104.252 45.5299 104.433 45.3544 104.484C45.1846 104.535 44.9978 104.439 44.9469 104.263C43.4243 99.2481 37.1754 91.2789 34.6226 89.2005C33.3434 88.1612 32.5566 88.0822 32.3415 88.2855C32.2114 88.4041 32.217 88.7204 32.4717 89.0818C33.2981 90.251 33.7679 92.6174 34.9566 100.146C36.083 107.263 40.6564 112.566 40.7017 112.617C40.8206 112.752 40.8093 112.961 40.6678 113.08C40.6168 113.136 40.5432 113.165 40.464 113.165Z" fill="#3B4B75"/>
<path d="M47.6865 119.14C47.5903 119.14 47.4997 119.101 47.4318 119.022C47.4035 118.988 44.6639 115.689 41.0357 110.42C37.3736 105.111 35.4208 95.5772 35.3415 95.1762C35.3076 95.0011 35.4208 94.826 35.5962 94.7921C35.7717 94.7582 35.9472 94.8712 35.9811 95.0463C35.9981 95.1423 37.9905 104.851 41.5734 110.047C45.1847 115.288 47.9073 118.57 47.9356 118.604C48.0488 118.745 48.0318 118.948 47.8903 119.067C47.8337 119.118 47.7601 119.14 47.6865 119.14Z" fill="#3B4B75"/>
<path d="M38.115 92.753C37.9735 92.753 37.8433 92.6626 37.8037 92.5214C37.781 92.4536 35.7207 85.5293 35.0755 81.0222C34.9226 79.9322 34.7755 79.0341 34.6509 78.3056C34.334 76.3853 34.2151 75.668 34.5943 75.3009C34.849 75.0523 35.217 75.1258 35.3358 75.1484C36.4 75.3573 45.3544 82.18 47.5167 90.0589C47.5619 90.234 47.4601 90.4147 47.2846 90.4599C47.1091 90.5051 46.928 90.4034 46.8827 90.2283C44.8337 82.7561 36.1849 75.9786 35.2056 75.7866C35.0755 75.7583 35.0302 75.7753 35.0302 75.7753C34.917 75.9391 35.0924 76.9839 35.2905 78.1926C35.4094 78.9268 35.5566 79.8248 35.7151 80.9205C36.349 85.3768 38.398 92.2559 38.4207 92.3237C38.4716 92.4988 38.3754 92.6795 38.1999 92.7304C38.1773 92.7473 38.1433 92.753 38.115 92.753Z" fill="#3B4B75"/>
<path d="M45.3262 102.518C45.1733 102.518 45.0318 102.405 45.0035 102.247C44.9979 102.213 44.3753 98.9261 41.8281 95.2324C39.2018 91.4144 37.6113 82.8973 37.5433 82.5358C37.5094 82.3551 37.6282 82.1857 37.8037 82.1518C37.9848 82.1235 38.1546 82.2365 38.1829 82.4116C38.1999 82.4963 39.8131 91.1546 42.3659 94.8539C44.9922 98.6719 45.6205 101.982 45.6431 102.123C45.6771 102.298 45.5582 102.473 45.3771 102.501C45.3658 102.518 45.3432 102.518 45.3262 102.518Z" fill="#3B4B75"/>
<path d="M49.1977 84.1286C49.1921 84.1286 49.1921 84.1286 49.1864 84.1286C49.0053 84.1229 48.8638 83.9704 48.8694 83.7897C48.9883 80.6664 48.5978 78.6049 47.4884 76.4361L47.3638 76.1876C45.1733 71.9008 42.6149 66.7499 42.2357 64.9708C41.9923 63.8243 41.6187 63.3837 41.4376 63.3724C41.3979 63.3724 40.9281 63.412 40.3565 65.3097C39.3886 68.5064 41.6753 80.4179 41.6979 80.5365C41.7319 80.7116 41.6187 80.8867 41.4376 80.9205C41.2621 80.9544 41.0866 80.8415 41.0527 80.6607C40.9564 80.1637 38.7093 68.4669 39.7282 65.1177C40.215 63.5023 40.7753 62.7173 41.4319 62.7173C41.4432 62.7173 41.4545 62.7173 41.4659 62.7173C42.3149 62.7512 42.7168 64.0558 42.8809 64.8296C43.2885 66.7555 46.6733 73.3919 47.9525 75.8882L48.077 76.1367C49.243 78.4185 49.6506 80.5704 49.526 83.8123C49.5147 83.9874 49.3732 84.1286 49.1977 84.1286Z" fill="#3B4B75"/>
<path d="M46.8488 89.359C46.679 89.359 46.5375 89.2291 46.5205 89.054C46.5205 89.0145 46.2035 84.8689 45.8922 82.2256C45.5865 79.6502 42.4847 74.7196 42.4508 74.6687C42.3545 74.5162 42.3998 74.3129 42.5527 74.2169C42.6998 74.1209 42.9092 74.1661 43.0055 74.3186C43.1357 74.5275 46.2205 79.4243 46.5431 82.1466C46.8544 84.8011 47.1771 88.9636 47.1771 89.0031C47.1884 89.1839 47.0582 89.342 46.8771 89.3533C46.8657 89.359 46.8601 89.359 46.8488 89.359Z" fill="#3B4B75"/>
</svg>
