<svg width="278" height="109" viewBox="0 0 278 109" fill="none" xmlns="http://www.w3.org/2000/svg">
<path d="M250.228 106.988C243.428 102.488 241.728 93.8885 241.928 86.1885C241.928 84.8885 241.828 83.5885 242.428 82.3885C243.028 81.2885 244.428 80.4885 245.628 80.9885C246.628 81.3885 247.028 82.4885 247.628 83.3885C248.328 84.5885 249.428 85.5885 250.728 86.1885C251.528 86.5885 252.628 86.8885 253.428 86.3885C254.528 85.7885 254.628 84.1885 254.628 82.9885C254.528 80.5885 254.528 78.1885 254.428 75.7885C254.428 74.4885 254.328 73.1885 254.728 71.9885C255.128 70.7885 256.028 69.5885 257.228 69.2885C258.428 68.8885 260.028 69.5885 260.328 70.8885C260.428 71.3885 260.328 71.9885 260.428 72.4885C260.428 72.9885 260.728 73.5885 261.228 73.7885C261.728 73.8885 262.228 73.5885 262.628 73.1885C263.928 71.8885 264.828 70.1885 265.628 68.4885C266.428 66.7885 267.228 65.0885 268.428 63.6885C269.628 62.2885 271.328 61.0885 273.128 60.9885C275.028 60.8885 277.028 61.9885 277.528 63.7885C278.028 65.5885 277.028 67.3885 275.828 68.8885C274.128 71.0885 272.128 72.9885 269.828 74.6885C269.428 74.9885 269.028 75.2885 268.828 75.7885C268.528 76.6885 269.428 77.4885 270.228 77.7885C271.228 78.0885 272.228 77.9885 273.228 78.0885C274.228 78.1885 275.328 78.5885 275.728 79.5885C276.328 80.8885 275.228 82.2885 274.128 83.1885C271.928 84.9885 269.428 86.4885 266.828 87.4885C265.828 87.8885 264.828 88.1885 264.128 88.7885C263.328 89.4885 262.928 90.5885 263.428 91.4885C263.928 92.3885 265.128 92.6885 266.128 92.4885C267.128 92.2885 268.028 91.7885 268.928 91.3885C270.728 90.6885 273.028 90.7885 274.228 92.2885C275.028 93.2885 275.128 94.6885 274.728 95.8885C274.328 97.0885 273.628 98.0885 272.828 99.0885C270.028 102.388 266.328 105.188 262.228 106.588C258.228 107.888 254.328 108.388 250.228 106.988Z" fill="white"/>
<path fill-rule="evenodd" clip-rule="evenodd" d="M266.728 87.6886C265.928 87.9886 265.028 88.3886 264.428 88.8886C263.828 89.3886 263.328 90.4886 263.628 91.6886C264.028 92.4886 265.128 92.6886 266.028 92.4886C266.628 92.3886 267.228 92.0886 267.828 91.7886C268.066 91.7291 268.269 91.6342 268.457 91.546C268.585 91.486 268.707 91.4291 268.828 91.3886C270.628 90.6886 273.128 90.6886 274.428 92.3886C275.128 93.3886 275.328 94.7886 274.928 96.1886C274.528 97.4886 273.728 98.5886 272.928 99.4886C269.928 102.989 266.228 105.689 262.228 107.089C261.144 107.468 260.148 107.759 259.192 107.979H251.051C250.637 107.865 250.226 107.733 249.828 107.589C244.128 103.789 241.228 96.4886 241.428 86.5886V85.7886C241.428 84.6886 241.428 83.5886 241.928 82.5886C242.628 81.3886 244.228 80.4886 245.528 81.0886C246.322 81.4412 246.727 82.1046 247.154 82.8049C247.211 82.899 247.269 82.9938 247.328 83.0886L247.628 83.6886C248.328 84.7886 249.428 85.7886 250.628 86.3886C251.228 86.6886 252.328 87.0886 253.128 86.5886C253.528 86.2886 253.728 85.9886 253.928 85.5886C253.928 85.5386 253.953 85.4886 253.978 85.4386C254.003 85.3886 254.028 85.3386 254.028 85.2886C254.128 85.1886 254.128 85.0886 254.128 84.9886V84.9886C254.228 84.3886 254.228 83.7886 254.228 83.2886C254.178 82.0886 254.153 80.8886 254.128 79.6886C254.103 78.4886 254.078 77.2886 254.028 76.0886V76.0885C254.028 74.8885 254.028 73.4886 254.428 72.1886C254.928 70.6886 255.928 69.5886 257.128 69.2886C257.928 69.0886 258.728 69.1886 259.428 69.5886C260.028 69.9886 260.428 70.4886 260.528 71.0886C260.628 71.3886 260.628 71.7886 260.628 72.0886V72.6886C260.628 73.0886 260.828 73.5886 261.228 73.6886C261.528 73.7886 261.928 73.6886 262.428 73.1886C263.728 71.8886 264.628 70.1886 265.428 68.5886L265.628 68.1886C265.711 68.0334 265.794 67.8771 265.877 67.7202C266.597 66.3607 267.342 64.9541 268.328 63.7886C269.728 62.0886 271.428 61.0886 273.228 60.9886C275.328 60.7886 277.328 62.0886 277.828 63.8886C278.328 65.3886 277.728 67.1886 276.128 69.1886C274.428 71.3886 272.428 73.3886 270.128 74.9886C269.728 75.2886 269.328 75.5886 269.228 75.9886C269.143 76.1587 269.203 76.3289 269.284 76.5606C269.298 76.6013 269.313 76.6438 269.328 76.6886C269.528 77.0886 270.028 77.3886 270.528 77.5886C271.128 77.7886 271.728 77.7886 272.428 77.7886H272.428H273.528C273.556 77.7932 273.586 77.798 273.618 77.8032C274.274 77.9094 275.751 78.1486 276.228 79.3886C276.728 80.5886 276.128 81.9886 274.528 83.2886C272.328 85.0886 269.828 86.5886 267.128 87.5886L266.728 87.6886ZM268.678 91.6886C268.528 91.7636 268.378 91.8386 268.228 91.8886C267.628 92.1886 267.028 92.4886 266.128 92.7886C265.028 92.9886 263.728 92.6886 263.128 91.6886C262.628 90.6886 263.128 89.3886 263.928 88.6886C264.628 87.9886 265.428 87.6886 266.328 87.3886L266.728 87.2886C269.328 86.3886 271.728 84.8886 273.928 83.0886C274.528 82.5886 276.028 81.0886 275.428 79.7886C275.128 79.0886 274.328 78.5886 273.128 78.4886H272.128C271.895 78.4552 271.662 78.433 271.428 78.4108C270.962 78.3663 270.495 78.3219 270.028 78.1886C269.328 77.9886 268.828 77.4886 268.528 76.9886C268.328 76.6886 268.328 76.2886 268.428 75.8886C268.604 75.3624 269.01 75.067 269.377 74.7999C269.428 74.7624 269.479 74.7255 269.528 74.6886C271.728 73.0886 273.728 71.1886 275.428 68.9886C276.828 67.0886 277.428 65.4886 277.028 64.0886C276.628 62.4886 274.828 61.3886 272.928 61.4886C271.328 61.5886 269.628 62.5886 268.328 64.0886C267.228 65.2886 266.428 66.8886 265.728 68.3886L265.528 68.7886L265.528 68.7887C264.728 70.3887 263.828 72.1886 262.428 73.4886C262.128 73.7886 261.528 74.3886 260.728 74.1886C260.028 73.9886 259.728 73.2886 259.728 72.6886V71.9886C259.728 71.8886 259.739 71.7886 259.751 71.6886C259.773 71.4886 259.795 71.2886 259.728 71.0886C259.628 70.6886 259.328 70.2886 258.828 69.9886C258.228 69.5886 257.528 69.4886 256.928 69.6886C255.728 69.9886 254.928 71.1886 254.628 72.1886C254.294 73.1904 254.309 74.2619 254.323 75.2867C254.326 75.4894 254.328 75.6904 254.328 75.8886C254.378 77.0886 254.403 78.2886 254.428 79.4886C254.453 80.6886 254.478 81.8886 254.528 83.0886C254.528 83.8886 254.528 84.6886 254.228 85.4886C254.228 85.4886 254.228 85.5886 254.128 85.6886V85.6886C254.128 85.7886 254.128 85.7886 254.028 85.8886C253.828 86.1886 253.528 86.4886 253.228 86.6886C252.228 87.2886 250.928 86.7886 250.328 86.4886C249.028 85.8886 247.928 84.8886 247.128 83.5886L246.828 82.9886C246.428 82.1886 246.028 81.4886 245.328 81.1886C244.228 80.6886 242.928 81.4886 242.428 82.4886C242.028 83.3886 242.028 84.2885 242.028 85.3885V85.3886V86.1886C241.928 92.8886 243.228 101.989 250.228 106.689C252.328 107.389 254.428 107.689 256.628 107.489H256.828H257.028C258.728 107.289 260.428 106.889 262.228 106.189C266.128 104.789 269.828 102.189 272.728 98.6886C272.755 98.6541 272.782 98.6195 272.809 98.5847C273.489 97.7117 274.244 96.7426 274.628 95.5886C274.928 94.3886 274.828 93.0886 274.128 92.2886C273.028 90.8886 270.728 90.8886 269.128 91.4886C268.978 91.5386 268.828 91.6136 268.678 91.6886Z" fill="#2F4A77"/>
<path d="M251.228 103.688C252.328 99.7885 253.928 95.5885 255.628 91.2885C256.128 90.1885 256.528 89.1885 256.928 88.0885C257.328 86.9885 257.828 85.9885 258.328 84.9885C259.328 82.9885 260.428 81.1885 261.528 79.4885C262.628 77.7885 263.728 76.1885 264.728 74.6885C265.728 73.1885 266.728 71.8885 267.728 70.6885C269.628 68.2885 271.428 66.4885 272.728 65.3885C273.328 64.7885 273.828 64.3885 274.228 64.0885C274.428 63.9885 274.528 63.8885 274.628 63.7885C274.728 63.6885 274.728 63.6885 274.728 63.6885C274.728 63.6885 274.728 63.6885 274.628 63.7885C274.528 63.8885 274.428 63.9885 274.228 64.0885C273.928 64.3885 273.428 64.7885 272.728 65.3885C271.428 66.5885 269.728 68.2885 267.828 70.6885C266.828 71.8885 265.928 73.2885 264.828 74.6885C263.828 76.1885 262.728 77.7885 261.628 79.4885C260.528 81.1885 259.428 82.9885 258.528 84.9885C258.028 85.9885 257.628 86.9885 257.128 88.0885C256.728 89.1885 256.228 90.1885 255.828 91.2885C254.028 95.5885 252.428 99.7885 251.328 103.688H251.228Z" fill="#2F4A77"/>
<path d="M258.428 84.9887C258.428 84.9887 258.328 84.7887 258.328 84.4887C258.228 84.0887 258.128 83.5887 258.028 82.9887C257.828 81.6887 257.628 79.9887 257.328 77.9887C257.128 76.0887 256.828 74.2887 256.628 72.9887C256.528 72.3887 256.428 71.8887 256.328 71.4887C256.228 71.0887 256.228 70.8887 256.228 70.8887C256.228 70.8887 256.328 71.0887 256.428 71.3887C256.528 71.6887 256.628 72.2887 256.728 72.8887C257.028 74.1887 257.228 75.8887 257.528 77.8887C257.728 79.7887 257.928 81.5887 258.128 82.8887C258.228 83.4887 258.228 83.9887 258.328 84.3887C258.428 84.7887 258.428 84.9887 258.428 84.9887Z" fill="#2F4A77"/>
<path d="M275.128 81.5884C275.128 81.5884 275.028 81.5884 274.928 81.5884C274.828 81.5884 274.628 81.5884 274.428 81.6884C274.028 81.6884 273.328 81.7884 272.628 81.8884C271.128 82.0884 269.028 82.3884 266.628 82.8884C264.328 83.3884 262.228 83.8884 260.728 84.2884C260.028 84.4884 259.428 84.6884 258.928 84.7884C258.728 84.8884 258.528 84.8884 258.428 84.8884C258.328 84.8884 258.228 84.8884 258.228 84.8884C258.228 84.8884 258.328 84.8884 258.428 84.7884C258.528 84.6884 258.728 84.6884 258.928 84.5884C259.328 84.4884 259.928 84.2884 260.628 83.9884C262.128 83.5884 264.228 82.9884 266.528 82.5884C268.828 82.0884 270.928 81.7884 272.528 81.6884C273.328 81.5884 273.928 81.5884 274.328 81.5884C274.528 81.5884 274.728 81.5884 274.828 81.5884C275.028 81.5884 275.128 81.5884 275.128 81.5884Z" fill="#2F4A77"/>
<path d="M251.428 103.388C251.428 103.388 251.428 103.288 251.328 103.188C251.228 102.988 251.128 102.888 251.028 102.588C250.728 102.088 250.428 101.288 250.028 100.388C249.228 98.4884 248.128 95.8884 246.928 92.9884C245.828 90.0884 244.728 87.4884 243.928 85.5884C243.528 84.6884 243.228 83.8884 242.928 83.3884C242.828 83.1884 242.728 82.9884 242.628 82.7884C242.528 82.6884 242.528 82.5884 242.528 82.5884C242.528 82.5884 242.528 82.6884 242.628 82.7884C242.728 82.9884 242.828 83.0884 242.928 83.3884C243.228 83.8884 243.528 84.6884 243.928 85.5884C244.728 87.4884 245.828 90.0884 247.028 92.9884C248.128 95.8884 249.228 98.4884 250.028 100.388C250.428 101.288 250.728 102.088 251.028 102.588C251.128 102.788 251.228 102.988 251.328 103.188C251.328 103.288 251.428 103.388 251.428 103.388Z" fill="#2F4A77"/>
<path d="M273.528 95.9888C273.528 95.9888 273.428 95.9888 273.328 96.0888C273.128 96.1888 272.928 96.1888 272.728 96.2888C272.128 96.4888 271.328 96.7888 270.328 97.0888C268.328 97.7888 265.528 98.6888 262.528 99.7888C259.528 100.889 256.728 101.789 254.728 102.389C253.728 102.689 252.928 102.989 252.328 103.089C252.028 103.189 251.828 103.189 251.628 103.289C251.428 103.289 251.428 103.389 251.428 103.389C251.428 103.389 251.528 103.389 251.628 103.289C251.828 103.189 252.028 103.189 252.228 103.089C252.828 102.889 253.628 102.589 254.628 102.289C256.628 101.589 259.428 100.689 262.428 99.5888C265.428 98.4888 268.228 97.5888 270.228 96.9888C271.228 96.6888 272.028 96.3888 272.628 96.2888C272.928 96.1888 273.128 96.1888 273.328 96.0888C273.528 95.9888 273.528 95.9888 273.528 95.9888Z" fill="#2F4A77"/>
<path d="M256.728 101.689C256.728 103.589 256.628 105.489 256.428 107.489C256.428 107.589 256.428 107.689 256.428 107.789C256.428 107.889 256.428 107.889 256.428 107.989H183.828C183.828 97.6885 184.828 86.7885 189.328 78.1885L189.428 78.0885C189.428 77.9885 189.528 77.9885 189.528 77.8885C194.328 69.0885 202.928 62.9885 218.328 62.9885C230.128 62.9885 240.328 67.1885 247.228 74.6885C249.928 77.6885 252.128 81.1885 253.728 85.0885C253.728 85.1885 253.828 85.2885 253.828 85.4885C253.928 85.5885 253.928 85.6885 253.928 85.7885C254.628 87.5885 255.228 89.4885 255.628 91.4885C255.628 91.5885 255.728 91.6885 255.728 91.7885C256.428 94.8885 256.728 98.1885 256.728 101.589V101.689Z" fill="white"/>
<path d="M256.828 101.489C256.828 97.9886 256.428 94.5886 255.728 91.4886C255.728 91.3886 255.728 91.2886 255.628 91.1886C255.228 89.1886 254.628 87.3886 253.928 85.5886C253.928 85.4886 253.828 85.3886 253.828 85.1886C253.828 85.0886 253.728 84.8886 253.628 84.7886C252.028 80.9886 249.928 77.5886 247.228 74.5886C240.328 66.9886 230.028 62.7886 218.228 62.7886C202.728 62.7886 194.028 68.9886 189.228 77.7886C189.228 77.8886 189.128 77.8886 189.128 77.9886C189.128 77.9886 189.028 78.0886 189.028 78.1886C184.528 86.7886 183.528 97.7886 183.528 108.089H183.928C183.928 97.1886 185.028 86.5886 189.328 78.3886C189.328 78.2886 189.328 78.2886 189.428 78.1886C189.428 78.0886 189.428 78.0886 189.528 77.9886C194.328 68.9886 203.028 63.0886 218.228 63.0886C234.628 63.0886 247.828 71.0886 253.528 85.2886C253.528 85.3886 253.628 85.4886 253.628 85.5886C253.628 85.6886 253.728 85.7886 253.728 85.8886C254.428 87.6886 255.028 89.6886 255.428 91.6886C255.428 91.7886 255.528 91.8886 255.528 92.0886C256.128 95.0886 256.428 98.2886 256.528 101.589V101.789C256.528 103.589 256.428 105.589 256.228 107.489C256.228 107.589 256.228 107.689 256.228 107.789C256.228 107.889 256.228 107.889 256.228 107.989H256.628C256.628 107.889 256.628 107.789 256.628 107.789C256.628 107.689 256.628 107.589 256.628 107.489C256.828 105.489 256.928 103.589 256.928 101.689C256.828 101.589 256.828 101.589 256.828 101.489Z" fill="#2F4A77"/>
<path d="M213.828 57.5885V63.7885C213.828 66.1885 215.828 68.0885 218.228 68.0885C220.628 68.0885 222.628 66.0885 222.628 63.7885V54.1885C221.528 56.4885 219.128 57.9885 216.428 57.9885C215.528 57.9885 214.628 57.8885 213.828 57.5885Z" fill="#FEFEFE"/>
<path d="M218.228 68.5886C215.628 68.5886 213.428 66.4886 213.428 63.8886V57.0886L213.928 57.2886C214.728 57.5886 215.528 57.7886 216.328 57.7886C218.828 57.7886 221.028 56.3886 222.228 54.1886L222.928 52.7886V63.7886C223.028 66.3886 220.828 68.5886 218.228 68.5886ZM214.228 58.0886V63.7886C214.228 65.9886 216.028 67.7886 218.228 67.7886C220.428 67.7886 222.228 65.9886 222.228 63.7886V55.4886C220.828 57.2886 218.728 58.3886 216.428 58.3886C215.728 58.3886 214.928 58.2886 214.228 58.0886Z" fill="#2F4A77"/>
<path d="M210.128 45.5885C210.228 46.7885 209.728 47.1885 209.428 48.4885C208.928 50.6885 209.228 53.8885 211.128 55.8885C212.828 57.5885 215.328 58.3885 218.028 57.7885C224.528 56.4885 227.028 52.7885 227.628 47.5885C228.028 44.1885 224.028 39.5885 219.528 38.1885C216.828 37.2885 213.328 36.8885 210.928 37.6885C209.228 38.2885 208.228 39.7885 208.328 41.5885C208.428 43.1885 209.928 43.5885 210.128 45.5885Z" fill="#2F4A77"/>
<path d="M224.128 46.8886C223.428 46.7886 222.728 47.0886 222.128 47.5886C221.028 45.5886 218.828 44.2886 216.428 44.2886C212.828 44.2886 209.828 47.1886 209.828 50.7886C209.828 54.3886 212.728 57.2886 216.428 57.2886C219.828 57.2886 222.628 54.6886 222.928 51.3886C223.128 51.4886 223.428 51.4886 223.728 51.4886C225.128 51.4886 226.328 50.4886 226.328 49.2886C226.328 48.0886 225.628 46.9886 224.128 46.8886ZM223.228 49.6886C222.728 50.1886 222.128 50.4886 222.028 50.3886C221.928 50.2886 222.228 49.6886 222.728 49.1886C223.228 48.6886 223.828 48.3886 223.928 48.4886C224.028 48.6886 223.728 49.1886 223.228 49.6886Z" fill="white"/>
<path d="M238.528 107.988H237.528C242.028 103.288 240.428 94.1885 239.628 92.4885L240.328 92.1885C241.428 94.5885 242.528 103.188 238.528 107.988Z" fill="#BBE8F7"/>
<path d="M152.128 51.6885C152.528 53.6885 154.928 55.5885 154.828 57.0885C154.728 59.2885 154.728 60.7885 156.628 62.7885C158.628 64.8885 161.828 64.5885 163.528 64.6885C172.828 65.2885 177.528 75.5885 183.928 74.5885C184.428 74.4885 185.828 74.1885 187.628 74.5885C189.728 74.9885 191.028 76.0885 191.928 76.6885C192.628 77.1885 197.228 80.4885 201.528 81.1885C202.328 81.2885 207.528 82.0885 210.528 78.7885C213.128 75.8885 213.228 70.7885 211.128 68.9885C209.528 67.5885 207.728 69.0885 205.428 67.4885C203.928 66.3885 203.228 64.7885 202.128 61.9885C200.928 59.0885 201.228 58.0885 199.928 56.5885C198.728 55.1885 197.228 54.5885 196.528 54.2885C194.128 53.2885 192.928 53.8885 189.228 53.4885C186.728 53.1885 185.228 53.0885 183.728 52.2885C180.728 50.7885 180.228 48.4885 178.228 45.0885C176.328 41.6885 170.728 38.1885 167.028 37.9885C162.128 37.5885 157.128 39.7885 154.728 42.5885C153.628 43.6885 151.028 45.9885 152.128 51.6885Z" fill="#2F4A77"/>
<path d="M201.928 102.789C201.928 104.489 201.828 106.189 201.528 107.989H133.028C132.728 106.289 132.628 104.489 132.628 102.789C132.628 83.9886 147.828 69.2886 167.228 69.2886C174.528 69.2886 182.628 72.4886 189.228 77.8886L189.328 77.9886L189.428 78.0886C189.728 78.2886 190.028 78.5886 190.328 78.8886C197.828 85.5886 201.928 94.0886 201.928 102.789Z" fill="white"/>
<path d="M190.528 78.7885C190.228 78.4885 189.928 78.2885 189.628 77.9885L189.528 77.8885C189.528 77.8885 189.428 77.7885 189.328 77.7885C182.728 72.3885 174.628 69.1885 167.328 69.1885C147.828 69.1885 132.528 83.9885 132.528 102.888C132.528 104.588 132.628 106.288 132.928 108.088H133.328C133.028 106.388 132.928 104.688 132.928 102.888C132.928 83.9885 148.328 69.4885 167.428 69.4885C174.728 69.4885 182.728 72.6885 189.328 78.0885C189.328 78.0885 189.428 78.1885 189.528 78.1885L189.628 78.2885C196.728 84.2885 201.928 92.8885 201.928 102.788C201.928 104.588 201.828 106.288 201.528 107.988H201.928C202.228 106.288 202.328 104.488 202.328 102.788C202.028 93.9885 197.928 85.4885 190.528 78.7885Z" fill="#2F4A77"/>
<path d="M169.528 53.7885C168.828 53.6885 168.128 53.9885 167.528 54.4885C166.428 52.4885 164.228 51.1885 161.828 51.1885C158.228 51.1885 155.228 54.0885 155.228 57.6885C155.228 61.2885 158.128 64.1885 161.828 64.1885C165.228 64.1885 168.028 61.5885 168.328 58.2885C168.528 58.3885 168.828 58.3885 169.128 58.3885C170.528 58.3885 171.728 57.3885 171.728 56.1885C171.628 55.0885 171.028 53.9885 169.528 53.7885ZM168.828 56.6885C168.328 57.1885 167.728 57.4885 167.628 57.3885C167.528 57.2885 167.828 56.6885 168.328 56.1885C168.828 55.6885 169.428 55.3885 169.528 55.4885C169.628 55.5885 169.328 56.0885 168.828 56.6885Z" fill="white"/>
<path d="M159.528 64.4885V70.7885C159.528 73.1885 161.528 75.0885 163.928 75.0885C166.328 75.0885 168.328 73.0885 168.328 70.7885V61.1885C167.228 63.4885 164.828 64.9885 162.128 64.9885C161.128 64.9885 160.328 64.7885 159.528 64.4885Z" fill="#FEFEFE"/>
<path d="M163.828 75.4885C161.228 75.4885 159.028 73.3885 159.028 70.7885V63.9885L159.528 64.1885C160.328 64.4885 161.128 64.6885 161.928 64.6885C164.428 64.6885 166.628 63.2885 167.828 61.0885L168.528 59.6885V70.7885C168.628 73.3885 166.528 75.4885 163.828 75.4885ZM159.828 64.9885V70.7885C159.828 72.9885 161.628 74.7885 163.828 74.7885C166.028 74.7885 167.828 72.9885 167.828 70.7885V62.4885C166.428 64.2885 164.328 65.3885 162.028 65.3885C161.328 65.3885 160.528 65.2885 159.828 64.9885Z" fill="#2F4A77"/>
<path d="M141.328 101.889H140.628V107.889H141.328V101.889Z" fill="#BBE8F7"/>
<path d="M184.928 107.988H184.028C188.128 102.988 185.928 94.0885 185.028 92.4885L185.628 92.1885C186.928 94.3885 188.528 102.888 184.928 107.988Z" fill="#BBE8F7"/>
<path d="M110.328 46.1885C111.028 47.1885 113.328 50.4885 113.228 55.1885C112.928 61.6885 107.928 65.5885 107.328 66.0885C104.228 68.3885 103.328 67.0885 96.0283 69.3885C88.1283 71.8885 85.5283 74.5885 80.7283 73.5885C79.6283 73.3885 77.4283 72.8885 76.4283 71.0885C75.8283 69.9885 75.6283 68.3885 76.2283 67.0885C76.9283 65.5885 78.1283 65.5885 78.2283 64.4885C78.3283 63.2885 76.8283 62.8885 75.9283 60.8885C75.4283 59.7885 75.5283 58.8885 75.5283 57.6885C75.6283 55.9885 76.0283 53.5885 77.8283 50.4885C79.1283 48.2885 81.6283 43.7885 87.2283 41.0885C88.6283 40.3885 92.7283 38.4885 98.1283 39.1885C101.728 39.6885 104.428 41.0885 105.928 42.0885C106.928 42.7885 108.728 43.9885 110.328 46.1885Z" fill="#2F4A77"/>
<path d="M131.428 102.789C131.428 104.489 131.328 106.189 131.028 107.989H62.5284C62.2284 106.289 62.1284 104.489 62.1284 102.789C62.1284 100.689 62.3284 98.6887 62.6284 96.6887C62.8284 95.5887 63.0284 94.5887 63.3284 93.5887C64.5284 89.2887 66.6284 85.2887 69.3284 81.7887C69.3284 81.7887 69.4284 81.6887 69.4284 81.5887C69.5284 81.4887 69.5284 81.4887 69.5284 81.3887C75.9284 73.4887 85.6284 68.3887 96.6284 68.3887C115.928 68.3887 131.428 83.7887 131.428 102.789Z" fill="white"/>
<path d="M96.8283 68.1885C85.8283 68.1885 76.0283 73.2885 69.6283 81.1885C69.5283 81.2885 69.5283 81.2885 69.5283 81.3885C69.5283 81.4885 69.4283 81.4885 69.4283 81.5885C66.8283 84.8885 64.7283 88.7885 63.5283 92.8885C63.2283 93.7885 62.9283 94.7885 62.7283 95.7885C62.2283 98.0885 62.0283 100.388 62.0283 102.888C62.0283 104.588 62.1283 106.288 62.4283 108.088H62.8283C62.5283 106.388 62.4283 104.688 62.4283 102.888C62.4283 101.188 62.5283 99.4885 62.8283 97.8885C63.0283 96.6885 63.2283 95.4885 63.5283 94.2885C64.7283 89.7885 66.8283 85.5885 69.6283 81.9885C69.6283 81.9885 69.7283 81.8885 69.7283 81.7885C69.7283 81.6885 69.8283 81.6885 69.8283 81.5885C76.1283 73.6885 85.9283 68.5885 96.8283 68.5885C115.828 68.5885 131.228 83.8885 131.228 102.788C131.228 104.588 131.128 106.288 130.828 107.988H131.228C131.528 106.288 131.628 104.488 131.628 102.788C131.628 83.7885 116.028 68.1885 96.8283 68.1885Z" fill="#2F4A77"/>
<path d="M122.928 95.2886H122.228V103.289H122.928V95.2886Z" fill="#BBE8F7"/>
<path d="M99.9283 49.4885C97.2283 49.4885 94.6283 51.2885 93.5283 54.1885C93.3283 54.0885 93.0283 54.0885 92.7283 54.0885C92.6283 54.0885 92.2283 54.0885 91.9283 54.0885C91.7283 54.0885 90.9283 54.1885 90.4283 54.7885C89.9283 55.3885 89.8283 56.1885 90.0283 56.8885C90.4283 58.0885 91.6283 58.4885 91.7283 58.4885C92.6283 58.6885 93.3283 58.3885 93.5283 58.2885C94.5283 61.0885 97.0283 62.9885 99.8283 62.9885C103.328 62.9885 106.228 59.8885 106.428 56.4885C106.528 52.8885 103.528 49.5885 99.9283 49.4885ZM94.2283 57.3885C94.1283 57.4885 93.5283 57.2885 92.9283 56.7885C92.3283 56.2885 91.9283 55.7885 92.1283 55.6885C92.2283 55.4885 92.8283 55.7885 93.4283 56.2885C94.0283 56.6885 94.4283 57.1885 94.2283 57.3885Z" fill="white"/>
<path d="M102.428 63.2888V69.5888C102.428 71.9888 100.428 73.8888 98.0284 73.8888C95.6284 73.8888 93.6284 71.8888 93.6284 69.5888V59.9888C94.7284 62.2888 97.1284 63.7888 99.8284 63.7888C100.728 63.7888 101.628 63.5888 102.428 63.2888Z" fill="#FEFEFE"/>
<path d="M98.0283 74.2887C95.4283 74.2887 93.2283 72.1887 93.2283 69.5887V58.3887L93.9283 59.7887C95.0283 61.9887 97.3283 63.3887 99.8283 63.3887C100.628 63.3887 101.428 63.1887 102.228 62.8887L102.728 62.6887V69.4887C102.728 72.1887 100.628 74.2887 98.0283 74.2887ZM94.0283 61.2887V69.5887C94.0283 71.7887 95.8283 73.5887 98.0283 73.5887C100.228 73.5887 102.028 71.7887 102.028 69.5887V63.7887C101.328 63.9887 100.628 64.0887 99.8283 64.0887C97.5283 64.1887 95.4283 63.0887 94.0283 61.2887Z" fill="#2F4A77"/>
<path d="M48.2283 45.3885C48.1283 46.2885 47.4283 46.7885 47.7283 48.6885C48.9283 54.4885 44.3283 58.9885 39.1283 57.8885C32.6283 56.5885 26.8283 50.7885 26.8283 45.5885C26.8283 39.2885 32.2283 34.1885 38.9283 34.1885C47.9283 34.1885 48.9283 37.3885 48.2283 45.3885Z" fill="#2F4A77"/>
<path d="M73.5284 107.989H0.92835C-0.47165 94.2887 2.72835 82.7887 10.1283 74.5887C17.0283 66.9887 27.2284 62.8887 39.0284 62.8887C56.4284 62.8887 65.2283 70.6887 69.5284 81.3887C69.5284 81.4887 69.6283 81.4887 69.6283 81.5887C69.6283 81.6887 69.7283 81.6887 69.7283 81.7887C72.7283 89.6887 73.5284 99.0887 73.5284 107.989Z" fill="white"/>
<path d="M69.8283 81.5886C69.8283 81.4886 69.8283 81.4886 69.7283 81.3886C69.7283 81.2886 69.7283 81.2886 69.6283 81.1886C65.3283 70.5886 56.5283 62.7886 39.0283 62.7886C27.2283 62.7886 16.9283 66.9886 10.0283 74.5886C2.52831 82.7886 -0.571685 94.3886 0.728315 108.089H1.12831C-1.77169 79.7886 15.2283 63.0886 39.0283 63.0886C56.2283 63.0886 65.0283 70.5886 69.4283 81.5886C69.4283 81.6886 69.5283 81.6886 69.5283 81.7886C69.5283 81.8886 69.6283 81.8886 69.6283 81.9886C72.5283 89.4886 73.4283 98.6886 73.4283 108.089H73.8283C73.6283 99.0886 72.9283 89.5886 69.8283 81.5886Z" fill="#2F4A77"/>
<path d="M63.4283 91.6885H62.7283V105.088H63.4283V91.6885Z" fill="#BBE8F7"/>
<path d="M19.6283 107.988H18.6283C14.7283 103.188 15.8283 94.5885 16.8283 92.1885L17.5283 92.4885C16.8283 94.1885 15.2283 103.288 19.6283 107.988Z" fill="#BBE8F7"/>
<path d="M40.8283 44.2886C38.3283 44.2886 36.2283 45.5886 35.1283 47.5886C34.5283 47.0886 33.8283 46.7886 33.1283 46.8886C31.6283 47.0886 31.0283 48.1886 31.0283 49.3886C31.0283 50.5886 32.1283 51.5886 33.6283 51.5886C33.9283 51.5886 34.1283 51.5886 34.4283 51.4886C34.7283 54.7886 37.5283 57.3886 40.9283 57.3886C44.5283 57.3886 47.5283 54.4886 47.5283 50.8886C47.5283 47.2886 44.4283 44.2886 40.8283 44.2886ZM35.3283 50.3886C35.2283 50.4886 34.6283 50.1886 34.1283 49.6886C33.6283 49.1886 33.3283 48.5886 33.4283 48.4886C33.5283 48.3886 34.1283 48.6886 34.6283 49.1886C35.1283 49.6886 35.4283 50.2886 35.3283 50.3886Z" fill="white"/>
<path d="M43.4284 57.5885V63.7885C43.4284 66.1885 41.4284 68.0885 39.0284 68.0885C36.6284 68.0885 34.6284 66.0885 34.6284 63.7885V54.1885C35.7284 56.4885 38.1284 57.9885 40.8284 57.9885C41.7284 57.9885 42.6284 57.8885 43.4284 57.5885Z" fill="#FEFEFE"/>
<path d="M39.0283 68.5885C36.4283 68.5885 34.2283 66.4885 34.2283 63.8885V52.6885L34.9283 54.0885C36.0283 56.2885 38.3283 57.6885 40.8283 57.6885C41.6283 57.6885 42.4283 57.4885 43.2283 57.1885L43.7283 56.9885V63.7885C43.7283 66.3885 41.6283 68.5885 39.0283 68.5885ZM35.0283 55.4885V63.7885C35.0283 65.9885 36.8283 67.7885 39.0283 67.7885C41.2283 67.7885 43.0283 65.9885 43.0283 63.7885V57.9885C42.3283 58.1885 41.6283 58.2885 40.8283 58.2885C38.5283 58.3885 36.4283 57.2885 35.0283 55.4885Z" fill="#2F4A77"/>
<path d="M155.028 0.588623H118.028C115.428 0.588623 113.428 2.68862 113.428 5.18862V23.3886C113.428 25.8886 115.528 27.9886 118.028 27.9886H142.528L152.528 36.7886L153.328 27.9886H155.028C157.628 27.9886 159.628 25.8886 159.628 23.3886V5.18862C159.628 2.58862 157.528 0.588623 155.028 0.588623Z" fill="white"/>
<path d="M152.628 37.2887L142.328 28.2887H117.928C115.228 28.2887 113.028 26.0887 113.028 23.4887V5.18867C113.028 2.48867 115.228 0.388672 117.928 0.388672H154.928C157.628 0.388672 159.828 2.58867 159.828 5.18867V23.3887C159.828 26.0887 157.628 28.1887 154.928 28.1887H153.428L152.628 37.2887ZM117.928 0.788672C115.528 0.788672 113.528 2.68867 113.528 5.08867V23.2887C113.528 25.6887 115.528 27.5887 117.928 27.5887H142.528L142.628 27.6887L152.228 36.1887L153.028 27.6887H155.028C157.428 27.6887 159.428 25.7887 159.428 23.3887V5.18867C159.428 2.78867 157.428 0.888672 155.028 0.888672H117.928V0.788672Z" fill="#2F4A77"/>
<path d="M130.428 14.6885C130.428 16.1885 129.228 17.3885 127.728 17.3885C126.228 17.3885 125.028 16.1885 125.028 14.6885C125.028 13.1885 126.228 11.9885 127.728 11.9885C129.228 11.9885 130.428 13.1885 130.428 14.6885Z" fill="#2F4A77"/>
<path d="M139.728 14.6885C139.728 16.1885 138.528 17.3885 137.028 17.3885C135.528 17.3885 134.328 16.1885 134.328 14.6885C134.328 13.1885 135.528 11.9885 137.028 11.9885C138.528 11.9885 139.728 13.1885 139.728 14.6885Z" fill="#2F4A77"/>
<path d="M149.028 14.6885C149.028 16.1885 147.828 17.3885 146.328 17.3885C144.828 17.3885 143.628 16.1885 143.628 14.6885C143.628 13.1885 144.828 11.9885 146.328 11.9885C147.828 11.9885 149.028 13.1885 149.028 14.6885Z" fill="#2F4A77"/>
<path d="M48.6284 12.9885H70.5284C72.0284 12.9885 73.2283 14.1885 73.2283 15.6885V26.4885C73.2283 27.9885 72.0284 29.1885 70.5284 29.1885H56.0283L50.2284 34.3885L49.7284 29.1885H48.7284C47.2284 29.1885 46.0283 27.9885 46.0283 26.4885V15.6885C45.9283 14.1885 47.1284 12.9885 48.6284 12.9885Z" fill="white"/>
<path d="M50.0283 34.8885L49.5283 29.3885H48.7283C47.1283 29.3885 45.7283 28.0885 45.7283 26.3885V15.6885C45.7283 14.0885 47.0283 12.6885 48.7283 12.6885H70.6283C72.2283 12.6885 73.6283 13.9885 73.6283 15.6885V26.4885C73.6283 28.0885 72.3283 29.4885 70.6283 29.4885H56.1283L50.0283 34.8885ZM48.6283 13.2885C47.2283 13.2885 46.1283 14.3885 46.1283 15.7885V26.5885C46.1283 27.9885 47.2283 29.0885 48.6283 29.0885H49.8283L50.3283 33.9885L55.9283 29.0885H70.5283C71.9283 29.0885 73.0283 27.9885 73.0283 26.5885V15.6885C73.0283 14.2885 71.9283 13.1885 70.5283 13.1885H48.6283V13.2885Z" fill="#2F4A77"/>
<path d="M63.1284 21.2885C63.1284 22.1885 63.8284 22.8885 64.7284 22.8885C65.6284 22.8885 66.3284 22.1885 66.3284 21.2885C66.3284 20.3885 65.6284 19.6885 64.7284 19.6885C63.9284 19.6885 63.1284 20.3885 63.1284 21.2885Z" fill="#2F4A77"/>
<path d="M57.7283 21.2885C57.7283 22.1885 58.4283 22.8885 59.3283 22.8885C60.2283 22.8885 60.9283 22.1885 60.9283 21.2885C60.9283 20.3885 60.2283 19.6885 59.3283 19.6885C58.4283 19.6885 57.7283 20.3885 57.7283 21.2885Z" fill="#2F4A77"/>
<path d="M52.2283 21.2885C52.2283 22.1885 52.9283 22.8885 53.8283 22.8885C54.7283 22.8885 55.4283 22.1885 55.4283 21.2885C55.4283 20.3885 54.7283 19.6885 53.8283 19.6885C52.9283 19.6885 52.2283 20.3885 52.2283 21.2885Z" fill="#2F4A77"/>
<path d="M209.328 12.9885H231.228C232.728 12.9885 233.928 14.1885 233.928 15.6885V26.4885C233.928 27.9885 232.728 29.1885 231.228 29.1885H216.728L210.828 34.3885L210.328 29.1885H209.328C207.828 29.1885 206.628 27.9885 206.628 26.4885V15.6885C206.528 14.1885 207.728 12.9885 209.328 12.9885Z" fill="white"/>
<path d="M210.628 34.8885L210.128 29.3885H209.328C207.728 29.3885 206.328 28.0885 206.328 26.3885V15.6885C206.328 14.8885 206.628 14.1885 207.228 13.5885C207.828 12.9885 208.528 12.6885 209.328 12.6885H231.228C232.828 12.6885 234.228 13.9885 234.228 15.6885V26.4885C234.228 28.0885 232.928 29.4885 231.228 29.4885H216.828L210.628 34.8885ZM209.328 13.2885C208.628 13.2885 208.028 13.5885 207.528 13.9885C207.028 14.4885 206.828 15.0885 206.828 15.6885V26.4885C206.828 27.8885 207.928 28.9885 209.328 28.9885H210.528L211.028 33.8885L216.628 28.9885H231.228C232.628 28.9885 233.728 27.8885 233.728 26.4885V15.6885C233.728 14.2885 232.628 13.1885 231.228 13.1885H209.328V13.2885Z" fill="#2F4A77"/>
<path d="M223.828 21.2885C223.828 22.1885 224.528 22.8885 225.428 22.8885C226.328 22.8885 227.028 22.1885 227.028 21.2885C227.028 20.3885 226.328 19.6885 225.428 19.6885C224.528 19.6885 223.828 20.3885 223.828 21.2885Z" fill="#2F4A77"/>
<path d="M218.328 21.2885C218.328 22.1885 219.028 22.8885 219.928 22.8885C220.828 22.8885 221.528 22.1885 221.528 21.2885C221.528 20.3885 220.828 19.6885 219.928 19.6885C219.028 19.6885 218.328 20.3885 218.328 21.2885Z" fill="#2F4A77"/>
<path d="M212.828 21.2885C212.828 22.1885 213.528 22.8885 214.428 22.8885C215.328 22.8885 216.028 22.1885 216.028 21.2885C216.028 20.3885 215.328 19.6885 214.428 19.6885C213.528 19.6885 212.828 20.3885 212.828 21.2885Z" fill="#2F4A77"/>
</svg>
