<svg width="17" height="17" viewBox="0 0 17 17" fill="none" xmlns="http://www.w3.org/2000/svg">
<path fill-rule="evenodd" clip-rule="evenodd" d="M1.10348 0.21093C1.29874 0.0156681 1.61532 0.0156681 1.81058 0.21093L8.95703 7.35738L16.1035 0.21093C16.2987 0.0156681 16.6153 0.0156681 16.8106 0.21093C17.0058 0.406192 17.0058 0.722775 16.8106 0.918037L9.66414 8.06448L16.8106 15.2109C17.0058 15.4062 17.0058 15.7228 16.8106 15.918C16.6153 16.1133 16.2987 16.1133 16.1035 15.918L8.95703 8.77159L1.81058 15.918C1.61532 16.1133 1.29874 16.1133 1.10348 15.918C0.908216 15.7228 0.908216 15.4062 1.10348 15.2109L8.24992 8.06448L1.10348 0.918037C0.908216 0.722775 0.908216 0.406192 1.10348 0.21093Z" fill="#6B707F"/>
</svg>
