<svg width="40" height="40" viewBox="0 0 40 40" fill="none" xmlns="http://www.w3.org/2000/svg">
<path d="M38.832 13.0839L26.6036 0.79258C25.901 0.0863111 24.7613 0.0863111 24.0587 0.79258L20.6164 4.25274L18.8692 6.00894L5.49911 19.448C4.79646 20.1543 4.79646 21.2998 5.49911 22.0061L17.7275 34.2974C18.4301 35.0037 19.5698 35.0037 20.2724 34.2974L38.832 15.6419C39.5346 14.9357 39.5346 13.7902 38.832 13.0839Z" fill="white"/>
<path d="M39.0169 12.898L26.7884 0.606677C26.3994 0.215493 25.8816 0 25.3311 0C24.7805 0 24.2628 0.215493 23.8736 0.606677L20.4313 4.06667C20.3291 4.16924 20.3291 4.33599 20.4313 4.43856C20.5336 4.54131 20.6991 4.54131 20.8013 4.43856L24.2436 0.978574C24.534 0.686633 24.9203 0.525846 25.3311 0.525846C25.7419 0.525846 26.1279 0.686633 26.4184 0.978574L38.6469 13.2699C38.9374 13.5619 39.0973 13.9501 39.0973 14.363C39.0973 14.7759 38.9374 15.1641 38.6469 15.4561L20.0872 34.1112C19.7967 34.4032 19.4105 34.564 18.9999 34.564C18.5891 34.564 18.2028 34.4032 17.9124 34.1112L5.68399 21.8199C5.39355 21.5279 5.23359 21.1397 5.23359 20.7268C5.23359 20.3139 5.39355 19.9257 5.68399 19.6337L19.0541 6.1946C19.1563 6.09185 19.1563 5.92528 19.0541 5.8227C18.9519 5.71995 18.7863 5.71995 18.6841 5.8227L5.314 19.2618C4.92482 19.653 4.71026 20.1733 4.71026 20.7268C4.71026 21.2804 4.92465 21.8006 5.314 22.1918L17.5424 34.4831C17.9314 34.8743 18.4491 35.0898 18.9999 35.0898C19.5504 35.0898 20.0681 34.8743 20.4572 34.4831L39.0171 15.8278C39.4063 15.4366 39.6208 14.9164 39.6208 14.3628C39.6208 13.8093 39.4063 13.2892 39.0169 12.898Z" fill="#6B707F"/>
<path d="M6.8933 23.409L27.9949 2.19879L30.7671 4.98529L9.66552 26.1955L6.8933 23.409Z" fill="#E0E0FF"/>
<path d="M30.9578 4.79742L28.1851 2.01056C28.0829 1.90781 27.9173 1.90781 27.8151 2.01056L6.71042 23.2239C6.6082 23.3265 6.6082 23.493 6.71042 23.5958L9.483 26.3826C9.53202 26.4319 9.59865 26.4596 9.66808 26.4596C9.73751 26.4596 9.80397 26.4319 9.85316 26.3826L30.9578 5.16931C31.0069 5.12004 31.0344 5.05306 31.0344 4.98328C31.0344 4.91349 31.0069 4.84669 30.9578 4.79742ZM9.66791 25.8247L7.26549 23.4099L28.0002 2.56832L30.4028 4.98328L9.66791 25.8247Z" fill="#6B707F"/>
<path d="M28.8516 18.5388H2.60407C1.61027 18.5388 0.804527 19.3487 0.804527 20.3476V29.3215V31.8131V37.73C0.804527 38.7289 1.61027 39.5388 2.60407 39.5388H28.8516C29.8456 39.5388 30.6511 38.7289 30.6511 37.73V20.3474C30.6511 19.3487 29.8454 18.5388 28.8516 18.5388Z" fill="#EBEBFA"/>
<path d="M28.8516 18.2759H2.60407C1.46741 18.2759 0.54287 19.2054 0.54287 20.3477V29.3218C0.54287 29.4671 0.660094 29.5848 0.804532 29.5848C0.94897 29.5848 1.06619 29.4671 1.06619 29.3218V20.3477C1.06619 19.4954 1.75611 18.8019 2.60407 18.8019H28.8516C29.6996 18.8019 30.3893 19.4954 30.3893 20.3477V37.7302C30.3893 38.5825 29.6996 39.276 28.8516 39.276H2.60407C1.75611 39.276 1.06619 38.5825 1.06619 37.7302V31.8133C1.06619 31.668 0.94897 31.5503 0.804532 31.5503C0.660094 31.5503 0.54287 31.668 0.54287 31.8133V37.7302C0.54287 38.8727 1.46759 39.802 2.60407 39.802H28.8516C29.9881 39.802 30.9127 38.8725 30.9127 37.7302V20.3477C30.9127 19.2054 29.9881 18.2759 28.8516 18.2759Z" fill="#6B707F"/>
<path d="M6.11698 2.07422C5.94707 4.10183 3.84486 4.42182 3.84486 4.42182C5.64982 4.50721 6.09953 6.88691 6.09953 6.88691C6.13809 5.19016 8.42328 4.39675 8.42328 4.39675C6.71148 4.29383 6.11698 2.07422 6.11698 2.07422Z" fill="#D5DE58"/>
<path d="M8.4391 4.13429C6.93821 4.04399 6.37494 2.026 6.36953 2.00548C6.33621 1.8824 6.22055 1.80121 6.09321 1.81244C5.96674 1.82401 5.86679 1.925 5.85615 2.05213C5.70613 3.84323 3.88269 4.14972 3.80576 4.16182C3.67266 4.18199 3.57672 4.30034 3.58369 4.43553C3.59067 4.57054 3.6983 4.6782 3.8328 4.68469C5.40766 4.75921 5.8387 6.91467 5.84271 6.93641C5.86679 7.06108 5.97529 7.1498 6.09967 7.1498C6.10699 7.1498 6.11432 7.14962 6.12165 7.14892C6.25509 7.1377 6.35836 7.02741 6.3615 6.8931C6.39517 5.40113 8.48812 4.65278 8.5094 4.64541C8.62733 4.60421 8.69989 4.48515 8.6828 4.36083C8.6657 4.23652 8.56366 4.14183 8.4391 4.13429ZM6.07263 5.94819C5.83609 5.39938 5.42562 4.73711 4.74914 4.39187C5.26043 4.14552 5.86696 3.70576 6.17973 2.94128C6.45047 3.47975 6.91239 4.14762 7.63371 4.47077C7.10899 4.75816 6.42605 5.24315 6.07263 5.94819Z" fill="#6B707F"/>
<path d="M2.3319 5.05124C2.21171 6.48538 0.724937 6.71175 0.724937 6.71175C2.00151 6.77207 2.31969 8.45538 2.31969 8.45538C2.3469 7.25532 3.96329 6.69404 3.96329 6.69404C2.75231 6.62127 2.3319 5.05124 2.3319 5.05124Z" fill="#D5DE58"/>
<path d="M3.97886 6.43157C2.97302 6.37108 2.5882 4.99627 2.58436 4.98242C2.55157 4.85933 2.43382 4.77921 2.30857 4.7892C2.18193 4.8006 2.0818 4.90194 2.07116 5.02906C1.97033 6.23379 0.737369 6.4435 0.685908 6.45174C0.552809 6.4719 0.456865 6.59025 0.463843 6.72544C0.470821 6.86045 0.578452 6.9681 0.712947 6.97459C1.76553 7.02438 2.06017 8.49019 2.06278 8.50457C2.08651 8.62941 2.19518 8.71848 2.31974 8.71848C2.32689 8.71848 2.33421 8.71831 2.34154 8.7176C2.47499 8.70656 2.57843 8.59592 2.58157 8.46144C2.60425 7.46044 4.03485 6.94776 4.04898 6.94285C4.16691 6.90182 4.23965 6.78277 4.22273 6.65846C4.20546 6.53414 4.10341 6.43911 3.97886 6.43157ZM2.30683 7.62298C2.14564 7.2923 1.89863 6.93093 1.53126 6.69721C1.85485 6.51468 2.17617 6.23625 2.38079 5.83525C2.56535 6.16383 2.84376 6.52853 3.24271 6.75104C2.92017 6.94408 2.54703 7.23163 2.30683 7.62298Z" fill="#6B707F"/>
<path d="M2.32528 0.377441C2.21068 1.81204 0.724808 2.04436 0.724808 2.04436C2.00153 2.09976 2.32633 3.78158 2.32633 3.78158C2.34883 2.58141 3.96309 2.01385 3.96309 2.01385C2.75179 1.94564 2.32528 0.377441 2.32528 0.377441Z" fill="#D5DE58"/>
<path d="M3.9776 1.75126C2.97613 1.69498 2.58486 0.333607 2.57753 0.307832C2.54404 0.184565 2.42542 0.103205 2.30087 0.11548C2.17423 0.127403 2.07462 0.228927 2.0645 0.356402C1.96821 1.56154 0.736311 1.77616 0.684677 1.78458C0.551753 1.80527 0.455985 1.92398 0.463486 2.05899C0.470987 2.194 0.57914 2.30132 0.713634 2.3071C1.76656 2.35269 2.06677 3.81751 2.06939 3.83172C2.09346 3.95621 2.20196 4.04458 2.32616 4.04458C2.33367 4.04458 2.34134 4.04423 2.34902 4.04371C2.48229 4.03213 2.58538 3.92114 2.588 3.78665C2.60667 2.78544 4.03534 2.26712 4.04947 2.26221C4.16739 2.22083 4.23961 2.10142 4.22216 1.9771C4.20454 1.85279 4.10232 1.75828 3.9776 1.75126ZM2.31029 2.94921C2.14789 2.61921 1.89948 2.25871 1.53106 2.02655C1.85413 1.84279 2.17423 1.56277 2.37728 1.16105C2.56288 1.48877 2.84303 1.85261 3.24285 2.07354C2.92083 2.268 2.54893 2.55697 2.31029 2.94921Z" fill="#6B707F"/>
<path d="M25.5597 21.4506C24.081 21.4506 22.8822 22.6555 22.8822 24.1417C22.8822 25.6281 24.081 26.833 25.5597 26.833C27.0385 26.833 28.2372 25.6281 28.2372 24.1417C28.237 22.6555 27.0385 21.4506 25.5597 21.4506Z" fill="#4C4CF1"/>
<path d="M25.5597 21.1875C23.9391 21.1875 22.6205 22.5127 22.6205 24.1418C22.6205 25.7709 23.9391 27.0961 25.5597 27.0961C27.1803 27.0961 28.4989 25.7709 28.4989 24.1418C28.4989 22.5127 27.1803 21.1875 25.5597 21.1875ZM25.5597 26.5699C24.2277 26.5699 23.1439 25.4807 23.1439 24.1417C23.1439 22.8026 24.2277 21.7134 25.5597 21.7134C26.8917 21.7134 27.9756 22.8026 27.9756 24.1417C27.9756 25.4807 26.8917 26.5699 25.5597 26.5699Z" fill="#6B707F"/>
<path d="M22.0044 21.4506C20.5257 21.4506 19.3269 22.6555 19.3269 24.1417C19.3269 25.6281 20.5257 26.833 22.0044 26.833C23.4832 26.833 24.6819 25.6281 24.6819 24.1417C24.6818 22.6555 23.4832 21.4506 22.0044 21.4506Z" fill="#E0E0FF"/>
<path d="M22.0044 21.1875C20.3838 21.1875 19.0652 22.5127 19.0652 24.1418C19.0652 25.7709 20.3838 27.0961 22.0044 27.0961C23.6249 27.0961 24.9435 25.7709 24.9435 24.1418C24.9435 22.5127 23.6249 21.1875 22.0044 21.1875ZM22.0044 26.5699C20.6723 26.5699 19.5885 25.4807 19.5885 24.1417C19.5885 22.8026 20.6723 21.7134 22.0044 21.7134C23.3364 21.7134 24.4202 22.8026 24.4202 24.1417C24.4202 25.4807 23.3364 26.5699 22.0044 26.5699Z" fill="#6B707F"/>
<path d="M12.3627 26.6747H4.28669C4.14225 26.6747 4.02502 26.7923 4.02502 26.9376C4.02502 27.0829 4.14225 27.2005 4.28669 27.2005H12.3629C12.5073 27.2005 12.6245 27.0829 12.6245 26.9376C12.6245 26.7923 12.5073 26.6747 12.3627 26.6747Z" fill="#6B707F"/>
<path d="M27.3153 35.7631H4.28669C4.14225 35.7631 4.02502 35.8808 4.02502 36.0263C4.02502 36.1717 4.14225 36.2894 4.28669 36.2894H27.3155C27.4599 36.2894 27.5771 36.1717 27.5771 36.0263C27.5771 35.8808 27.4597 35.7631 27.3153 35.7631Z" fill="#6B707F"/>
<path d="M12.3627 23.0278H4.28669C4.14225 23.0278 4.02502 23.1455 4.02502 23.2909C4.02502 23.4363 4.14225 23.554 4.28669 23.554H12.3629C12.5073 23.554 12.6245 23.4363 12.6245 23.2909C12.6245 23.1455 12.5073 23.0278 12.3627 23.0278Z" fill="#6B707F"/>
<path d="M32.133 39.4433C36.4328 39.1358 39.6705 35.3829 39.3646 31.0609C39.0587 26.739 35.3251 23.4846 31.0253 23.7921C26.7255 24.0995 23.4878 27.8524 23.7937 32.1744C24.0996 36.4964 27.8332 39.7507 32.133 39.4433Z" fill="white"/>
<path d="M31.5579 23.4992C27.1123 23.4992 23.4952 27.1348 23.4952 31.6035C23.4952 36.0722 27.1121 39.7077 31.5579 39.7077C36.0038 39.7077 39.6206 36.0722 39.6206 31.6035C39.6206 27.1348 36.0036 23.4992 31.5579 23.4992ZM31.5579 39.1819C27.4008 39.1819 24.0185 35.7822 24.0185 31.6037C24.0185 27.4251 27.4008 24.0254 31.5579 24.0254C35.7151 24.0254 39.0973 27.4251 39.0973 31.6037C39.0973 35.7822 35.7151 39.1819 31.5579 39.1819Z" fill="#6B707F"/>
<path d="M31.5687 26.0847C30.1055 26.0847 28.915 27.2813 28.915 28.7521V30.8106C28.915 31.1469 29.1862 31.4197 29.521 31.4197C29.8555 31.4197 30.1268 31.1471 30.1268 30.8106V28.7521C30.1268 27.9529 30.7736 27.3027 31.5687 27.3027C32.3638 27.3027 33.0107 27.9529 33.0107 28.7521V30.8106C33.0107 31.1469 33.2819 31.4197 33.6165 31.4197C33.9511 31.4197 34.2223 31.1471 34.2223 30.8106V28.7521C34.2225 27.2813 33.0321 26.0847 31.5687 26.0847Z" fill="#4C4CF1"/>
<path d="M31.5687 25.8216C29.9611 25.8216 28.6533 27.1363 28.6533 28.7521V30.8106C28.6533 31.2915 29.0425 31.6827 29.521 31.6827C29.9995 31.6827 30.3885 31.2915 30.3885 30.8106V28.7521C30.3885 28.0979 30.9179 27.5657 31.5689 27.5657C32.2199 27.5657 32.7494 28.0979 32.7494 28.7521V30.8106C32.7494 31.2915 33.1384 31.6827 33.6169 31.6827C34.0954 31.6827 34.4846 31.2915 34.4846 30.8106V28.7521C34.4842 27.1362 33.1764 25.8216 31.5687 25.8216ZM33.9609 30.8106C33.9609 31.0014 33.8063 31.1567 33.6165 31.1567C33.4267 31.1567 33.2724 31.0015 33.2724 30.8106V28.7521C33.2724 27.8079 32.5081 27.0397 31.5686 27.0397C30.629 27.0397 29.8648 27.8079 29.8648 28.7521V30.8106C29.8648 31.0014 29.7104 31.1567 29.5206 31.1567C29.3308 31.1567 29.1763 31.0015 29.1763 30.8106V28.7521C29.1763 27.4262 30.2493 26.3476 31.5684 26.3476C32.8875 26.3476 33.9605 27.4263 33.9605 28.7521V30.8106H33.9609Z" fill="#6B707F"/>
<path d="M33.4403 30.6126H29.6971C28.9484 30.6126 28.3415 31.2227 28.3415 31.9752V35.7377C28.3415 36.4903 28.9484 37.1003 29.6971 37.1003H33.4403C34.189 37.1003 34.7959 36.4903 34.7959 35.7377V31.9752C34.7961 31.2227 34.189 30.6126 33.4403 30.6126Z" fill="#E0E0FF"/>
<path d="M33.4405 30.3497H29.6971C28.8054 30.3497 28.0799 31.0789 28.0799 31.9753V35.7377C28.0799 36.6341 28.8054 37.3633 29.6971 37.3633H33.4405C34.3323 37.3633 35.0578 36.6341 35.0578 35.7377V31.9753C35.0578 31.0789 34.3323 30.3497 33.4405 30.3497ZM34.5344 35.7377C34.5344 36.3441 34.0437 36.8373 33.4405 36.8373H29.6971C29.0939 36.8373 28.6032 36.3441 28.6032 35.7377V31.9753C28.6032 31.3689 29.0939 30.8757 29.6971 30.8757H33.4405C34.0437 30.8757 34.5344 31.3689 34.5344 31.9753V35.7377Z" fill="#6B707F"/>
<path d="M31.5687 32.0573C31.0248 32.0573 30.5838 32.5003 30.5838 33.047C30.5838 33.4412 30.8148 33.7787 31.1466 33.938V35.2388C31.1466 35.4731 31.3355 35.663 31.5685 35.663C31.8016 35.663 31.9905 35.4731 31.9905 35.2388V33.938C32.3223 33.7787 32.5533 33.4412 32.5533 33.047C32.5536 32.5003 32.1126 32.0573 31.5687 32.0573Z" fill="#4C4CF1"/>
</svg>
