<svg width="40" height="41" viewBox="0 0 40 41" fill="none" xmlns="http://www.w3.org/2000/svg">
<path d="M16.1043 30.0033L10.5335 24.4039C9.99571 23.8633 9.99203 23.0498 10.5258 22.7066L14.5697 20.107L20.2339 25.8004L17.8114 29.9806C17.4841 30.5452 16.6544 30.5563 16.1043 30.0033Z" fill="#E0E0FF"/>
<path d="M0.314589 24.364C0.234089 24.364 0.153666 24.3331 0.0922128 24.2714C-0.0306155 24.148 -0.0306155 23.9477 0.0922128 23.8243L7.39529 16.4836C7.51796 16.3601 7.71721 16.3601 7.84004 16.4836C7.96287 16.607 7.96287 16.8073 7.84004 16.9307L0.536966 24.2714C0.475591 24.3331 0.39509 24.364 0.314589 24.364Z" fill="#6B707F"/>
<path d="M1.54447 16.9462C1.46397 16.9462 1.38347 16.9153 1.3221 16.8536C1.19919 16.7302 1.19919 16.5299 1.3221 16.4065L4.32019 13.3929C4.44294 13.2694 4.64227 13.2694 4.76494 13.3929C4.88784 13.5164 4.88784 13.7166 4.76494 13.8399L1.76685 16.8536C1.70555 16.9153 1.62497 16.9462 1.54447 16.9462Z" fill="#6B707F"/>
<path d="M16.4583 40.5911C16.3778 40.5911 16.2974 40.5602 16.2359 40.4985C16.113 40.3751 16.113 40.1748 16.2359 40.0514L23.539 32.7107C23.6617 32.5872 23.8609 32.5872 23.9837 32.7107C24.1067 32.8342 24.1067 33.0344 23.9837 33.1577L16.6807 40.4985C16.6193 40.5603 16.5388 40.5911 16.4583 40.5911Z" fill="#6B707F"/>
<path d="M23.8384 39.3549C23.7579 39.3549 23.6774 39.324 23.616 39.2623C23.4931 39.1389 23.4931 38.9386 23.616 38.8152L26.6142 35.8015C26.7369 35.6781 26.9361 35.6781 27.0589 35.8015C27.1818 35.925 27.1818 36.1252 27.0589 36.2486L24.0607 39.2623C23.9994 39.324 23.9188 39.3549 23.8384 39.3549Z" fill="#6B707F"/>
<path d="M9.8435 26.7081L9.5447 27.5939C9.49218 27.7496 9.51922 27.9214 9.61705 28.0533L10.1734 28.8029C10.4199 29.1349 10.1806 29.6067 9.76864 29.6014L8.83845 29.5895C8.67487 29.5873 8.52068 29.6663 8.42623 29.8007L7.88906 30.5643C7.65117 30.9025 7.13077 30.8196 7.00849 30.4241L6.73234 29.531C6.68374 29.3739 6.56146 29.2509 6.40517 29.2021L5.51684 28.9244C5.12342 28.8015 5.04096 28.2783 5.37739 28.0392L6.13693 27.4991C6.2705 27.4042 6.34904 27.2492 6.34701 27.0847L6.33509 26.1495C6.32984 25.7354 6.79928 25.4949 7.12944 25.7426L7.87503 26.302C8.00617 26.4003 8.17705 26.4276 8.33201 26.3747L9.21305 26.0744C9.60325 25.9413 9.97581 26.3158 9.8435 26.7081Z" fill="#E0E0FF"/>
<path d="M12.6171 33.804L12.3184 34.6896C12.2659 34.8454 12.2929 35.0171 12.3908 35.1489L12.9471 35.8983C13.1936 36.2303 12.9543 36.7021 12.5424 36.6968L11.6122 36.6848C11.4486 36.6827 11.2944 36.7616 11.1999 36.896L10.6628 37.6594C10.4249 37.9976 9.90448 37.9147 9.78219 37.5192L9.50605 36.6263C9.45753 36.4693 9.33517 36.3463 9.17887 36.2975L8.29046 36.0199C7.89704 35.897 7.81458 35.3739 8.15101 35.1348L8.91056 34.5949C9.04413 34.4999 9.12267 34.345 9.12063 34.1805L9.10871 33.2456C9.10346 32.8315 9.57291 32.5911 9.90306 32.8387L10.6487 33.3979C10.7798 33.4963 10.9507 33.5235 11.1056 33.4707L11.9867 33.1704C12.3769 33.0373 12.7494 33.4118 12.6171 33.804Z" fill="#E0E0FF"/>
<path d="M7.48561 31.0908C7.44282 31.0908 7.39963 31.0874 7.35628 31.0805C7.04893 31.0316 6.80061 30.8157 6.7082 30.5169L6.43205 29.624C6.41418 29.5663 6.36926 29.5211 6.31181 29.5032L5.42355 29.2256C5.12648 29.1328 4.91147 28.8833 4.86279 28.5743C4.81411 28.2653 4.94164 27.9611 5.19577 27.7805L5.95539 27.2406C6.00446 27.2057 6.03323 27.1488 6.03252 27.0883L6.02061 26.1534C6.01661 25.8406 6.18639 25.5581 6.46372 25.4161C6.7412 25.274 7.0683 25.3021 7.31764 25.4891L8.06323 26.0484C8.11128 26.0846 8.17399 26.0944 8.23113 26.0751L9.11202 25.7748C9.40674 25.6743 9.72647 25.7493 9.94665 25.9705C10.1668 26.1917 10.2414 26.5131 10.1414 26.8094V26.8094L9.84264 27.695C9.82336 27.7521 9.83331 27.8152 9.86929 27.8636L10.4257 28.613C10.6117 28.8637 10.6396 29.1927 10.4984 29.4713C10.3587 29.7468 10.0823 29.9169 9.77538 29.9169C9.77186 29.9169 9.76833 29.9168 9.7648 29.9168L8.83461 29.9048C8.77198 29.9015 8.7179 29.9331 8.68325 29.9823L8.146 30.7458C7.99159 30.9652 7.74648 31.0908 7.48561 31.0908ZM6.83432 25.9586C6.79654 25.9586 6.76573 25.9711 6.74927 25.9796C6.71886 25.9951 6.64839 26.0424 6.64964 26.1453L6.66156 27.0804C6.66493 27.3489 6.53669 27.6018 6.31863 27.7569L5.559 28.2968C5.47536 28.3562 5.47881 28.4415 5.48414 28.4754C5.48955 28.5092 5.51244 28.5913 5.61026 28.6218L6.49867 28.8994C6.75389 28.9792 6.95354 29.1799 7.03287 29.4364L7.30894 30.3293C7.33935 30.4275 7.42103 30.4507 7.45473 30.456C7.48836 30.4615 7.57325 30.4649 7.63235 30.3808L8.16952 29.6173C8.32166 29.401 8.56881 29.2726 8.83218 29.2726C8.83563 29.2726 8.83908 29.2727 8.84253 29.2727L9.77272 29.2846C9.87329 29.2881 9.9222 29.2149 9.93772 29.1844C9.95324 29.1538 9.98263 29.0739 9.92134 28.9914L9.36496 28.2419C9.20514 28.0267 9.16101 27.7464 9.24676 27.492L9.54556 26.6064V26.6065C9.5784 26.5089 9.52589 26.442 9.50174 26.4178C9.4776 26.3935 9.41121 26.3409 9.31401 26.3737L8.43313 26.6741C8.17987 26.7603 7.90113 26.7159 7.68698 26.5553L6.94131 25.996C6.90369 25.9676 6.86646 25.9586 6.83432 25.9586ZM9.8435 26.7079H9.84428H9.8435Z" fill="#6B707F"/>
<path d="M10.2593 38.1869C10.2165 38.1869 10.1734 38.1835 10.13 38.1766C9.82259 38.1277 9.57427 37.9118 9.48185 37.613L9.20571 36.72C9.18783 36.6623 9.14292 36.6172 9.08546 36.5992L8.19714 36.3217C7.90006 36.2288 7.68513 35.9792 7.63638 35.6702C7.5877 35.3612 7.71531 35.0571 7.96943 34.8765L8.72897 34.3366C8.77804 34.3017 8.80689 34.2449 8.8061 34.1846L8.79419 33.2494C8.79027 32.9365 8.96005 32.654 9.23745 32.512C9.5147 32.3702 9.84195 32.3982 10.0913 32.5851L10.8369 33.1444C10.885 33.1805 10.9475 33.1907 11.0047 33.1711L11.8857 32.8709C12.1802 32.7704 12.5002 32.8453 12.7203 33.0666C12.9404 33.2878 13.0149 33.6092 12.915 33.9054V33.9054L12.6162 34.791C12.5969 34.8482 12.6068 34.9113 12.6428 34.9596L13.1992 35.7091C13.3853 35.9598 13.4131 36.2887 13.272 36.5673C13.1323 36.8428 12.8559 37.0129 12.5489 37.0129C12.5454 37.0129 12.5419 37.0129 12.5384 37.0129L11.6082 37.0009C11.5488 37.0027 11.4914 37.029 11.4568 37.0783L10.9196 37.8419C10.7652 38.0613 10.5202 38.1869 10.2593 38.1869ZM9.60797 33.0546C9.57019 33.0546 9.53939 33.0671 9.52293 33.0756C9.49251 33.0911 9.42197 33.1384 9.42322 33.2414L9.43514 34.1765C9.43859 34.4449 9.31043 34.6978 9.09213 34.853L8.33266 35.3928C8.24903 35.4522 8.2524 35.5375 8.25781 35.5713C8.26314 35.6052 8.28602 35.6874 8.38393 35.7179L9.27233 35.9955C9.52747 36.0752 9.72712 36.2759 9.80644 36.5322L10.0826 37.4253C10.113 37.5236 10.1947 37.5467 10.2284 37.5521C10.2624 37.5574 10.347 37.5608 10.406 37.4768L10.9432 36.7134C11.0953 36.497 11.3425 36.3686 11.6058 36.3686C11.6093 36.3686 11.6127 36.3687 11.6162 36.3687L12.5464 36.3807C12.5473 36.3807 12.5483 36.3807 12.5492 36.3807C12.6496 36.3807 12.696 36.3107 12.7114 36.2804C12.7269 36.2499 12.7563 36.1699 12.695 36.0874L12.1385 35.338C11.9788 35.1228 11.9347 34.8425 12.0204 34.5881L12.3192 33.7024V33.7025C12.352 33.605 12.2995 33.538 12.2755 33.5139C12.2513 33.4896 12.1849 33.4369 12.0877 33.4698L11.2066 33.7701C10.9535 33.8564 10.6747 33.8119 10.4606 33.6513L9.71497 33.092C9.67734 33.0637 9.64011 33.0546 9.60797 33.0546ZM12.6171 33.804H12.6179H12.6171Z" fill="#6B707F"/>
<path d="M39.6357 2.14887C39.791 1.23532 39.1411 0.582007 38.2322 0.738165L28.5198 0.708383C28.1153 0.707122 27.7158 0.841141 27.4135 1.11146C27.387 1.13518 27.3611 1.15976 27.3358 1.18513L25.2202 3.31138L23.6584 1.74161C23.3689 1.45057 22.9444 1.34168 22.5515 1.45774L4.72062 6.72251C3.90535 6.96329 3.64378 7.99344 4.24467 8.59743L12.1024 16.4956L11.8575 16.7418C11.1811 17.4217 11.0581 18.4005 11.5828 18.9279L21.5526 28.9489C22.0773 29.4764 23.0511 29.3528 23.7275 28.6729L23.9724 28.4267L31.8302 36.3249C32.431 36.9288 33.4559 36.666 33.6954 35.8465L38.9333 17.9237C39.0487 17.5288 38.9403 17.1022 38.6509 16.8112L37.0886 15.2409L39.2114 13.1069C39.2139 13.1043 39.2164 13.1018 39.2189 13.0993C39.5281 12.7849 39.6877 12.3515 39.6855 11.9094L39.6357 2.14887Z" fill="white"/>
<path d="M14.1311 7.64523L11.2867 4.78619L7.36603 5.94527L11.5942 10.1953L14.1311 7.64523Z" fill="#E0E0FF"/>
<path d="M32.7532 26.3633L35.5975 29.2223L34.4444 33.1631L30.2162 28.9132L32.7532 26.3633Z" fill="#E0E0FF"/>
<path d="M39.4611 12.7748C39.6097 12.5143 39.687 12.2144 39.6855 11.9094L39.6357 2.14894C39.791 1.23539 39.1411 0.582163 38.2322 0.738242L28.5198 0.708382C28.2225 0.707515 27.9283 0.780315 27.673 0.925915L39.4611 12.7748Z" fill="#E0E0FF"/>
<path d="M39.2463 12.3392C39.1665 12.2591 39.052 12.2367 38.9516 12.2697L39.3155 12.6351C39.3483 12.5342 39.326 12.4193 39.2463 12.3392Z" fill="white"/>
<path d="M39.2463 10.0968C39.3593 9.98332 39.3593 9.79943 39.2463 9.68602C39.1332 9.5726 38.9499 9.5726 38.8369 9.68602C38.7238 9.79943 38.7238 9.9834 38.8369 10.0968C38.9499 10.2102 39.1332 10.2102 39.2463 10.0968Z" fill="white"/>
<path d="M39.296 11.4235C39.409 11.31 39.409 11.1261 39.296 11.0126C39.1828 10.8991 38.9996 10.8991 38.8865 11.0126C38.7735 11.1261 38.7735 11.31 38.8865 11.4235C38.9996 11.537 39.1828 11.537 39.296 11.4235Z" fill="white"/>
<path d="M37.9266 11.0127C37.8468 10.9325 37.7323 10.9102 37.6319 10.9432L37.9958 11.3088C38.0286 11.208 38.0063 11.0929 37.9266 11.0127Z" fill="white"/>
<path d="M39.0415 7.52881C39.2014 7.52881 39.3311 7.39872 39.3311 7.23825C39.3311 7.07778 39.2014 6.94769 39.0415 6.94769C38.8816 6.94769 38.752 7.07778 38.752 7.23825C38.752 7.39872 38.8816 7.52881 39.0415 7.52881Z" fill="white"/>
<path d="M39.296 8.35934C39.1828 8.2459 38.9996 8.24582 38.8865 8.35934C38.7735 8.47285 38.7735 8.65677 38.8865 8.77021C38.9996 8.88373 39.1829 8.88373 39.296 8.77021C39.409 8.65677 39.409 8.47285 39.296 8.35934Z" fill="white"/>
<path d="M37.9265 8.77027C38.0396 8.65682 38.0396 8.47282 37.9265 8.35937C37.8135 8.24593 37.6301 8.24593 37.5171 8.35937C37.404 8.47289 37.404 8.65682 37.5171 8.77027C37.6301 8.88379 37.8134 8.88379 37.9265 8.77027Z" fill="white"/>
<path d="M37.5667 9.68611C37.4536 9.79975 37.4536 9.98407 37.5667 10.0977C37.6797 10.2114 37.8631 10.2114 37.9761 10.0977C38.0892 9.98407 38.0891 9.79975 37.9761 9.68611C37.8631 9.5724 37.6798 9.5724 37.5667 9.68611Z" fill="white"/>
<path d="M39.0415 4.87579C39.2014 4.87579 39.331 4.7455 39.331 4.58478C39.331 4.42405 39.2014 4.29376 39.0415 4.29376C38.8817 4.29376 38.7521 4.42405 38.7521 4.58478C38.7521 4.7455 38.8817 4.87579 39.0415 4.87579Z" fill="white"/>
<path d="M39.296 5.70717C39.1828 5.59354 38.9996 5.59354 38.8865 5.70717C38.7735 5.82072 38.7735 6.0049 38.8865 6.11845C38.9996 6.23208 39.1829 6.23208 39.296 6.11845C39.409 6.0049 39.409 5.82072 39.296 5.70717Z" fill="white"/>
<path d="M37.9762 7.44467C38.0893 7.33095 38.0892 7.14671 37.9762 7.03307C37.9205 6.97712 37.8478 6.94899 37.7748 6.94812L37.649 7.50149C37.7563 7.55192 37.8876 7.53372 37.9762 7.44467Z" fill="white"/>
<path d="M39.2462 2.13696C39.3593 2.02352 39.3593 1.83952 39.2462 1.72608C39.1739 1.65347 39.0729 1.62791 38.9799 1.6482C38.9791 1.65088 38.9786 1.65347 38.9778 1.65607L38.8634 2.15875C38.977 2.24851 39.1414 2.24206 39.2462 2.13696Z" fill="white"/>
<path d="M38.8865 3.05356C38.7734 3.16738 38.7734 3.3518 38.8865 3.46563C38.9995 3.57937 39.1828 3.57945 39.2958 3.46563C39.4089 3.3518 39.4089 3.16738 39.2958 3.05364C39.1828 2.93982 38.9996 2.93982 38.8865 3.05356Z" fill="white"/>
<path d="M38.9358 12.2575C38.9059 12.2715 38.8774 12.2899 38.8527 12.3148C38.7397 12.4286 38.7397 12.613 38.8527 12.7268C38.9658 12.8406 39.1491 12.8406 39.2621 12.7268C39.2868 12.7019 39.3051 12.6733 39.3191 12.6432L38.9358 12.2575Z" fill="#E0E0FF"/>
<path d="M37.9424 14.0532C38.0554 13.9394 38.0554 13.755 37.9424 13.6413C37.8293 13.5275 37.646 13.5275 37.533 13.6413C37.4199 13.755 37.4199 13.9395 37.533 14.0532C37.646 14.1669 37.8293 14.1669 37.9424 14.0532Z" fill="#E0E0FF"/>
<path d="M36.2132 14.9676C36.1002 15.0812 36.1002 15.2651 36.2132 15.3786C36.3263 15.492 36.5096 15.492 36.6226 15.3786C36.7357 15.2651 36.7357 15.0812 36.6226 14.9676C36.5096 14.8542 36.3263 14.8542 36.2132 14.9676Z" fill="#E0E0FF"/>
<path d="M34.8934 16.2943C34.7803 16.4079 34.7803 16.5921 34.8934 16.7057C35.0064 16.8194 35.1898 16.8194 35.3028 16.7057C35.4158 16.5921 35.4158 16.4079 35.3028 16.2943C35.1897 16.1806 35.0064 16.1806 34.8934 16.2943Z" fill="#E0E0FF"/>
<path d="M33.7783 18.1174C33.9382 18.1174 34.0678 17.9872 34.0678 17.8266C34.0678 17.666 33.9382 17.5358 33.7783 17.5358C33.6184 17.5358 33.4888 17.666 33.4888 17.8266C33.4888 17.9872 33.6184 18.1174 33.7783 18.1174Z" fill="#E0E0FF"/>
<path d="M32.2538 18.9475C32.1408 19.0612 32.1408 19.2456 32.2538 19.3594C32.3668 19.4731 32.5501 19.4731 32.6632 19.3594C32.7763 19.2456 32.7763 19.0612 32.6632 18.9475C32.5501 18.8338 32.3669 18.8338 32.2538 18.9475Z" fill="#E0E0FF"/>
<path d="M31.1388 20.7699C31.2987 20.7699 31.4283 20.6398 31.4283 20.4794C31.4283 20.3189 31.2987 20.1888 31.1388 20.1888C30.979 20.1888 30.8494 20.3189 30.8494 20.4794C30.8494 20.6398 30.979 20.7699 31.1388 20.7699Z" fill="#E0E0FF"/>
<path d="M29.6143 21.6007C29.5012 21.7143 29.5012 21.8985 29.6143 22.0121C29.7273 22.1256 29.9107 22.1256 30.0237 22.0121C30.1367 21.8984 30.1367 21.7143 30.0237 21.6007C29.9107 21.4871 29.7273 21.4871 29.6143 21.6007Z" fill="#E0E0FF"/>
<path d="M28.2946 22.927C28.1815 23.0405 28.1815 23.2245 28.2946 23.3379C28.4076 23.4515 28.5909 23.4515 28.704 23.3379C28.817 23.2245 28.817 23.0405 28.704 22.927C28.5909 22.8135 28.4076 22.8135 28.2946 22.927Z" fill="#E0E0FF"/>
<path d="M26.9748 24.2537C26.8618 24.3672 26.8618 24.5515 26.9748 24.665C27.0879 24.7786 27.2712 24.7786 27.3842 24.665C27.4973 24.5515 27.4973 24.3672 27.3842 24.2537C27.2711 24.14 27.0879 24.14 26.9748 24.2537Z" fill="#E0E0FF"/>
<path d="M25.655 25.5801C25.5419 25.6936 25.5419 25.8775 25.655 25.991C25.768 26.1045 25.9513 26.1045 26.0643 25.991C26.1774 25.8775 26.1774 25.6936 26.0643 25.5801C25.9513 25.4667 25.7681 25.4667 25.655 25.5801Z" fill="#E0E0FF"/>
<path d="M24.7446 27.3182C24.8577 27.2046 24.8577 27.0204 24.7446 26.9069C24.6316 26.7933 24.4483 26.7933 24.3351 26.9069C24.2221 27.0205 24.2221 27.2046 24.3351 27.3182C24.4483 27.4318 24.6315 27.4318 24.7446 27.3182Z" fill="#E0E0FF"/>
<path d="M23.0154 28.6442C23.1284 28.7578 23.3118 28.7578 23.4249 28.6442C23.5379 28.5307 23.5379 28.3467 23.4249 28.2333C23.3118 28.1197 23.1285 28.1197 23.0154 28.2333C22.9023 28.3467 22.9023 28.5307 23.0154 28.6442Z" fill="#E0E0FF"/>
<path d="M37.533 11.3997C37.646 11.5134 37.8293 11.5134 37.9423 11.3997C37.967 11.3748 37.9854 11.3462 37.9993 11.3161L37.6161 10.9307C37.5862 10.9446 37.5577 10.9631 37.533 10.9879C37.4199 11.1017 37.4199 11.286 37.533 11.3997Z" fill="#E0E0FF"/>
<path d="M37.5826 12.3146C37.4695 12.4281 37.4695 12.612 37.5826 12.7254C37.6957 12.8389 37.879 12.8389 37.992 12.7254C38.1052 12.612 38.1051 12.428 37.992 12.3146C37.879 12.2011 37.6957 12.2011 37.5826 12.3146Z" fill="#E0E0FF"/>
<path d="M36.6226 12.7263C36.7357 12.6126 36.7357 12.4283 36.6226 12.3147C36.5096 12.2009 36.3263 12.2009 36.2132 12.3147C36.1002 12.4284 36.1002 12.6126 36.2132 12.7263C36.3263 12.84 36.5096 12.84 36.6226 12.7263Z" fill="#E0E0FF"/>
<path d="M36.6722 13.641C36.5592 13.5275 36.3758 13.5275 36.2628 13.641C36.1498 13.7545 36.1498 13.9385 36.2628 14.0519C36.3758 14.1654 36.5592 14.1654 36.6722 14.0519C36.7852 13.9384 36.7852 13.7545 36.6722 13.641Z" fill="#E0E0FF"/>
<path d="M35.3028 14.0532C35.4158 13.9394 35.4158 13.755 35.3028 13.6413C35.1898 13.5275 35.0064 13.5275 34.8934 13.6413C34.7803 13.755 34.7803 13.9395 34.8934 14.0532C35.0064 14.1669 35.1897 14.1669 35.3028 14.0532Z" fill="#E0E0FF"/>
<path d="M35.3525 14.9676C35.2394 14.8542 35.0562 14.8542 34.9432 14.9676C34.8301 15.0812 34.8301 15.2651 34.9432 15.3786C35.0562 15.492 35.2395 15.492 35.3525 15.3786C35.4656 15.2652 35.4656 15.0812 35.3525 14.9676Z" fill="#E0E0FF"/>
<path d="M33.7783 15.4643C33.9382 15.4643 34.0678 15.334 34.0678 15.1733C34.0678 15.0127 33.9382 14.8824 33.7783 14.8824C33.6183 14.8824 33.4887 15.0127 33.4887 15.1733C33.4887 15.334 33.6183 15.4643 33.7783 15.4643Z" fill="#E0E0FF"/>
<path d="M34.0327 16.2943C33.9197 16.1806 33.7364 16.1806 33.6233 16.2943C33.5102 16.4079 33.5102 16.5921 33.6233 16.7057C33.7364 16.8194 33.9197 16.8194 34.0327 16.7057C34.1457 16.5921 34.1457 16.4079 34.0327 16.2943Z" fill="#E0E0FF"/>
<path d="M32.6632 16.7057C32.7763 16.5921 32.7763 16.4079 32.6632 16.2943C32.5501 16.1806 32.3668 16.1806 32.2538 16.2943C32.1408 16.4079 32.1408 16.5921 32.2538 16.7057C32.3669 16.8194 32.5501 16.8194 32.6632 16.7057Z" fill="#E0E0FF"/>
<path d="M32.7129 17.6206C32.5999 17.5071 32.4165 17.5071 32.3035 17.6205C32.1904 17.7341 32.1904 17.918 32.3035 18.0315C32.4166 18.145 32.5999 18.145 32.7129 18.0315C32.826 17.9181 32.826 17.7341 32.7129 17.6206Z" fill="#E0E0FF"/>
<path d="M31.1388 18.1174C31.2987 18.1174 31.4283 17.9872 31.4283 17.8266C31.4283 17.666 31.2987 17.5358 31.1388 17.5358C30.979 17.5358 30.8494 17.666 30.8494 17.8266C30.8494 17.9872 30.979 18.1174 31.1388 18.1174Z" fill="#E0E0FF"/>
<path d="M31.3932 18.9475C31.2801 18.8338 31.0968 18.8338 30.9838 18.9475C30.8707 19.0612 30.8707 19.2456 30.9838 19.3594C31.0968 19.4731 31.2801 19.4731 31.3932 19.3594C31.5063 19.2456 31.5062 19.0612 31.3932 18.9475Z" fill="#E0E0FF"/>
<path d="M30.0237 19.3594C30.1367 19.2456 30.1367 19.0612 30.0237 18.9475C29.9107 18.8338 29.7273 18.8338 29.6143 18.9475C29.5012 19.0612 29.5012 19.2456 29.6143 19.3594C29.7273 19.4731 29.9107 19.4731 30.0237 19.3594Z" fill="#E0E0FF"/>
<path d="M30.0734 20.2739C29.9604 20.1603 29.777 20.1603 29.664 20.2739C29.5509 20.3873 29.5509 20.5713 29.664 20.6847C29.777 20.7982 29.9604 20.7982 30.0734 20.6847C30.1865 20.5713 30.1864 20.3873 30.0734 20.2739Z" fill="#E0E0FF"/>
<path d="M28.704 20.6848C28.817 20.5714 28.817 20.3874 28.704 20.274C28.5909 20.1605 28.4076 20.1605 28.2946 20.274C28.1815 20.3874 28.1815 20.5714 28.2946 20.6848C28.4076 20.7983 28.5909 20.7983 28.704 20.6848Z" fill="#E0E0FF"/>
<path d="M28.7537 21.6005C28.6406 21.487 28.4573 21.487 28.3442 21.6004C28.2312 21.7139 28.2312 21.8978 28.3442 22.0113C28.4574 22.1248 28.6406 22.1248 28.7537 22.0113C28.8667 21.8978 28.8667 21.7139 28.7537 21.6005Z" fill="#E0E0FF"/>
<path d="M27.3842 22.0121C27.4973 21.8984 27.4973 21.7143 27.3842 21.6007C27.2711 21.4871 27.0879 21.4871 26.9748 21.6007C26.8618 21.7143 26.8618 21.8985 26.9748 22.0121C27.0879 22.1256 27.2711 22.1256 27.3842 22.0121Z" fill="#E0E0FF"/>
<path d="M27.4338 22.9272C27.3207 22.8135 27.1375 22.8135 27.0244 22.9272C26.9114 23.0409 26.9114 23.2252 27.0244 23.3389C27.1375 23.4526 27.3208 23.4526 27.4338 23.3389C27.5469 23.2252 27.5469 23.0408 27.4338 22.9272Z" fill="#E0E0FF"/>
<path d="M26.0643 23.3384C26.1774 23.2248 26.1774 23.0406 26.0643 22.9271C25.9513 22.8135 25.768 22.8135 25.655 22.9271C25.5419 23.0407 25.5419 23.2248 25.655 23.3384C25.768 23.4519 25.9512 23.4519 26.0643 23.3384Z" fill="#E0E0FF"/>
<path d="M26.1141 24.2537C26.0011 24.14 25.8177 24.14 25.7047 24.2537C25.5916 24.3672 25.5916 24.5515 25.7047 24.665C25.8177 24.7786 26.0011 24.7786 26.1141 24.665C26.2272 24.5515 26.2272 24.3672 26.1141 24.2537Z" fill="#E0E0FF"/>
<path d="M24.7446 24.6658C24.8577 24.5521 24.8577 24.3676 24.7446 24.2538C24.6316 24.14 24.4483 24.14 24.3351 24.2538C24.2221 24.3676 24.2221 24.5521 24.3351 24.6658C24.4483 24.7797 24.6315 24.7797 24.7446 24.6658Z" fill="#E0E0FF"/>
<path d="M24.7943 25.9916C24.9073 25.8779 24.9073 25.6938 24.7943 25.5802C24.6813 25.4665 24.498 25.4665 24.3849 25.5802C24.2719 25.6938 24.2719 25.878 24.3849 25.9917C24.498 26.1052 24.6812 26.1052 24.7943 25.9916Z" fill="#E0E0FF"/>
<path d="M23.0154 25.5801C22.9023 25.6936 22.9023 25.8775 23.0154 25.991C23.1284 26.1045 23.3118 26.1045 23.4249 25.991C23.5379 25.8775 23.5379 25.6936 23.4249 25.5801C23.3118 25.4667 23.1284 25.4667 23.0154 25.5801Z" fill="#E0E0FF"/>
<path d="M23.0651 26.9069C22.952 27.0205 22.952 27.2046 23.0651 27.3182C23.1781 27.4318 23.3615 27.4318 23.4745 27.3182C23.5875 27.2046 23.5875 27.0204 23.4745 26.9069C23.3615 26.7933 23.1781 26.7933 23.0651 26.9069Z" fill="#E0E0FF"/>
<path d="M21.6957 26.9069C21.5826 27.0205 21.5826 27.2046 21.6957 27.3182C21.8087 27.4318 21.992 27.4318 22.1051 27.3182C22.2182 27.2046 22.2182 27.0204 22.1051 26.9069C21.992 26.7933 21.8087 26.7933 21.6957 26.9069Z" fill="#E0E0FF"/>
<path d="M21.7454 28.2331C21.6322 28.3466 21.6323 28.5306 21.7454 28.644C21.8584 28.7575 22.0417 28.7575 22.1548 28.644C22.2678 28.5306 22.2678 28.3466 22.1548 28.2331C22.0417 28.1197 21.8584 28.1197 21.7454 28.2331Z" fill="#E0E0FF"/>
<path d="M36.6722 10.9879C36.5592 10.8745 36.3758 10.8745 36.2628 10.9879C36.1498 11.1014 36.1498 11.2854 36.2628 11.3989C36.3758 11.5123 36.5592 11.5123 36.6722 11.3989C36.7852 11.2854 36.7852 11.1014 36.6722 10.9879Z" fill="#E0E0FF"/>
<path d="M35.3525 12.3147C35.2394 12.2009 35.0562 12.2009 34.9432 12.3147C34.8301 12.4284 34.8301 12.6126 34.9432 12.7263C35.0562 12.84 35.2395 12.84 35.3525 12.7263C35.4656 12.6126 35.4656 12.4284 35.3525 12.3147Z" fill="#E0E0FF"/>
<path d="M34.0327 13.641C33.9197 13.5275 33.7364 13.5275 33.6233 13.641C33.5102 13.7545 33.5102 13.9385 33.6233 14.0519C33.7364 14.1654 33.9197 14.1654 34.0327 14.0519C34.1457 13.9384 34.1457 13.7545 34.0327 13.641Z" fill="#E0E0FF"/>
<path d="M32.7129 14.9676C32.5999 14.8542 32.4165 14.8542 32.3035 14.9676C32.1904 15.0812 32.1904 15.2651 32.3035 15.3786C32.4166 15.492 32.5999 15.492 32.7129 15.3786C32.826 15.2652 32.826 15.0812 32.7129 14.9676Z" fill="#E0E0FF"/>
<path d="M31.3932 16.2943C31.2801 16.1806 31.0968 16.1806 30.9838 16.2943C30.8707 16.4079 30.8707 16.5921 30.9838 16.7057C31.0968 16.8194 31.2801 16.8194 31.3932 16.7057C31.5063 16.5921 31.5062 16.4079 31.3932 16.2943Z" fill="#E0E0FF"/>
<path d="M30.0734 17.6206C29.9604 17.5071 29.777 17.5071 29.664 17.6205C29.5509 17.7341 29.5509 17.918 29.664 18.0315C29.777 18.145 29.9604 18.145 30.0734 18.0315C30.1865 17.9181 30.1864 17.7341 30.0734 17.6206Z" fill="#E0E0FF"/>
<path d="M28.7537 18.9475C28.6406 18.8338 28.4573 18.8338 28.3442 18.9475C28.2312 19.0612 28.2312 19.2456 28.3442 19.3594C28.4574 19.4731 28.6406 19.4731 28.7537 19.3594C28.8667 19.2456 28.8667 19.0612 28.7537 18.9475Z" fill="#E0E0FF"/>
<path d="M27.4338 20.2739C27.3207 20.1603 27.1375 20.1603 27.0244 20.2739C26.9114 20.3873 26.9114 20.5713 27.0244 20.6847C27.1375 20.7982 27.3208 20.7982 27.4338 20.6847C27.5469 20.5713 27.5469 20.3873 27.4338 20.2739Z" fill="#E0E0FF"/>
<path d="M26.1141 21.6005C26.0011 21.487 25.8177 21.487 25.7047 21.6004C25.5916 21.7139 25.5916 21.8978 25.7047 22.0113C25.8177 22.1248 26.0011 22.1248 26.1141 22.0113C26.2272 21.8978 26.2272 21.7139 26.1141 21.6005Z" fill="#E0E0FF"/>
<path d="M24.7942 22.9272C24.6812 22.8135 24.4979 22.8135 24.3848 22.9272C24.2718 23.0409 24.2718 23.2252 24.3848 23.3389C24.4979 23.4526 24.6812 23.4526 24.7943 23.3389C24.9074 23.2252 24.9074 23.0408 24.7942 22.9272Z" fill="#E0E0FF"/>
<path d="M23.0651 24.2537C22.952 24.3672 22.952 24.5515 23.0651 24.665C23.1781 24.7786 23.3615 24.7786 23.4745 24.665C23.5875 24.5515 23.5875 24.3672 23.4745 24.2537C23.3615 24.14 23.1781 24.14 23.0651 24.2537Z" fill="#E0E0FF"/>
<path d="M21.7454 25.5803C21.6322 25.694 21.6323 25.8781 21.7454 25.9917C21.8584 26.1052 22.0417 26.1052 22.1548 25.9917C22.2678 25.8781 22.2678 25.694 22.1548 25.5804C22.0417 25.4668 21.8584 25.4668 21.7454 25.5803Z" fill="#E0E0FF"/>
<path d="M20.835 27.3176C20.948 27.2041 20.948 27.0201 20.835 26.9067C20.722 26.7933 20.5386 26.7932 20.4256 26.9067C20.3125 27.0202 20.3126 27.2041 20.4256 27.3176C20.5386 27.4311 20.7219 27.4311 20.835 27.3176Z" fill="#E0E0FF"/>
<path d="M39.9502 2.1483C39.95 1.05512 39.3419 0.441833 38.2332 0.421506L28.5207 0.391724C28.5185 0.391724 28.5164 0.391724 28.5142 0.391724C28.0178 0.391724 27.5528 0.563167 27.2043 0.874852C27.1733 0.902665 27.1429 0.931422 27.1133 0.961204L25.2203 2.86386L23.8808 1.51753C23.5098 1.14439 22.9664 1.00517 22.463 1.15384L4.63187 6.4187C4.1415 6.56359 3.77317 6.94721 3.64682 7.44507C3.52046 7.94293 3.66077 8.45718 4.02228 8.82048L11.6576 16.4951L11.6351 16.5178C11.2588 16.8959 11.0182 17.3697 10.9577 17.8519C10.8933 18.3639 11.0364 18.8253 11.3605 19.1509L12.9646 20.7634L10.3563 22.4402C10.0519 22.6359 9.86184 22.951 9.82116 23.3273C9.77186 23.7835 9.95504 24.2695 10.3111 24.6274L15.8819 30.2269V30.227C16.2006 30.5473 16.618 30.7273 17.0269 30.7273C17.0858 30.7273 17.1446 30.7236 17.2028 30.7159C17.5839 30.6663 17.8966 30.4616 18.083 30.1398L19.6325 27.4658L21.3301 29.1722C21.609 29.4526 21.9863 29.5889 22.3894 29.5889C22.9205 29.5889 23.4961 29.352 23.9499 28.896L23.9724 28.8735L31.6077 36.5481C31.8818 36.8235 32.2419 36.9713 32.616 36.9713C32.7354 36.9713 32.8562 36.9563 32.9759 36.9255C33.4713 36.7985 33.8531 36.4283 33.9972 35.9352L39.235 18.0125C39.3829 17.5065 39.2443 16.9603 38.8733 16.5873H38.8732L37.5334 15.2405L39.4338 13.33C39.4349 13.3288 39.4415 13.3222 39.4426 13.321C39.7995 12.958 40.0026 12.4428 40 11.9073L39.9502 2.1483ZM4.46695 8.37335C4.26417 8.16945 4.1854 7.88085 4.25633 7.60139C4.32727 7.32193 4.53397 7.1066 4.80918 7.02537L22.6403 1.76059C22.7151 1.73853 22.7914 1.72773 22.8672 1.72773C23.0775 1.72773 23.2829 1.81078 23.436 1.96473L24.7754 3.31106L12.1024 16.048L4.46695 8.37335ZM17.5395 29.8213C17.4291 30.0118 17.2515 30.0719 17.1218 30.0889C16.8513 30.1239 16.5542 30.0084 16.3265 29.7796V29.7797L10.7557 24.1802C10.5331 23.9565 10.4175 23.6631 10.4464 23.3955C10.4603 23.2667 10.5148 23.0888 10.6951 22.9729L13.42 21.2212L19.1725 27.0034L17.5395 29.8213ZM38.4284 17.0342C38.6367 17.2436 38.7145 17.5501 38.6315 17.8342L33.3936 35.757C33.3128 36.0337 33.0985 36.2415 32.8205 36.3128C32.5427 36.384 32.2555 36.3049 32.0526 36.101L24.4172 28.4263L37.0886 15.6876L38.4284 17.0342ZM38.9965 12.8751L23.5051 28.4489C22.9522 29.0044 22.1763 29.128 21.775 28.725L11.8052 18.7038C11.6217 18.5193 11.5423 18.245 11.5817 17.9311C11.6249 17.5875 11.8018 17.2443 12.0798 16.9647L27.5581 1.40825C27.5791 1.38729 27.6006 1.36681 27.6225 1.34719C27.8556 1.13871 28.1721 1.024 28.5141 1.024H28.5188L38.2264 1.05378C38.9834 1.06765 39.3209 1.40533 39.3211 2.15004L39.3709 11.9105C39.3727 12.2796 39.2358 12.6317 38.9965 12.8751Z" fill="#6B707F"/>
<path d="M25.5094 19.8679C25.4289 19.8679 25.3484 19.837 25.287 19.7752L20.71 15.1738C20.5871 15.0504 20.5871 14.8501 20.71 14.7266C20.8327 14.6032 21.032 14.6032 21.1548 14.7266L25.7317 19.3281C25.8546 19.4515 25.8546 19.6518 25.7317 19.7752C25.6704 19.837 25.5899 19.8679 25.5094 19.8679Z" fill="#6B707F"/>
<path d="M23.5107 21.8749C23.4302 21.8749 23.3497 21.844 23.2883 21.7822L18.7114 17.1826C18.5885 17.0592 18.5885 16.859 18.7114 16.7356C18.8341 16.6121 19.0335 16.6121 19.1561 16.7356L23.7331 21.3353C23.856 21.4586 23.856 21.6589 23.7331 21.7822C23.6718 21.844 23.5912 21.8749 23.5107 21.8749Z" fill="#6B707F"/>
<path d="M28.6841 16.4845C31.2805 16.4845 33.3852 14.3689 33.3852 11.7592C33.3852 9.14952 31.2805 7.03394 28.6841 7.03394C26.0878 7.03394 23.9831 9.14952 23.9831 11.7592C23.9831 14.3689 26.0878 16.4845 28.6841 16.4845Z" fill="#E0E0FF"/>
<path d="M28.6842 14.3324C30.098 14.3324 31.2441 13.1804 31.2441 11.7593C31.2441 10.3382 30.098 9.18616 28.6842 9.18616C27.2703 9.18616 26.1242 10.3382 26.1242 11.7593C26.1242 13.1804 27.2703 14.3324 28.6842 14.3324Z" fill="#6B707F"/>
</svg>
