<svg width="34" height="41" viewBox="0 0 34 41" fill="none" xmlns="http://www.w3.org/2000/svg">
<path d="M25.9911 40.0044H2.19629C1.46265 40.0044 0.868164 39.4069 0.868164 38.6694V5.46344C0.868164 4.72602 1.46265 4.12848 2.19629 4.12848H25.9911C26.7247 4.12848 27.3192 4.72602 27.3192 5.46344V38.6694C27.3192 39.4069 26.7247 40.0044 25.9911 40.0044Z" fill="white"/>
<path d="M18.5623 6.45117H9.62513C9.19361 6.45117 8.84387 6.09964 8.84387 5.6659V2.86286C8.84387 1.82207 9.68342 0.97821 10.7189 0.97821H17.4685C18.504 0.97821 19.3435 1.82207 19.3435 2.86286V5.6659C19.3435 6.09964 18.9938 6.45117 18.5623 6.45117Z" fill="#E0E0FF"/>
<path d="M32.1223 13.3632C32.1223 17.1757 29.0477 20.2662 25.2546 20.2662C21.4619 20.2662 18.387 17.1757 18.387 13.3632C18.387 9.55092 21.4619 6.46014 25.2546 6.46014C29.0477 6.46014 32.1223 9.55092 32.1223 13.3632Z" fill="#E0E0FF"/>
<path d="M24.8937 16.4043C24.5378 16.4043 24.1963 16.2623 23.9449 16.0095L20.6593 12.707C20.1354 12.1803 20.1354 11.3264 20.6593 10.7997C21.1833 10.273 22.0329 10.273 22.5569 10.7997L24.8937 13.1484L30.9645 7.04626C31.4882 6.51957 32.3381 6.51957 32.8618 7.04626C33.3861 7.57295 33.3861 8.42695 32.8618 8.95364L25.8424 16.0095C25.5907 16.2623 25.2495 16.4043 24.8937 16.4043Z" fill="white"/>
<path d="M16.253 16.3737H9.10242C8.77832 16.3737 8.51587 16.1097 8.51587 15.7841C8.51587 15.4585 8.77832 15.1945 9.10242 15.1945H16.253C16.5771 15.1945 16.8398 15.4585 16.8398 15.7841C16.8398 16.1097 16.5771 16.3737 16.253 16.3737Z" fill="#4C4CF1"/>
<path d="M7.98235 10.2851H4.03364C3.70954 10.2851 3.44678 10.0211 3.44678 9.69543C3.44678 9.36979 3.70954 9.10577 4.03364 9.10577H7.98235C8.30645 9.10577 8.56921 9.36979 8.56921 9.69543C8.56921 10.0211 8.30645 10.2851 7.98235 10.2851Z" fill="#4C4CF1"/>
<path d="M16.253 19.1099H9.10242C8.77832 19.1099 8.51587 18.8459 8.51587 18.5202C8.51587 18.1949 8.77832 17.9309 9.10242 17.9309H16.253C16.5771 17.9309 16.8398 18.1949 16.8398 18.5202C16.8398 18.8459 16.5771 19.1099 16.253 19.1099Z" fill="#4C4CF1"/>
<path d="M18.723 23.5277H9.10241C8.77832 23.5277 8.51587 23.2637 8.51587 22.938C8.51587 22.6124 8.77832 22.3484 9.10241 22.3484H18.723C19.0471 22.3484 19.3098 22.6124 19.3098 22.938C19.3098 23.2637 19.0471 23.5277 18.723 23.5277Z" fill="#4C4CF1"/>
<path d="M13.9128 26.2642H9.10241C8.77832 26.2642 8.51587 26.0002 8.51587 25.6746C8.51587 25.3489 8.77832 25.0849 9.10241 25.0849H13.9128C14.2369 25.0849 14.4994 25.3489 14.4994 25.6746C14.4994 26.0002 14.2369 26.2642 13.9128 26.2642Z" fill="#4C4CF1"/>
<path d="M16.253 30.6894H9.10242C8.77832 30.6894 8.51587 30.4254 8.51587 30.0997C8.51587 29.774 8.77832 29.51 9.10242 29.51H16.253C16.5771 29.51 16.8398 29.774 16.8398 30.0997C16.8398 30.4254 16.5771 30.6894 16.253 30.6894Z" fill="#4C4CF1"/>
<path d="M18.723 33.4255H9.10241C8.77832 33.4255 8.51587 33.1615 8.51587 32.8358C8.51587 32.5105 8.77832 32.2465 9.10241 32.2465H18.723C19.0471 32.2465 19.3098 32.5105 19.3098 32.8358C19.3098 33.1615 19.0471 33.4255 18.723 33.4255Z" fill="#4C4CF1"/>
<path d="M7.0625 17.0656C7.0625 18.0558 6.26416 18.8582 5.27905 18.8582C4.29425 18.8582 3.49561 18.0558 3.49561 17.0656C3.49561 16.0757 4.29425 15.2729 5.27905 15.2729C6.26416 15.2729 7.0625 16.0757 7.0625 17.0656Z" fill="#E0E0FF"/>
<path d="M7.0625 24.3066C7.0625 25.2965 6.26416 26.0989 5.27905 26.0989C4.29425 26.0989 3.49561 25.2965 3.49561 24.3066C3.49561 23.3165 4.29425 22.514 5.27905 22.514C6.26416 22.514 7.0625 23.3165 7.0625 24.3066Z" fill="#E0E0FF"/>
<path d="M7.0625 31.468C7.0625 32.4579 6.26416 33.2607 5.27905 33.2607C4.29425 33.2607 3.49561 32.4579 3.49561 31.468C3.49561 30.4778 4.29425 29.6754 5.27905 29.6754C6.26416 29.6754 7.0625 30.4778 7.0625 31.468Z" fill="#E0E0FF"/>
<path d="M16.253 16.3737H9.10242C8.77832 16.3737 8.51587 16.1097 8.51587 15.7841C8.51587 15.4585 8.77832 15.1945 9.10242 15.1945H16.253C16.5771 15.1945 16.8398 15.4585 16.8398 15.7841C16.8398 16.1097 16.5771 16.3737 16.253 16.3737Z" fill="#6B707F"/>
<path d="M7.98235 10.2851H4.03364C3.70954 10.2851 3.44678 10.0211 3.44678 9.69543C3.44678 9.36979 3.70954 9.10577 4.03364 9.10577H7.98235C8.30645 9.10577 8.56921 9.36979 8.56921 9.69543C8.56921 10.0211 8.30645 10.2851 7.98235 10.2851Z" fill="#6B707F"/>
<path d="M16.253 19.1099H9.10242C8.77832 19.1099 8.51587 18.8459 8.51587 18.5202C8.51587 18.1949 8.77832 17.9309 9.10242 17.9309H16.253C16.5771 17.9309 16.8398 18.1949 16.8398 18.5202C16.8398 18.8459 16.5771 19.1099 16.253 19.1099Z" fill="#6B707F"/>
<path d="M18.723 23.5277H9.10241C8.77832 23.5277 8.51587 23.2637 8.51587 22.938C8.51587 22.6124 8.77832 22.3484 9.10241 22.3484H18.723C19.0471 22.3484 19.3098 22.6124 19.3098 22.938C19.3098 23.2637 19.0471 23.5277 18.723 23.5277Z" fill="#6B707F"/>
<path d="M13.9128 26.2642H9.10241C8.77832 26.2642 8.51587 26.0002 8.51587 25.6746C8.51587 25.3489 8.77832 25.0849 9.10241 25.0849H13.9128C14.2369 25.0849 14.4994 25.3489 14.4994 25.6746C14.4994 26.0002 14.2369 26.2642 13.9128 26.2642Z" fill="#6B707F"/>
<path d="M16.253 30.6894H9.10242C8.77832 30.6894 8.51587 30.4254 8.51587 30.0997C8.51587 29.774 8.77832 29.51 9.10242 29.51H16.253C16.5771 29.51 16.8398 29.774 16.8398 30.0997C16.8398 30.4254 16.5771 30.6894 16.253 30.6894Z" fill="#6B707F"/>
<path d="M18.723 33.4255H9.10241C8.77832 33.4255 8.51587 33.1615 8.51587 32.8358C8.51587 32.5105 8.77832 32.2465 9.10241 32.2465H18.723C19.0471 32.2465 19.3098 32.5105 19.3098 32.8358C19.3098 33.1615 19.0471 33.4255 18.723 33.4255Z" fill="#6B707F"/>
<path d="M5.27911 19.4481C3.97205 19.4481 2.90881 18.3794 2.90881 17.0656C2.90881 15.7518 3.97205 14.683 5.27911 14.683C6.58618 14.683 7.64941 15.7518 7.64941 17.0656C7.64941 18.3794 6.58618 19.4481 5.27911 19.4481ZM5.27911 15.8628C4.61932 15.8628 4.08252 16.4024 4.08252 17.0656C4.08252 17.7288 4.61932 18.2684 5.27911 18.2684C5.9389 18.2684 6.47571 17.7288 6.47571 17.0656C6.47571 16.4024 5.9389 15.8628 5.27911 15.8628Z" fill="#6B707F"/>
<path d="M5.27911 26.6888C3.97205 26.6888 2.90881 25.6201 2.90881 24.3063C2.90881 22.9928 3.97205 21.9238 5.27911 21.9238C6.58618 21.9238 7.64941 22.9928 7.64941 24.3063C7.64941 25.6201 6.58618 26.6888 5.27911 26.6888ZM5.27911 23.1036C4.61932 23.1036 4.08252 23.6431 4.08252 24.3066C4.08252 24.9698 4.61932 25.5094 5.27911 25.5094C5.9389 25.5094 6.47571 24.9698 6.47571 24.3066C6.47571 23.6431 5.9389 23.1036 5.27911 23.1036Z" fill="#6B707F"/>
<path d="M5.27911 33.8505C3.97205 33.8505 2.90881 32.7818 2.90881 31.468C2.90881 30.1542 3.97205 29.0855 5.27911 29.0855C6.58618 29.0855 7.64941 30.1542 7.64941 31.468C7.64941 32.7818 6.58618 33.8505 5.27911 33.8505ZM5.27911 30.2653C4.61932 30.2653 4.08252 30.8048 4.08252 31.468C4.08252 32.1312 4.61932 32.6708 5.27911 32.6708C5.9389 32.6708 6.47571 32.1312 6.47571 31.468C6.47571 30.8048 5.9389 30.2653 5.27911 30.2653Z" fill="#6B707F"/>
<path d="M22.972 10.3824C22.6076 10.0165 22.1233 9.81465 21.6082 9.81465C21.0931 9.81465 20.6087 10.0165 20.2447 10.3824C19.8803 10.7487 19.6795 11.2355 19.6795 11.7533C19.6795 12.2711 19.8803 12.7579 20.2444 13.1238L23.5299 16.4263C23.894 16.7922 24.3786 16.9941 24.8937 16.9941C25.4089 16.9941 25.8929 16.7922 26.2572 16.4263L33.2769 9.37048C33.6413 9.00423 33.8418 8.51742 33.8418 7.99994C33.8418 7.48215 33.6413 6.99534 33.2769 6.62908C32.9128 6.26283 32.4282 6.06129 31.9131 6.06129C31.3979 6.06129 30.9136 6.26283 30.5496 6.62908L29.7756 7.40699C29.2022 6.96712 28.5729 6.61436 27.9061 6.35914V5.47724C27.9061 4.40823 27.0409 3.5386 25.9777 3.5386H19.9303V2.8656C19.9303 1.49965 18.8247 0.388306 17.4657 0.388306H10.7216C9.36269 0.388306 8.25703 1.49965 8.25703 2.8656V5.66467C8.25703 6.42356 8.87135 7.04104 9.62636 7.04104H18.561C19.316 7.04104 19.9303 6.42356 19.9303 5.66467V4.71835H25.9774C26.3937 4.71835 26.7324 5.05884 26.7324 5.47724V6.02049C26.2493 5.92234 25.7549 5.87019 25.2547 5.87019C21.1443 5.87019 17.8002 9.23153 17.8002 13.3631C17.8002 17.4947 21.1443 20.856 25.2547 20.856C25.7561 20.856 26.2505 20.8054 26.7324 20.7082V38.656C26.7324 39.0744 26.3937 39.4145 25.9774 39.4145H2.20966C1.7934 39.4145 1.45496 39.0744 1.45496 38.656V5.47724C1.45496 5.05884 1.7934 4.71835 2.20966 4.71835H6.11073C6.43483 4.71835 6.69758 4.45424 6.69758 4.12848C6.69758 3.80271 6.43483 3.5386 6.11073 3.5386H2.20966C1.14642 3.5386 0.28125 4.40823 0.28125 5.47724V38.656C0.28125 39.7247 1.14642 40.5943 2.20966 40.5943H25.9777C27.0409 40.5943 27.9061 39.7247 27.9061 38.656V20.3671C28.8406 20.0097 29.7024 19.4643 30.4397 18.7468C31.8337 17.3901 32.6385 15.5711 32.705 13.6248C32.716 13.2993 32.4627 13.0263 32.1386 13.0149C31.817 13.0042 31.5432 13.2585 31.5319 13.5843C31.4382 16.3238 29.6459 18.5858 27.1847 19.375C27.1508 19.383 27.1178 19.3935 27.0867 19.4073C26.5075 19.5824 25.8926 19.6763 25.2547 19.6763C21.7916 19.6763 18.9739 16.8441 18.9739 13.3631C18.9739 9.88214 21.7916 7.04994 25.2547 7.04994C26.585 7.04994 27.8707 7.47264 28.9373 8.24963L24.8937 12.3143L22.972 10.3824ZM18.7566 5.66467C18.7566 5.77326 18.669 5.86129 18.561 5.86129H9.62636C9.51833 5.86129 9.43074 5.77326 9.43074 5.66467V2.8656C9.43074 2.14996 10.0097 1.56806 10.7216 1.56806H17.4657C18.1774 1.56806 18.7566 2.14996 18.7566 2.8656V5.66467ZM31.3796 7.46343C31.5222 7.31988 31.7117 7.24104 31.9131 7.24104C32.1148 7.24104 32.3043 7.32018 32.4471 7.46343C32.7413 7.75914 32.7413 8.24073 32.4471 8.53644L25.4272 15.5922C25.2847 15.7355 25.0951 15.8146 24.8934 15.8146C24.6917 15.8146 24.5022 15.7355 24.3597 15.5922L21.0741 12.2898C20.9316 12.1465 20.8532 11.9561 20.8532 11.7533C20.8532 11.5505 20.9316 11.36 21.0744 11.2168C21.217 11.0735 21.4065 10.9944 21.6082 10.9944C21.8096 10.9944 21.9994 11.0735 22.1419 11.2168L24.4787 13.5656C24.7079 13.7959 25.0793 13.7959 25.3085 13.5656L31.3796 7.46343Z" fill="#6B707F"/>
</svg>
