<svg width="48" height="40" viewBox="0 0 48 40" fill="none" xmlns="http://www.w3.org/2000/svg">
<path d="M39.3656 5.94745H3.79375L0.690689 7.79358V35.2359C0.690689 36.1504 1.42834 36.8919 2.33822 36.8919H40.8211C41.7309 36.8919 42.4686 36.1504 42.4686 35.2359V7.79358L39.3656 5.94745Z" fill="white"/>
<path d="M40.822 0.693024H2.33923C1.42925 0.693024 0.691696 1.43448 0.691696 2.34905V7.79241H42.4696V2.34905C42.4696 1.43448 41.7319 0.693024 40.822 0.693024Z" fill="#E0E0FF"/>
<path d="M31.6107 5.49423C32.2975 5.49423 32.8543 4.93457 32.8543 4.2442C32.8543 3.55383 32.2975 2.99417 31.6107 2.99417C30.9239 2.99417 30.3671 3.55383 30.3671 4.2442C30.3671 4.93457 30.9239 5.49423 31.6107 5.49423Z" fill="#E0E0FF"/>
<path d="M36.7744 5.49423C37.4612 5.49423 38.018 4.93457 38.018 4.2442C38.018 3.55383 37.4612 2.99417 36.7744 2.99417C36.0876 2.99417 35.5309 3.55383 35.5309 4.2442C35.5309 4.93457 36.0876 5.49423 36.7744 5.49423Z" fill="#E0E0FF"/>
<path d="M11.9585 31.4377H10.6021C10.0625 31.4377 9.62509 30.9981 9.62509 30.4557V23.5603H14.4895L12.9122 30.6695C12.8125 31.1184 12.4161 31.4377 11.9585 31.4377Z" fill="white"/>
<path d="M9.33871 18.2039L7.059 18.2041C5.58738 18.2042 4.39456 19.4035 4.39465 20.8827C4.39475 22.362 5.58784 23.561 7.05946 23.5609L9.33917 23.5607L9.33871 18.2039Z" fill="#EBEBFA"/>
<path d="M26.0401 11.945C23.9712 15.3505 20.2728 16.7239 16.2506 16.7242L9.07405 16.7248C8.3719 16.7249 7.8028 17.297 7.8028 18.0028L7.80325 23.4971C7.80335 24.2028 8.37254 24.7748 9.0747 24.7748L16.2512 24.7743C20.2734 24.774 23.9722 26.1467 26.0417 29.5519L26.0401 11.945Z" fill="white"/>
<path d="M11.3945 24.6335L9.36162 24.6337C9.36419 24.6337 9.36668 24.6341 9.36934 24.6341L11.4309 24.6339C11.4187 24.6339 11.4067 24.6335 11.3945 24.6335Z" fill="#EBEBFA"/>
<path d="M15.2332 16.7238L9.07398 16.7243C8.37182 16.7244 7.80272 17.2965 7.80272 18.0023L7.80318 23.4966C7.80327 24.2024 8.37247 24.7744 9.07463 24.7744L15.2339 24.774L15.2332 16.7238Z" fill="#E0E0FF"/>
<path d="M26.4077 30.1853C27.2484 30.1852 27.93 29.5001 27.9299 28.655L27.9285 12.8444C27.9284 11.9993 27.2468 11.3143 26.406 11.3144C25.5653 11.3145 24.8837 11.9995 24.8838 12.8447L24.8852 28.6553C24.8853 29.5003 25.5668 30.1854 26.4077 30.1853Z" fill="#E0E0FF"/>
<path d="M38.6498 39.307C42.9243 39.307 46.3894 35.824 46.3894 31.5274C46.3894 27.2309 42.9243 23.7479 38.6498 23.7479C34.3753 23.7479 30.9102 27.2309 30.9102 31.5274C30.9102 35.824 34.3753 39.307 38.6498 39.307Z" fill="#E0E0FF"/>
<path d="M23.3478 3.54956H5.0192C4.63768 3.54956 4.32854 3.86029 4.32854 4.24356C4.32854 4.62692 4.63768 4.93756 5.0192 4.93756H23.3478C23.7293 4.93756 24.0384 4.62682 24.0384 4.24356C24.0384 3.86029 23.7293 3.54956 23.3478 3.54956Z" fill="#6B707F"/>
<path d="M39.7252 30.8268C39.6117 30.7865 39.4963 30.7447 39.3806 30.7017V28.3684C39.6233 28.4635 39.7648 28.5831 39.7768 28.5935L39.8439 28.6424C40.1272 28.8487 40.5192 28.8094 40.7563 28.5509C41.0412 28.2404 40.9844 27.7514 40.6406 27.5087C40.2748 27.2505 39.8912 27.0334 39.3806 26.9263V26.5278C39.3806 26.1477 39.0891 25.8161 38.7111 25.8049C38.3199 25.7931 37.9993 26.1083 37.9993 26.4988V26.953C37.9335 26.9688 37.8673 26.986 37.7998 27.0064C36.9613 27.2603 36.3352 27.9799 36.1656 28.8845C35.8839 30.3857 36.7685 31.0808 37.9993 31.637V34.696C37.642 34.6565 37.3872 34.5511 36.9856 34.2894C36.6698 34.0836 36.237 34.1453 36.0201 34.4544C35.7935 34.7772 35.8799 35.2216 36.206 35.436C36.907 35.8969 37.3938 36.0465 37.9993 36.0898V36.5251C37.9993 36.9052 38.2908 37.2368 38.6688 37.248C39.06 37.2598 39.3806 36.9446 39.3806 36.5541V36.0077C41.8313 35.3521 42.3941 31.775 39.7252 30.8268ZM37.523 29.1417C37.5705 28.8881 37.7198 28.5907 37.9993 28.424V30.0787C37.6869 29.8904 37.4164 29.7101 37.523 29.1417ZM39.3806 34.517V32.182C40.4744 32.6582 40.2122 34.0256 39.3806 34.517Z" fill="#6B707F"/>
<path d="M38.6499 23.0526C34.0014 23.0526 30.2196 26.8539 30.2196 31.5263C30.2196 36.1987 34.0015 40 38.6499 40C43.2983 40 47.0802 36.1989 47.0802 31.5264C47.0802 26.8539 43.2983 23.0526 38.6499 23.0526ZM38.6499 38.6117C34.7631 38.6117 31.6009 35.4332 31.6009 31.5264C31.6009 27.6196 34.7631 24.4411 38.6499 24.4411C42.5367 24.4411 45.6989 27.6196 45.6989 31.5264C45.6989 35.4332 42.5366 38.6117 38.6499 38.6117Z" fill="#6B707F"/>
<path d="M29.5016 36.1977H2.33829C1.81066 36.1977 1.38142 35.7662 1.38142 35.2359V8.48784H41.778V21.5928C41.778 21.9762 42.0871 22.287 42.4687 22.287C42.8502 22.287 43.1593 21.9762 43.1593 21.5928C43.1593 19.3778 43.1593 4.86138 43.1593 2.35032C43.1593 1.05441 42.1103 0 40.821 0H2.33829C1.04901 0 0 1.05431 0 2.35032V35.2359C0 36.5318 1.04901 37.5862 2.33829 37.5862H29.5016C29.8832 37.5862 30.1923 37.2755 30.1923 36.892C30.1924 36.5085 29.8832 36.1977 29.5016 36.1977ZM1.38142 2.35032C1.38142 1.81998 1.81066 1.38853 2.33829 1.38853H40.821C41.3487 1.38853 41.7779 1.81998 41.7779 2.35032V7.09931H1.38142V2.35032Z" fill="#6B707F"/>
<path d="M31.6107 2.29956C30.544 2.29956 29.6763 3.1717 29.6763 4.24385C29.6763 5.31591 30.544 6.18805 31.6107 6.18805C32.6773 6.18805 33.5449 5.31591 33.5449 4.24385C33.5449 3.1717 32.6773 2.29956 31.6107 2.29956ZM31.6107 4.79952C31.3058 4.79952 31.0578 4.55024 31.0578 4.24385C31.0578 3.93736 31.3058 3.68809 31.6107 3.68809C31.9155 3.68809 32.1635 3.93736 32.1635 4.24385C32.1635 4.55015 31.9155 4.79952 31.6107 4.79952Z" fill="#6B707F"/>
<path d="M36.7744 2.29956C35.7078 2.29956 34.8401 3.1717 34.8401 4.24385C34.8401 5.31591 35.7078 6.18805 36.7744 6.18805C37.841 6.18805 38.7086 5.31591 38.7086 4.24385C38.7086 3.1717 37.841 2.29956 36.7744 2.29956ZM36.7744 4.79952C36.4695 4.79952 36.2215 4.55024 36.2215 4.24385C36.2215 3.93736 36.4695 3.68809 36.7744 3.68809C37.0792 3.68809 37.3272 3.93736 37.3272 4.24385C37.3272 4.55015 37.0792 4.79952 36.7744 4.79952Z" fill="#6B707F"/>
<path d="M10.6019 32.1321H11.9584C12.7456 32.1321 13.4149 31.5928 13.5862 30.8207L14.7735 25.4693H15.2339L16.2512 25.4692H16.2525C18.6034 25.4692 21.8598 25.9691 24.1944 28.3096V28.6543C24.1944 29.8837 25.1843 30.8789 26.4077 30.8787C27.6278 30.8786 28.6205 29.8806 28.6205 28.654L28.6191 12.8436C28.6191 11.6142 27.6292 10.6191 26.4058 10.6193C25.1828 10.6194 24.1928 11.6143 24.193 12.8439V13.189C21.8582 15.5303 18.6013 16.0304 16.2503 16.0306L9.07367 16.0312C8.16186 16.0313 7.39561 16.6609 7.17658 17.5096H7.05869C5.20859 17.5097 3.70358 19.0227 3.70367 20.8824C3.70386 22.746 5.2039 24.2548 7.05869 24.2548H7.05915H7.2632C7.542 24.926 8.17979 25.4086 8.934 25.4628V30.456C8.93418 31.38 9.68241 32.1321 10.6019 32.1321ZM12.2379 30.5185C12.2085 30.651 12.0936 30.7435 11.9584 30.7435H10.6019C10.4441 30.7435 10.3156 30.6144 10.3156 30.4557V25.4696L13.3581 25.4693L12.2379 30.5185ZM26.4061 12.0077C26.8656 12.0077 27.2377 12.3814 27.2377 12.8436L27.2392 28.654C27.2392 29.115 26.8661 29.49 26.4076 29.49C25.948 29.49 25.5759 29.1164 25.5759 28.6541L25.5745 12.8436C25.5745 12.3816 25.9464 12.0077 26.4061 12.0077ZM16.2507 17.419C19.4374 17.4188 22.1488 16.5966 24.1933 15.0277L24.1943 26.4706C22.1499 24.9022 19.4389 24.0806 16.2526 24.0806C16.2521 24.0806 16.2516 24.0806 16.251 24.0806H15.9244L15.9239 17.419H16.2507ZM7.05925 22.8661C7.05915 22.8661 7.05906 22.8661 7.05897 22.8661C5.96831 22.8661 5.08528 21.9788 5.08528 20.8822C5.08519 19.7881 5.97061 18.8981 7.05897 18.898H7.11212L7.11249 22.8661H7.05925ZM8.49391 23.4883L8.49345 18.205C8.49345 18.2045 8.49354 18.2039 8.49354 18.2035C8.49354 18.203 8.49345 18.2025 8.49345 18.202V18.0031C8.49345 17.6813 8.75386 17.4194 9.07404 17.4194L14.5425 17.419L14.5431 24.0806C12.2834 24.0808 10.0149 24.081 9.07459 24.0811C8.50356 24.0812 8.49823 23.4975 8.49391 23.4883Z" fill="#6B707F"/>
</svg>
