<svg width="37" height="37" viewBox="0 0 37 37" fill="none" xmlns="http://www.w3.org/2000/svg">
<path d="M35.7227 5.16919V33.9337C35.7227 35.1047 34.7783 36.054 33.6133 36.054H2.88672C1.72171 36.054 0.777344 35.1047 0.777344 33.9337V5.16919H35.7227Z" fill="white"/>
<path d="M33.6133 0.928955H2.88672C1.72171 0.928955 0.777344 1.87819 0.777344 3.04919V5.16943H35.7227V3.04919C35.7227 1.87819 34.7783 0.928955 33.6133 0.928955Z" fill="#6B707F"/>
<path d="M33.6133 0.928955H31.5039C32.6689 0.928955 33.6133 1.87819 33.6133 3.04919V5.16943H35.7227V3.04919C35.7227 1.87819 34.7783 0.928955 33.6133 0.928955Z" fill="#6B707F"/>
<path d="M18.25 29.0978C24.2354 29.0978 29.0876 24.2207 29.0876 18.2044C29.0876 12.1882 24.2354 7.3111 18.25 7.3111C12.2646 7.3111 7.41248 12.1882 7.41248 18.2044C7.41248 24.2207 12.2646 29.0978 18.25 29.0978Z" fill="white"/>
<path d="M23.0174 23.8603L21.074 23.447L19.6372 23.3658C19.1421 23.2604 18.7879 22.8212 18.7879 22.3126V20.0562H17.7123V22.3126C17.7123 22.8212 17.358 23.2605 16.863 23.3658L15.4262 23.447L13.4828 23.8603C12.2332 24.1261 11.2831 25.1009 11.0128 26.3122C12.9317 28.0439 15.4683 29.0978 18.2502 29.0978C21.032 29.0978 23.5686 28.0439 25.4875 26.3122C25.2171 25.1009 24.2669 24.1261 23.0174 23.8603Z" fill="#E0E0FF"/>
<path d="M15.4262 23.4463C16.0315 24.3668 17.07 24.9744 18.2501 24.9744C19.4303 24.9744 20.4686 24.3668 21.074 23.4463L19.6373 23.3651C19.1421 23.2598 18.7879 22.8206 18.7879 22.3121V20.0562H16.6576V22.3121C16.6576 22.8206 16.3034 23.2599 15.8083 23.3651L15.4262 23.4463Z" fill="#EBEBFA"/>
<path d="M18.5825 24.4259L19.6764 24.6586C20.2463 24.3916 20.7301 23.9701 21.074 23.4471L21.0584 23.4437L20.6919 23.3658C20.1968 23.2605 19.8426 22.8212 19.8426 22.3126V20.0562H17.7332V23.3727C17.7332 23.8814 18.0874 24.3206 18.5825 24.4259Z" fill="#EBEBFA"/>
<path d="M22.3191 16.3265H14.181V11.6319C14.181 10.7401 14.9003 10.0172 15.7875 10.0172H20.7128C21.5999 10.0172 22.319 10.74 22.319 11.6316V16.3265H22.3191Z" fill="#E0E0FF"/>
<path d="M22.319 15.1389C21.9708 15.038 21.3979 14.8236 20.8198 14.3537C20.3125 13.9412 19.9935 13.4883 19.8022 13.1547C19.7441 13.0534 19.609 13.0304 19.5216 13.1074C19.1366 13.4464 18.6533 13.8085 18.0622 14.1328C16.5167 14.9808 15.042 15.1269 14.181 15.1389V17.7598C14.181 19.4591 15.2017 20.9176 16.6575 21.5437C17.1466 21.7541 18.2226 21.6501 18.2226 21.6501C18.7844 21.6501 19.347 21.7554 19.8338 21.5474C21.2942 20.9234 22.319 19.4625 22.319 17.7598V15.1389H22.319Z" fill="white"/>
<path d="M22.8164 17.0793H22.319V15.1389H22.8164C23.3481 15.1389 23.7792 15.5721 23.7792 16.1066V16.1115C23.7792 16.6461 23.3481 17.0793 22.8164 17.0793Z" fill="#FFCEBF"/>
<path d="M13.6836 17.0793H14.181V15.1389H13.6836C13.1518 15.1389 12.7208 15.5721 12.7208 16.1066V16.1115C12.7208 16.6461 13.1518 17.0793 13.6836 17.0793Z" fill="#FFB09E"/>
<path d="M20.2131 17.6573C20.5044 17.6573 20.7405 17.4199 20.7405 17.1272V16.3339C20.7405 16.0412 20.5044 15.8038 20.2131 15.8038C19.9219 15.8038 19.6858 16.0412 19.6858 16.3339V17.1272C19.6858 17.4199 19.9219 17.6573 20.2131 17.6573ZM16.2867 15.8038C15.9955 15.8038 15.7594 16.0412 15.7594 16.3339V17.1272C15.7594 17.4199 15.9955 17.6573 16.2867 17.6573C16.578 17.6573 16.8141 17.4199 16.8141 17.1272V16.3339C16.8141 16.0412 16.578 15.8038 16.2867 15.8038ZM31.4245 33.4036H8.00455C7.71332 33.4036 7.47721 33.641 7.47721 33.9337C7.47721 34.2264 7.71332 34.4637 8.00455 34.4637H31.4245C31.7157 34.4637 31.9518 34.2264 31.9518 33.9337C31.9518 33.641 31.7157 33.4036 31.4245 33.4036ZM8.00455 31.9284H22.478C22.7692 31.9284 23.0053 31.6911 23.0053 31.3984C23.0053 31.1056 22.7692 30.8683 22.478 30.8683H8.00455C7.71332 30.8683 7.47721 31.1056 7.47721 31.3984C7.47721 31.6911 7.71332 31.9284 8.00455 31.9284ZM24.4116 31.3984C24.4116 31.6911 24.6477 31.9284 24.9389 31.9284H31.4245C31.7157 31.9284 31.9518 31.6911 31.9518 31.3984C31.9518 31.1056 31.7157 30.8683 31.4245 30.8683H24.9389C24.6477 30.8683 24.4116 31.1056 24.4116 31.3984ZM5.07555 34.4637C5.36678 34.4637 5.60289 34.2264 5.60289 33.9337C5.60289 33.641 5.36678 33.4036 5.07555 33.4036C4.78431 33.4036 4.5482 33.641 4.5482 33.9337C4.5482 34.2264 4.78431 34.4637 5.07555 34.4637ZM7.44705 2.51886C7.15581 2.51886 6.9197 2.75618 6.9197 3.04892C6.9197 3.34165 7.15581 3.57897 7.44705 3.57897C7.73828 3.57897 7.97439 3.34165 7.97439 3.04892C7.97439 2.75618 7.73828 2.51886 7.44705 2.51886ZM33.6133 0.398621H2.88672C1.4328 0.398621 0.25 1.58751 0.25 3.04892V33.9337C0.25 35.3951 1.4328 36.584 2.88672 36.584H33.6133C35.0672 36.584 36.25 35.3951 36.25 33.9337V3.04892C36.25 1.58751 35.0672 0.398621 33.6133 0.398621ZM35.1953 33.9337C35.1953 34.8105 34.4856 35.5239 33.6133 35.5239H2.88672C2.01435 35.5239 1.30469 34.8105 1.30469 33.9337V5.69921H35.1953V33.9337ZM35.1953 4.63909H1.30469V3.04892C1.30469 2.17206 2.01435 1.45874 2.88672 1.45874H33.6133C34.4856 1.45874 35.1953 2.17206 35.1953 3.04892V4.63909ZM5.33767 2.51886C5.04644 2.51886 4.81033 2.75618 4.81033 3.04892C4.81033 3.34165 5.04644 3.57897 5.33767 3.57897C5.62891 3.57897 5.86502 3.34165 5.86502 3.04892C5.86502 2.75618 5.62891 2.51886 5.33767 2.51886ZM5.07555 31.9284C5.36678 31.9284 5.60289 31.6911 5.60289 31.3984C5.60289 31.1056 5.36678 30.8683 5.07555 30.8683C4.78431 30.8683 4.5482 31.1056 4.5482 31.3984C4.5482 31.6912 4.78431 31.9284 5.07555 31.9284ZM18.25 29.6279C24.4355 29.6279 29.6149 24.4979 29.6149 18.2045C29.6149 11.9056 24.5166 6.7811 18.25 6.7811C16.9214 6.7811 15.6198 7.00952 14.3814 7.46007C14.1075 7.55972 13.9659 7.86362 14.065 8.1389C14.1641 8.41417 14.4663 8.55665 14.7404 8.45693C15.8632 8.04836 17.0441 7.84121 18.2499 7.84121C23.935 7.84121 28.5601 12.4902 28.5601 18.2045C28.5601 20.9748 27.473 23.4946 25.7052 25.3558C25.2043 24.339 24.2598 23.583 23.1263 23.3419L20.8011 22.8472C20.5512 22.794 20.3699 22.5692 20.3699 22.3127V21.8755C21.8399 21.1004 22.8463 19.547 22.8463 17.7599V17.608C23.6541 17.5918 24.3065 16.9274 24.3065 16.1067C24.3065 15.291 23.6541 14.6267 22.8463 14.6104V11.6316C22.8463 10.4491 21.8892 9.48708 20.7127 9.48708H15.7874C14.6108 9.48708 13.6536 10.4492 13.6536 11.632V14.6105C12.8458 14.6267 12.1934 15.2911 12.1934 16.1117C12.1934 16.9275 12.8458 17.5918 13.6536 17.608V17.7599C13.6536 19.5471 14.66 21.1005 16.1301 21.8756V22.3127C16.1301 22.5692 15.9487 22.794 15.6989 22.8472L13.3737 23.3419C12.2401 23.583 11.2957 24.339 10.7947 25.3558C9.0269 23.4946 7.9398 20.9747 7.9398 18.2045C7.9398 14.6925 9.6884 11.4471 12.6173 9.52299C12.861 9.36284 12.9295 9.03434 12.7702 8.78931C12.6109 8.54421 12.2839 8.47531 12.0403 8.6356C8.81231 10.7562 6.88511 14.3334 6.88511 18.2045C6.88511 24.5004 12.0754 29.6279 18.25 29.6279ZM22.8463 15.6701C23.0725 15.6857 23.2519 15.8758 23.2519 16.1117C23.2519 16.3429 23.0726 16.5328 22.8463 16.5484V15.6701ZM13.6536 16.5484C13.4274 16.5328 13.248 16.3427 13.248 16.1067C13.248 15.8755 13.4273 15.6856 13.6536 15.67V16.5484ZM14.7083 11.6319C14.7083 11.0338 15.1924 10.5471 15.7874 10.5471H20.7127C21.3076 10.5471 21.7916 11.0336 21.7916 11.6316V14.3609C21.5655 14.244 21.3514 14.1043 21.1514 13.9416C20.7918 13.6492 20.4916 13.2955 20.259 12.8901C20.1521 12.7036 19.9696 12.5764 19.7586 12.5412C19.5478 12.5061 19.3347 12.5672 19.174 12.7087C18.7537 13.0788 18.2946 13.4015 17.8095 13.6676C16.871 14.1825 15.8083 14.4948 14.7083 14.5831V11.6319ZM14.7083 17.7599V15.6469C15.9854 15.5561 17.2227 15.1974 18.3148 14.5983C18.7517 14.3585 19.17 14.0787 19.5623 13.7641C19.8222 14.1409 20.1324 14.4768 20.4881 14.766C20.8833 15.0873 21.3204 15.3401 21.7916 15.5204V17.7599C21.7916 19.7343 20.2029 21.3405 18.2499 21.3405C16.2971 21.3405 14.7083 19.7343 14.7083 17.7599ZM20.1467 23.7196C19.6301 24.182 18.9595 24.4454 18.25 24.4454C17.5405 24.4454 16.8699 24.1819 16.3533 23.7196C16.853 23.4424 17.1848 22.9071 17.1848 22.3127V22.2735C17.5269 22.3558 17.8832 22.4006 18.2499 22.4006C18.6167 22.4006 18.973 22.3557 19.3152 22.2734V22.3126C19.3152 22.9071 19.647 23.4424 20.1467 23.7196ZM13.592 24.3791L15.2039 24.0361C15.9435 24.9615 17.0564 25.5055 18.25 25.5055C19.4436 25.5055 20.5565 24.9615 21.2961 24.0361L22.9081 24.3791C23.8313 24.5754 24.5788 25.2478 24.8859 26.1292C23.0913 27.6499 20.7755 28.5678 18.25 28.5678C15.7245 28.5678 13.4087 27.6498 11.6141 26.1292C11.9212 25.2478 12.6687 24.5754 13.592 24.3791ZM3.2283 2.51886C2.93706 2.51886 2.70095 2.75618 2.70095 3.04892C2.70095 3.34165 2.93706 3.57897 3.2283 3.57897C3.51953 3.57897 3.75564 3.34165 3.75564 3.04892C3.75564 2.75618 3.51953 2.51886 3.2283 2.51886ZM19.2898 20.3175C19.5448 20.1763 19.6377 19.8538 19.4971 19.5975C19.3564 19.3412 19.0357 19.2477 18.7807 19.3892C18.6649 19.4533 18.4777 19.5282 18.2385 19.5268C18.0103 19.5244 17.8302 19.4506 17.7192 19.3891C17.4641 19.2478 17.1434 19.3411 17.0029 19.5975C16.8623 19.8539 16.9551 20.1763 17.2102 20.3175C17.5281 20.4936 17.8882 20.5869 18.2501 20.5869C18.7067 20.5869 19.0668 20.441 19.2898 20.3175Z" fill="#6B707F"/>
</svg>
