<svg width="70" height="71" viewBox="0 0 70 71" fill="none" xmlns="http://www.w3.org/2000/svg">
<path fill-rule="evenodd" clip-rule="evenodd" d="M51.7242 18.984C62.6908 22.1485 70 28.3785 70 35.7081C70 16.4085 54.2996 0.70813 35 0.70813C42.3267 0.70813 48.5596 8.01438 51.7242 18.984ZM48.125 35.7081C48.125 40.051 47.6817 44.0585 46.9204 47.6285C43.3504 48.3898 39.3429 48.8331 35 48.8331C30.6571 48.8331 26.6496 48.3898 23.0796 47.6285C22.3184 44.0585 21.875 40.051 21.875 35.7081C21.875 31.3652 22.3184 27.3577 23.0796 23.7877C26.6496 23.0265 30.6571 22.5831 35 22.5831C39.3429 22.5831 43.3504 23.0265 46.9204 23.7877C47.6817 27.3577 48.125 31.3652 48.125 35.7081ZM53.1767 45.8029C60.0367 43.2129 64.1667 39.3454 64.1667 35.7083C64.1667 32.0712 60.0367 28.2037 53.1767 25.6137C53.6813 28.8016 53.9583 32.1821 53.9583 35.7083C53.9583 39.2346 53.6813 42.615 53.1767 45.8029ZM18.2758 52.4323C7.30918 49.2677 1.52588e-05 43.0377 1.52588e-05 35.7081C1.52588e-05 55.0077 15.7004 70.7081 35 70.7081C54.2996 70.7081 70 55.0077 70 35.7081C70 43.0377 62.6908 49.2677 51.7242 52.4323C48.5596 63.4019 42.3267 70.7081 35 70.7081C27.6733 70.7081 21.4404 63.4019 18.2758 52.4323ZM35 0.708247C27.6734 0.708247 21.4404 8.0145 18.2759 18.9841C7.3092 22.1487 3.15814e-05 28.3787 3.15814e-05 35.7082C3.15814e-05 16.4087 15.7004 0.708247 35 0.708247ZM24.9054 53.8843C28.0933 54.3889 31.4738 54.666 35 54.666C38.5263 54.666 41.9067 54.3889 45.0946 53.8843C42.5046 60.7443 38.6371 64.8743 35 64.8743C31.3629 64.8743 27.4954 60.7443 24.9054 53.8843ZM45.0946 17.5315C42.5046 10.6715 38.6371 6.54146 35 6.54146C31.3629 6.54146 27.4954 10.6715 24.9054 17.5315C28.0933 17.0269 31.4738 16.7498 35 16.7498C38.5263 16.7498 41.9067 17.0269 45.0946 17.5315ZM5.83336 35.7083C5.83336 32.0712 9.96336 28.2037 16.8234 25.6137C16.3188 28.8016 16.0417 32.1821 16.0417 35.7083C16.0417 39.2346 16.3188 42.615 16.8234 45.8029C9.96336 43.2129 5.83336 39.3454 5.83336 35.7083Z" fill="#1D3846"/>
</svg>
