<svg width="70" height="71" viewBox="0 0 70 71" fill="none" xmlns="http://www.w3.org/2000/svg">
<path d="M54.9995 20.354C54.9995 18.283 53.3206 16.604 51.2495 16.604C49.1793 16.6062 47.5018 18.2839 47.4995 20.354C47.4995 22.4251 49.1783 24.1041 51.2495 24.1041C53.3206 24.1041 54.9995 22.4251 54.9995 20.354Z" fill="#1D3846"/>
<path d="M41.0881 49.2817C39.3162 48.7405 37.415 49.5773 36.6171 51.2493C36.3746 51.7494 36.249 52.2981 36.2496 52.854C36.2487 53.9449 36.7239 54.9819 37.5509 55.6934C38.2278 56.287 39.0994 56.6111 39.9997 56.604C41.8523 56.6017 43.4246 55.2442 43.6969 53.4117C43.9694 51.579 42.8601 49.8228 41.0881 49.2817Z" fill="#1D3846"/>
<path d="M21.5851 15.8956C29.6504 13.994 38.09 14.4238 45.9203 17.1349C46.6971 15.8553 47.9081 14.8974 49.3325 14.4363C48.6129 10.1068 47.2872 5.90012 45.3944 1.94048C44.9809 1.81183 44.5631 1.6989 44.1452 1.58584C43.7792 1.48685 43.416 1.37666 43.0468 1.2897C42.5198 1.16556 41.9861 1.07109 41.4533 0.971834C41.1026 0.906482 40.7549 0.827049 40.402 0.772362C39.8113 0.680897 39.2142 0.622792 38.618 0.561542C38.3168 0.530644 38.0185 0.483203 37.7159 0.460097C36.8152 0.391055 35.9096 0.354004 34.9998 0.354004C34.2451 0.354824 33.4927 0.379433 32.7429 0.427558C32.4899 0.443828 32.2393 0.47746 31.9869 0.499199C31.4914 0.541718 30.9954 0.58123 30.5031 0.644667C30.2053 0.682948 29.9111 0.739686 29.6148 0.785623C29.1717 0.854256 28.7277 0.91783 28.2881 1.00328C27.9741 1.06426 27.6645 1.14314 27.3526 1.21273C26.936 1.3057 26.5179 1.39347 26.1054 1.50148C25.786 1.58501 25.4716 1.6855 25.1549 1.77806C24.7561 1.89454 24.356 2.00693 23.9617 2.13749C23.642 2.24331 23.3283 2.36513 23.012 2.48011C22.6284 2.6197 22.2438 2.75587 21.8654 2.90899C21.5486 3.03724 21.2378 3.17983 20.9249 3.31737C20.556 3.47952 20.1862 3.63893 19.8231 3.81393C19.5096 3.96501 19.2025 4.12961 18.8935 4.29026C18.6262 4.4293 18.3594 4.5693 18.0955 4.71545C17.7012 7.20058 17.502 9.71278 17.4998 12.2291C17.4998 12.4805 17.5108 12.7321 17.5151 12.9835C19.2182 13.3447 20.6934 14.4003 21.5851 15.8956Z" fill="#1D3846"/>
<path d="M12.66 18.0195C12.1819 19.6023 12.797 21.3114 14.174 22.2266C15.551 23.1417 17.3649 23.047 18.6391 21.9933C19.9133 20.9396 20.347 19.1758 19.7066 17.6514L19.7033 17.6446L19.7032 17.6425C19.115 16.2563 17.7557 15.3555 16.2499 15.354C14.5963 15.3539 13.1381 16.4367 12.66 18.0195Z" fill="#1D3846"/>
<path d="M44.9997 20.354C45.0085 20.0647 45.0376 19.7763 45.0869 19.4911C37.7931 16.9695 29.9379 16.5465 22.4155 18.2701C22.4625 18.5459 22.4907 18.8245 22.4998 19.1039C22.4915 21.4126 21.2074 23.5273 19.163 24.5996C21.8044 34.1842 27.4125 42.6865 35.1836 48.8876C36.3602 47.4362 38.1314 46.5963 39.9998 46.6039C40.9427 46.6106 41.8719 46.8308 42.7175 47.2481C46.7051 40.9679 49.1304 33.8238 49.7903 26.414C46.9865 25.7411 45.0072 23.2372 44.9997 20.354Z" fill="#1D3846"/>
<path d="M55.5497 24.8679C54.6512 25.7243 53.5169 26.2921 52.293 26.4984C51.6101 34.4247 49.0102 42.0658 44.7174 48.7638C46.2838 50.5447 46.6868 53.0673 45.7533 55.2475C50.5297 57.3232 55.6226 58.5769 60.8167 58.9559C65.2726 54.1158 68.2555 48.1052 69.4156 41.6296C66.363 34.9107 61.5774 29.1255 55.5497 24.8679Z" fill="#1D3846"/>
<path d="M36.842 58.247C32.5157 62.3082 27.4952 65.5594 22.0195 67.8457C26.1438 69.5119 30.5516 70.3636 34.9997 70.3538C43.7082 70.388 52.1093 67.1374 58.527 61.2507C53.6226 60.678 48.8338 59.3626 44.325 57.3499C42.3156 59.2966 39.2545 59.6635 36.842 58.247Z" fill="#1D3846"/>
<path d="M11.0471 15.6279C11.9652 14.2528 13.393 13.2996 15.015 12.9788C15.0111 12.7289 14.9998 12.479 14.9998 12.2291C15.0036 10.2815 15.1205 8.33587 15.3498 6.40186C8.19028 11.2789 3.0833 18.6273 1.00806 27.038C3.739 24.4064 6.80299 22.1439 10.1216 20.3081C9.79603 18.6869 10.1291 17.003 11.0471 15.6279Z" fill="#1D3846"/>
<path d="M48.6555 3.12012C50.1456 6.66426 51.2152 10.3708 51.8426 14.1639C53.8292 14.3421 55.6096 15.4634 56.6284 17.1784C57.6471 18.8933 57.7804 20.9932 56.9866 22.8231C62.3044 26.5825 66.7226 31.474 69.9234 37.1455C69.9539 36.5491 69.9997 35.9559 69.9997 35.3539C70.0266 21.2911 61.6131 8.58488 48.6555 3.12012Z" fill="#1D3846"/>
<path d="M33.7497 52.8539C33.752 52.2728 33.8367 51.6951 34.0014 51.1379C25.637 44.594 19.5943 35.5378 16.763 25.3021C16.5909 25.3164 16.4255 25.354 16.2498 25.354C14.1862 25.3525 12.2565 24.3317 11.0941 22.6267C6.99218 24.934 3.3176 27.9295 0.230917 31.4821C0.184159 31.8799 0.147382 32.2838 0.11539 32.6905C0.0996676 32.8901 0.0761521 33.0843 0.0639841 33.2862C0.0229687 33.9663 0 34.6556 0 35.3539C0.000546873 36.1823 0.029121 37.0047 0.0855856 37.8212C0.103086 38.0753 0.140546 38.3248 0.163515 38.5776C0.214374 39.1372 0.261542 39.6978 0.338241 40.2505C0.38076 40.5566 0.445155 40.8563 0.495604 41.1604C0.577361 41.653 0.651736 42.1479 0.753864 42.6342C0.82195 42.959 0.912184 43.2765 0.989293 43.5982C1.09908 44.0559 1.2008 44.5165 1.32849 44.9678C1.4205 45.2929 1.53384 45.6097 1.63488 45.9313C1.77283 46.37 1.90325 46.8119 2.05802 47.2436C2.17273 47.5637 2.3078 47.8746 2.43181 48.1906C2.59765 48.6134 2.75624 49.0397 2.93835 49.4551C3.07589 49.7688 3.2327 50.0728 3.37926 50.382C3.57135 50.7875 3.75702 51.1963 3.96456 51.5936C4.1252 51.9012 4.30457 52.1982 4.47438 52.5007C4.69121 52.887 4.90162 53.2769 5.13309 53.6545C5.31629 53.9534 5.51726 54.241 5.70949 54.5343C5.95011 54.9012 6.18486 55.272 6.43929 55.6297C6.64505 55.919 6.8679 56.1962 7.08255 56.4794C7.3456 56.826 7.60317 57.1762 7.87934 57.5131C8.10766 57.7917 8.35225 58.0575 8.58946 58.3292C8.87329 58.6541 9.15233 58.9828 9.4486 59.2977C9.69907 59.5636 9.96471 59.8164 10.2239 60.0748C10.5281 60.378 10.8279 60.6852 11.1439 60.9778C11.4165 61.2302 11.7036 61.4688 11.985 61.7129C12.3071 61.9925 12.625 62.2758 12.9582 62.5443C13.2551 62.7836 13.5659 63.0084 13.8716 63.2386C14.2087 63.4925 14.5422 63.7503 14.8898 63.9929C15.2098 64.2161 15.5427 64.4243 15.8712 64.6379C16.2234 64.8668 16.5722 65.0993 16.9342 65.3166C17.2768 65.5221 17.6319 65.7124 17.9831 65.9072C18.2773 66.0706 18.5706 66.2349 18.8708 66.3906C24.8573 64.2595 30.3401 60.9167 34.9765 56.5712C34.1796 55.4958 33.7494 54.1926 33.7497 52.8539Z" fill="#1D3846"/>
</svg>
