<svg width="40" height="40" viewBox="0 0 40 40" fill="none" xmlns="http://www.w3.org/2000/svg">
<g clip-path="url(#clip0)">
<path d="M8.93484 0.597351H28.8011C30.0777 0.597351 31.1127 1.63227 31.1127 2.90899V37.091C31.1127 38.3677 30.0778 39.4027 28.8011 39.4027H2.89758C1.62094 39.4027 0.585938 38.3677 0.585938 37.091V8.94626C0.585938 8.33321 0.829453 7.74516 1.26297 7.31173L7.30023 1.27446C7.73383 0.840945 8.3218 0.597351 8.93484 0.597351Z" fill="#F4FBFF"/>
<path d="M1.26295 7.31165L7.30022 1.27438C7.49788 1.07673 7.72764 0.918602 7.97725 0.805008V6.55563C7.97725 7.34712 7.33561 7.98876 6.54413 7.98876H0.793579C0.907173 7.73907 1.0653 7.5093 1.26295 7.31165Z" fill="#E0E0FF"/>
<path d="M31.5773 24.1517C30.9177 24.1517 30.3812 23.6152 30.3812 22.9556V18.6285C30.3812 18.1147 29.9631 17.6967 29.4494 17.6967H22.8619C22.3481 17.6967 21.9301 18.1147 21.9301 18.6285V22.9556C21.9301 23.6152 21.3935 24.1517 20.734 24.1517C20.0745 24.1517 19.5379 23.6152 19.5379 22.9556V18.6285C19.5379 16.7957 21.029 15.3046 22.8619 15.3046H29.4494C31.2823 15.3046 32.7734 16.7957 32.7734 18.6285V22.9556C32.7734 23.6152 32.2368 24.1517 31.5773 24.1517Z" fill="#E0E0FF"/>
<path d="M36.8379 39.4036H15.4735C14.0508 39.4036 12.8974 38.2502 12.8974 36.8275V23.4271C12.8974 22.0044 14.0508 20.851 15.4735 20.851H36.8379C38.2607 20.851 39.414 22.0044 39.414 23.4271V36.8275C39.414 38.2502 38.2607 39.4036 36.8379 39.4036Z" fill="#EBEBFA"/>
<path d="M36.8379 20.85H15.4735C14.0508 20.85 12.8974 22.0034 12.8974 23.4261V25.2177C12.8974 27.7959 14.9874 29.8858 17.5654 29.8858H34.746C37.3241 29.8858 39.414 27.7958 39.414 25.2177V23.4261C39.414 22.0034 38.2607 20.85 36.8379 20.85Z" fill="#CC9675"/>
<path d="M36.8379 20.85H15.4735C14.0508 20.85 12.8974 22.0034 12.8974 23.4261V25.2177C12.8974 27.7959 14.9874 29.8858 17.5654 29.8858H34.746C37.3241 29.8858 39.414 27.7958 39.414 25.2177V23.4261C39.414 22.0034 38.2607 20.85 36.8379 20.85Z" fill="#E0E0FF"/>
<path d="M19.499 32.9178C18.64 32.9178 17.9436 32.2214 17.9436 31.3624V29.2678C17.9436 28.4088 18.64 27.7124 19.499 27.7124C20.358 27.7124 21.0544 28.4088 21.0544 29.2678V31.3624C21.0544 32.2214 20.3581 32.9178 19.499 32.9178Z" fill="#F4FBFF"/>
<path d="M32.8122 32.9178C31.9532 32.9178 31.2568 32.2214 31.2568 31.3624V29.2678C31.2568 28.4088 31.9532 27.7124 32.8122 27.7124C33.6712 27.7124 34.3676 28.4088 34.3676 29.2678V31.3624C34.3676 32.2214 33.6713 32.9178 32.8122 32.9178Z" fill="#F4FBFF"/>
<path d="M25.6237 3.97296H13.4523C13.1287 3.97296 12.8664 4.23523 12.8664 4.5589C12.8664 4.88257 13.1287 5.14483 13.4523 5.14483H25.6237C25.9474 5.14483 26.2097 4.88257 26.2097 4.5589C26.2097 4.23523 25.9474 3.97296 25.6237 3.97296Z" fill="#6B707F"/>
<path d="M25.6237 7.40283H13.4523C13.1287 7.40283 12.8664 7.6651 12.8664 7.98877C12.8664 8.31244 13.1287 8.57471 13.4523 8.57471H25.6237C25.9474 8.57471 26.2097 8.31244 26.2097 7.98877C26.2097 7.6651 25.9474 7.40283 25.6237 7.40283Z" fill="#6B707F"/>
<path d="M36.838 20.2642H33.3595V18.6284C33.3595 16.4725 31.6055 14.7186 29.4496 14.7186H22.8621C20.7061 14.7186 18.9521 16.4725 18.9521 18.6284V20.2642H15.4736C13.7241 20.2642 12.3115 21.6827 12.3115 23.4263V36.8265C12.3115 38.5701 13.73 39.9886 15.4736 39.9886H36.8381C38.5816 39.9886 40.0002 38.5701 40.0002 36.8265V34.2875C40.0002 33.9638 39.7379 33.7015 39.4143 33.7015C39.0906 33.7015 38.8283 33.9638 38.8283 34.2875V36.8265C38.8283 37.924 37.9355 38.8168 36.8381 38.8168H15.4736C14.3762 38.8168 13.4834 37.924 13.4834 36.8265V28.522C14.4068 29.6605 15.7958 30.4068 17.3579 30.4678V31.3624C17.3579 32.5431 18.3185 33.5037 19.4992 33.5037C20.6799 33.5037 21.6405 32.5431 21.6405 31.3624V30.4718H30.6711V31.3624C30.6711 32.5431 31.6318 33.5037 32.8125 33.5037C33.9932 33.5037 34.9538 32.5431 34.9538 31.3624V30.4678C36.5158 30.4068 37.9049 29.6605 38.8282 28.522V31.5482C38.8282 31.8718 39.0905 32.1341 39.4142 32.1341C39.7378 32.1341 40.0001 31.8718 40.0001 31.5482V23.4261C40.0001 21.6832 38.5882 20.2642 36.838 20.2642ZM20.124 18.6284C20.124 17.1187 21.3523 15.8904 22.8621 15.8904H29.4496C30.9593 15.8904 32.1876 17.1187 32.1876 18.6284V20.2642H30.9674V18.6284C30.9674 17.7916 30.2865 17.1108 29.4496 17.1108H22.8621C22.0252 17.1108 21.3443 17.7916 21.3443 18.6284V20.2642H20.124V18.6284ZM22.5162 20.2642V18.6284C22.5162 18.4378 22.6713 18.2826 22.8621 18.2826H29.4496C29.6403 18.2826 29.7955 18.4377 29.7955 18.6284V20.2642H22.5162ZM20.4686 31.3624C20.4686 31.897 20.0338 32.3318 19.4992 32.3318C18.9646 32.3318 18.5297 31.897 18.5297 31.3624V29.2678C18.5297 28.7332 18.9646 28.2983 19.4992 28.2983C20.0338 28.2983 20.4686 28.7332 20.4686 29.2678V31.3624ZM33.7819 31.3624C33.7819 31.897 33.3471 32.3318 32.8125 32.3318C32.2778 32.3318 31.843 31.897 31.843 31.3624V29.8919C31.843 29.8899 31.8431 29.8879 31.8431 29.8859C31.8431 29.884 31.843 29.8818 31.843 29.8799V29.2679C31.843 28.7333 32.2778 28.2984 32.8125 28.2984C33.3471 28.2984 33.7819 28.7333 33.7819 29.2679V31.3624ZM34.9538 29.2947V29.2679C34.9538 28.0872 33.9932 27.1265 32.8125 27.1265C31.6318 27.1265 30.6711 28.0872 30.6711 29.2679V29.3H21.6405V29.2679C21.6405 28.0872 20.6799 27.1265 19.4992 27.1265C18.3185 27.1265 17.3579 28.0872 17.3579 29.2679V29.2947C15.2031 29.1862 13.4834 27.3991 13.4834 25.2179V23.4261C13.4834 22.3272 14.3741 21.436 15.4736 21.436H36.8381C37.9348 21.436 38.8283 22.3243 38.8283 23.4262V25.2179C38.8282 27.3991 37.1086 29.1862 34.9538 29.2947Z" fill="#6B707F"/>
<path d="M11.556 38.8167H2.89758C1.94602 38.8167 1.17188 38.0426 1.17188 37.091V8.94626C1.17188 8.81977 1.18539 8.6954 1.2118 8.57469H6.54422C7.65758 8.57469 8.56336 7.66891 8.56336 6.55563V1.22321C8.68406 1.19688 8.80844 1.18329 8.93492 1.18329H28.8012C29.7527 1.18329 30.5269 1.95743 30.5269 2.90899V12.9623C30.5269 13.2859 30.7891 13.5482 31.1128 13.5482C31.4365 13.5482 31.6987 13.2859 31.6987 12.9623V2.90899C31.6987 1.31126 30.3989 0.0114136 28.8012 0.0114136H8.93484C8.16086 0.0114136 7.43313 0.312742 6.88586 0.860007L0.848594 6.89735C0.301328 7.44462 0 8.17227 0 8.94626V37.091C0 38.6888 1.29984 39.9886 2.89758 39.9886H11.556C11.8797 39.9886 12.142 39.7263 12.142 39.4027C12.142 39.079 11.8797 38.8167 11.556 38.8167ZM7.39141 2.01196V6.55563C7.39141 7.02274 7.01133 7.40282 6.54414 7.40282H2.00055L7.39141 2.01196Z" fill="#6B707F"/>
</g>
<defs>
<clipPath id="clip0">
<rect width="40" height="40" fill="white"/>
</clipPath>
</defs>
</svg>
