<svg width="40" height="40" viewBox="0 0 40 40" fill="none" xmlns="http://www.w3.org/2000/svg">
<g clip-path="url(#clip0)">
<path d="M19.9998 8.50345C16.8737 8.50345 14.3304 11.0468 14.3304 14.173V17.8802H16.5575C16.5575 17.3473 16.5575 14.7069 16.5575 14.173C16.5575 12.2749 18.1018 10.7306 19.9999 10.7306C21.898 10.7306 23.4423 12.2749 23.4423 14.173V17.8802H25.6694C25.6694 17.3473 25.6694 14.7069 25.6694 14.173C25.6693 11.0468 23.126 8.50345 19.9998 8.50345Z" fill="#EBEBFA"/>
<path d="M26.4528 28.074H13.547C12.7648 28.074 12.1306 27.4399 12.1306 26.6575V17.411C12.1306 16.6288 12.7648 15.9946 13.547 15.9946H26.4527C27.235 15.9946 27.8692 16.6288 27.8692 17.411V26.6575C27.8693 27.4398 27.2351 28.074 26.4528 28.074Z" fill="#E0E0FF"/>
<path opacity="0.5" d="M22.0439 20.5432C22.0439 19.4143 21.1287 18.4991 19.9998 18.4991C18.8709 18.4991 17.9557 19.4143 17.9557 20.5432C17.9557 21.2984 18.3656 21.9574 18.9747 22.3113V24.6683C18.9747 25.2343 19.4337 25.6933 19.9998 25.6933C20.5659 25.6933 21.0249 25.2344 21.0249 24.6683V22.3114C21.634 21.9575 22.0439 21.2984 22.0439 20.5432Z" fill="#EBEBFA"/>
<path d="M35.7255 4.87549C30.8342 4.67189 24.2976 3.44884 20.8692 0.336017C20.6306 0.119297 20.322 0 20 0C19.6781 0 19.3695 0.119297 19.1308 0.335939C16.3392 2.87079 10.6465 4.61025 4.27432 4.87549C3.57862 4.90447 3.03369 5.47221 3.03369 6.16799V14.2683C3.03369 14.5919 3.29596 14.8543 3.61963 14.8543C3.9433 14.8543 4.20557 14.5919 4.20557 14.2683V6.16799C4.20557 6.10252 4.25713 6.04916 4.32299 6.04635C11.0576 5.76604 16.8877 3.95564 19.9185 1.20352C19.9652 1.16118 20.0349 1.16125 20.0813 1.20352C23.7698 4.55244 30.6355 5.83643 35.6769 6.04635C35.7427 6.04909 35.7943 6.10252 35.7943 6.16799V19.546C35.7943 26.0446 32.2827 32.0729 26.6298 35.2786L20.6922 38.6457C20.2707 38.8848 19.7291 38.8847 19.3076 38.6457L13.37 35.2786C7.71715 32.0729 4.20557 26.0446 4.20557 19.546V17.0027C4.20557 16.6791 3.9433 16.4168 3.61963 16.4168C3.29596 16.4168 3.03369 16.6791 3.03369 17.0027V19.546C3.03369 26.4657 6.77285 32.8846 12.792 36.298L18.7296 39.6651C19.5148 40.1103 20.48 40.1131 21.2702 39.6651L27.2078 36.298C33.227 32.8847 36.9662 26.4657 36.9662 19.546V6.16799C36.9662 5.47213 36.4212 4.90439 35.7255 4.87549Z" fill="#6B707F"/>
<path d="M13.547 28.66H22.3903C22.7139 28.66 22.9762 28.3977 22.9762 28.0741C22.9762 27.7505 22.7139 27.4881 22.3903 27.4881H13.547C13.0891 27.4881 12.7165 27.1156 12.7165 26.6576V17.4111C12.7165 16.9531 13.0891 16.5805 13.547 16.5805H26.4528C26.9108 16.5805 27.2833 16.9531 27.2833 17.4111V26.6576C27.2833 27.1156 26.9108 27.4881 26.4528 27.4881H25.1247C24.801 27.4881 24.5387 27.7505 24.5387 28.0741C24.5387 28.3977 24.801 28.66 25.1247 28.66H26.4528C27.5569 28.66 28.4552 27.7617 28.4552 26.6576V17.4111C28.4552 16.3069 27.5569 15.4086 26.4528 15.4086H26.2554V14.173C26.2554 10.7237 23.4492 7.91751 19.9999 7.91751C16.5507 7.91751 13.7445 10.7237 13.7445 14.173V15.4086H13.5471C12.443 15.4086 11.5447 16.3069 11.5447 17.4111V26.6576C11.5447 27.7617 12.443 28.66 13.547 28.66ZM22.8564 15.4086H17.1435V14.173C17.1435 12.5979 18.4249 11.3165 20 11.3165C21.5751 11.3165 22.8565 12.5979 22.8565 14.173V15.4086H22.8564ZM14.9164 14.173C14.9164 11.3699 17.1969 9.08939 19.9999 9.08939C22.803 9.08939 25.0835 11.3699 25.0835 14.173V15.4086H24.0282V14.173C24.0282 11.9517 22.2211 10.1446 19.9999 10.1446C17.7786 10.1446 15.9715 11.9517 15.9715 14.173V15.4086H14.9164V14.173Z" fill="#6B707F"/>
<path d="M19.9998 26.2793C20.8881 26.2793 21.6108 25.5567 21.6108 24.6683V22.6212C22.2466 22.1269 22.6298 21.3586 22.6298 20.5432C22.6298 19.093 21.45 17.9132 19.9998 17.9132C18.5497 17.9132 17.3698 19.093 17.3698 20.5432C17.3698 21.3744 17.7539 22.129 18.3888 22.6214V24.6683C18.3888 25.5566 19.1115 26.2793 19.9998 26.2793ZM19.9998 19.0851C20.8038 19.0851 21.4579 19.7393 21.4579 20.5433C21.4579 21.0608 21.1793 21.5441 20.7305 21.8047C20.55 21.9096 20.4389 22.1026 20.4389 22.3114V24.6683C20.4389 24.9104 20.242 25.1075 19.9998 25.1075C19.7576 25.1075 19.5607 24.9105 19.5607 24.6683V22.3114C19.5607 22.1026 19.4496 21.9096 19.2691 21.8047C18.8352 21.5527 18.5417 21.0851 18.5417 20.5433C18.5417 19.7392 19.1958 19.0851 19.9998 19.0851Z" fill="#6B707F"/>
<path d="M14.332 33.7158L19.3877 36.5828C19.7651 36.7969 20.2341 36.7971 20.6118 36.5829L25.6677 33.7158C30.7693 30.8228 33.9383 25.3824 33.9383 19.5177V8.93642C33.9383 8.30587 33.4661 7.77618 32.8399 7.70438C27.9646 7.14524 23.7482 5.8439 20.6469 3.94093C20.2477 3.69608 19.7519 3.69616 19.353 3.94093C16.2515 5.8439 12.0351 7.14524 7.15972 7.70438C6.53355 7.77618 6.06128 8.30579 6.06128 8.93642V19.5177C6.06136 25.3824 9.23043 30.8228 14.332 33.7158ZM7.23324 8.93642C7.23324 8.90173 7.25902 8.87259 7.29332 8.8686C12.3374 8.29016 16.7195 6.93156 19.9659 4.93976C19.987 4.92679 20.0132 4.92687 20.0341 4.93976C23.2803 6.93156 27.6623 8.29016 32.7065 8.8686C32.7407 8.87251 32.7665 8.90165 32.7665 8.93634V19.5176C32.7665 24.9612 29.825 30.011 25.0897 32.6964L20.0337 35.5635C20.0127 35.5753 19.9869 35.5753 19.9659 35.5634L14.9101 32.6964C10.1749 30.011 7.23324 24.9612 7.23324 19.5176V8.93642Z" fill="#6B707F"/>
</g>
<defs>
<clipPath id="clip0">
<rect width="40" height="40" fill="white"/>
</clipPath>
</defs>
</svg>
