<svg width="138" height="221" viewBox="0 0 138 221" fill="none" xmlns="http://www.w3.org/2000/svg">
<g clip-path="url(#clip0)">
<path d="M48.4522 104.078C48.4522 104.078 79.7205 173.835 28.5541 173.835C-22.5939 173.835 10.5634 101.708 10.5634 101.708C10.5634 101.708 -1.28372 96.4906 12.4523 57.5795C26.1884 18.6685 32.332 18.6685 38.0355 18.6685C45.2428 18.6685 51.955 35.5152 47.04 61.3641C47.04 61.3641 65.0308 93.643 48.4522 104.078Z" fill="#CFD4E6"/>
<path d="M24.0244 220.076L28.9576 115.009L33.8909 220.076H24.0244Z" fill="#C2C4CC"/>
<path d="M26.9587 159.064L45.5363 137.312L30.9566 161.949L26.9587 159.064Z" fill="#C2C4CC"/>
<path d="M76.7862 100.863C76.7862 100.863 60.7577 94.4879 48.0303 116.662C34.9912 139.406 51.3314 154.379 64.3156 145.469C64.3156 145.469 74.4938 166.872 94.8503 161.783C115.207 156.694 118.508 140.38 118.508 140.38C118.508 140.38 136.554 141.629 137.067 128.126C137.581 114.623 124.34 102.645 124.34 102.645C124.34 102.645 123.569 69.0065 101.691 69.2637C79.8305 69.5209 76.7862 100.863 76.7862 100.863Z" fill="#E1E7F7"/>
<path d="M91.6593 220.076L96.2441 119.969L100.811 220.076H91.6593Z" fill="#C2C4CC"/>
<path d="M94.2818 156.382L80.8391 129.504L98.2064 154.03L94.2818 156.382Z" fill="#C2C4CC"/>
</g>
<defs>
<clipPath id="clip0">
<rect width="137.085" height="220" fill="white" transform="matrix(-1 0 0 1 137.085 0.0761719)"/>
</clipPath>
</defs>
</svg>
