<svg width="37" height="51" viewBox="0 0 37 51" fill="none" xmlns="http://www.w3.org/2000/svg">
<g clip-path="url(#clip0)">
<path d="M18.2869 0.115805C15.9879 1.11423 14.2932 3.24245 13.4393 5.60713C12.5854 7.97182 12.5197 10.5467 12.7956 13.0428C13.3473 17.8641 16.0798 22.738 19.0357 26.5872C23.0951 23.0401 24.0278 16.8525 24.3037 13.6865C24.7504 8.68123 22.5039 -0.633013 18.2869 0.115805Z" fill="#E1E2E6"/>
<path d="M14.3195 34.5484C14.9632 31.8159 13.8334 28.8338 11.7446 26.9683C9.65579 25.1028 6.7262 24.3146 3.92799 24.5248C2.64055 24.6299 1.23487 24.9977 0.49919 26.0618C-0.197079 27.0603 -0.118255 28.4397 0.446643 29.5169C1.01154 30.5942 1.98369 31.3955 3.00839 32.0392C6.52914 34.2463 10.3389 35.7439 14.3195 34.5484Z" fill="#E1E2E6"/>
<path d="M19.5218 49.3275C19.5481 49.3275 19.4955 48.9728 19.3773 48.3422C19.2459 47.646 19.0883 46.7395 18.8912 45.6623C18.4445 43.4289 17.8665 40.2235 16.1324 37.11C14.4114 34.0096 12.0205 31.7237 9.99735 30.5808C8.99892 30.0028 8.11874 29.6481 7.48815 29.4773C7.186 29.3722 6.93639 29.3328 6.76561 29.2934C6.59482 29.254 6.516 29.2408 6.50287 29.2539C6.47659 29.3328 7.90854 29.5955 9.85284 30.791C11.8103 31.9602 14.1224 34.2198 15.8171 37.2808C17.5249 40.3286 18.1292 43.4946 18.6416 45.7148C18.8912 46.8315 19.0883 47.7511 19.2459 48.3685C19.4035 48.9991 19.5086 49.3407 19.5218 49.3275Z" fill="#B6B8BF"/>
<path d="M19.3773 7.35449C19.3641 7.35449 19.351 7.499 19.3247 7.78802C19.3116 8.10331 19.2853 8.5237 19.2459 9.03605C19.1934 10.1133 19.1277 11.6766 19.062 13.6078C18.9306 17.4701 18.8387 22.8169 18.8649 28.7155C18.8912 34.6141 19.0357 39.9609 19.1934 43.8232C19.2722 45.7544 19.351 47.3177 19.4167 48.395C19.4561 48.9073 19.4824 49.3146 19.4955 49.643C19.5218 49.932 19.5349 50.0765 19.5481 50.0765C19.5612 50.0765 19.5612 49.932 19.5612 49.643C19.5612 49.3277 19.5481 48.9073 19.5481 48.395C19.5218 47.2652 19.4824 45.715 19.443 43.8232C19.351 39.9609 19.2459 34.6272 19.2196 28.7286C19.1934 22.8301 19.259 17.4964 19.3116 13.634C19.3379 11.7292 19.3641 10.179 19.3773 9.06232C19.3773 8.54997 19.3773 8.14272 19.3904 7.81429C19.3904 7.51214 19.3904 7.36763 19.3773 7.35449Z" fill="#B6B8BF"/>
<path d="M21.3478 37.4778C22.2674 31.6449 26.2086 26.3638 31.5291 23.8151C32.8823 23.1714 34.6558 22.7379 35.7724 23.7495C36.8891 24.761 36.6395 26.5739 36.0877 27.9796C33.815 33.8257 27.7062 37.9507 21.4267 37.8719" fill="#E1E2E6"/>
<path d="M30.8723 28.3868C30.8591 28.3606 30.557 28.5051 30.0052 28.7678C29.7293 28.8992 29.4009 29.0568 29.0331 29.2933C28.6652 29.5166 28.2317 29.74 27.7982 30.0684C27.3515 30.3837 26.8654 30.7121 26.3794 31.1325C25.8802 31.5266 25.381 31.9996 24.8686 32.4988C23.8702 33.5235 22.8586 34.7584 22.0047 36.1903C21.1639 37.6223 20.5465 39.0936 20.113 40.4599C19.9159 41.1562 19.732 41.813 19.64 42.4436C19.5086 43.0742 19.4561 43.6654 19.3904 44.204C19.3116 44.7426 19.3379 45.2418 19.3247 45.6622C19.3116 46.0957 19.3379 46.4636 19.351 46.7657C19.3904 47.37 19.4298 47.6985 19.4561 47.6985C19.5349 47.6985 19.4035 46.3585 19.64 44.2303C19.7057 43.7048 19.7714 43.1136 19.9159 42.4961C20.021 41.8787 20.2181 41.235 20.4151 40.5518C20.8486 39.2119 21.4661 37.7668 22.2937 36.3611C23.1345 34.9686 24.1198 33.7468 25.0919 32.7221C25.5911 32.2229 26.0641 31.75 26.5633 31.3427C27.0231 30.9223 27.5092 30.5807 27.9427 30.2523C29.6899 29.0174 30.9117 28.4657 30.8723 28.3868Z" fill="#B6B8BF"/>
</g>
<defs>
<clipPath id="clip0">
<rect width="36.5607" height="50" fill="white" transform="matrix(-1 0 0 1 36.5607 0.0761719)"/>
</clipPath>
</defs>
</svg>
