<svg width="28" height="201" viewBox="0 0 28 201" fill="none" xmlns="http://www.w3.org/2000/svg">
<path d="M18.0458 96.1201H11.2739V200.076H18.0458V96.1201Z" fill="#E6E7EB"/>
<path d="M16.3561 33.5049H12.968V105.115H16.3561V33.5049Z" fill="#E3E4E6"/>
<path d="M19.77 96.1202H9.47673C9.08977 96.1202 8.77161 95.8064 8.77161 95.4151C8.77161 95.0281 9.08547 94.71 9.47673 94.71H19.77C20.157 94.71 20.4751 95.0238 20.4751 95.4151C20.4751 95.8064 20.1613 96.1202 19.77 96.1202Z" fill="#E3E4E6"/>
<path d="M3.44434 16.2856L8.76295 31.7556C9.63147 34.2837 12.0134 35.9864 14.6878 35.9864C17.461 35.9864 19.9032 34.1634 20.6944 31.5062L25.239 16.2168L3.44434 16.2856Z" fill="#E3E4E6"/>
<path d="M0.043457 15.6577C0.271336 15.8383 2.48993 16.38 2.48993 16.38H26.0174L27.9694 15.8383L22.2337 13.9895L20.673 10.4552L19.5852 9.96503C19.5852 9.96503 18.2093 5.08067 14.4385 5.11937C10.6678 5.15807 8.89205 9.98652 8.89205 9.98652L7.56348 10.4552L5.76623 13.925L0.043457 15.6577Z" fill="#E3E4E6"/>
<path d="M15.823 3.64074C15.823 4.33298 15.2597 4.89622 14.5675 4.89622C13.8753 4.89622 13.312 4.33298 13.312 3.64074C13.312 2.9485 13.8753 2.38525 14.5675 2.38525C15.264 2.38525 15.823 2.9485 15.823 3.64074Z" fill="#EBEBEB"/>
<path d="M15.4016 0.905996C15.4016 1.36605 15.0275 1.73582 14.5718 1.73582C14.1117 1.73582 13.7419 1.36175 13.7419 0.905996C13.7419 0.450238 14.1074 0.0761719 14.5675 0.0761719C15.0275 0.0761719 15.4016 0.450238 15.4016 0.905996Z" fill="#EBEBEB"/>
<path d="M14.8813 0.905762H14.2578V5.14087H14.8813V0.905762Z" fill="#EBEBEB"/>
<path d="M5.22876 16.3242L10.1045 30.6462C10.7108 32.4262 12.1855 33.772 14.0129 34.2106L13.9226 16.3844L5.22876 16.3242Z" fill="white"/>
<path d="M24.018 16.3242L19.1422 30.6462C18.536 32.4262 17.0612 33.772 15.2339 34.2106L15.8229 16.3801L24.018 16.3242Z" fill="white"/>
<path d="M27.7458 15.9072C27.7458 15.9158 27.6512 15.9244 27.4663 15.933C27.2556 15.9416 26.9891 15.9459 26.6623 15.9588C25.9271 15.9717 24.9253 15.9846 23.6999 16.0018C21.1674 16.0147 17.7234 16.0362 13.9226 16.0534C10.1002 16.0491 6.64334 16.0792 4.14097 16.0018C2.88979 15.9588 1.87509 15.8857 1.17855 15.8126C0.830283 15.7739 0.559401 15.7438 0.378818 15.7137C0.198235 15.6879 0.0993506 15.6664 0.10365 15.6578C0.10365 15.6492 0.202543 15.6492 0.387426 15.6621C0.598106 15.675 0.86468 15.6922 1.19145 15.7137C1.88799 15.7567 2.89839 15.804 4.14958 15.8255C6.64765 15.8556 10.1088 15.7997 13.9269 15.804C17.732 15.8126 21.1717 15.8169 23.7085 15.8255C24.9339 15.8384 25.94 15.8513 26.6709 15.8599C26.9977 15.8685 27.2642 15.8771 27.4749 15.8814C27.6469 15.8943 27.7458 15.8986 27.7458 15.9072Z" fill="#CACACC"/>
<path d="M22.238 13.9894C22.238 14.0582 18.5446 14.1141 13.987 14.1141C9.42943 14.1141 5.73608 14.0582 5.73608 13.9894C5.73608 13.9206 9.42943 13.8647 13.987 13.8647C18.5403 13.8647 22.238 13.9206 22.238 13.9894Z" fill="#CACACC"/>
<path d="M20.6256 10.4426C20.6299 10.4598 20.4493 10.5028 20.1268 10.5716C19.8044 10.6404 19.3314 10.7178 18.7467 10.7952C17.5772 10.9543 15.9433 11.0833 14.1375 11.0876C12.3317 11.0919 10.7021 10.9801 9.5283 10.8468C8.93925 10.7823 8.46631 10.7178 8.13954 10.6619C7.81276 10.606 7.63647 10.5716 7.63647 10.5544C7.64077 10.5372 7.82136 10.5415 8.15243 10.5673C8.5351 10.5974 8.99945 10.6318 9.5455 10.6705C10.7193 10.7565 12.3445 10.8382 14.1375 10.8339C15.9304 10.8296 17.5557 10.7307 18.7252 10.6146C19.899 10.5114 20.6213 10.4039 20.6256 10.4426Z" fill="#CACACC"/>
<path d="M19.6925 9.99998C19.6968 10.0172 19.5507 10.0602 19.2798 10.129C19.0089 10.1978 18.6176 10.2795 18.1275 10.3611C17.1515 10.5288 15.7842 10.6793 14.2664 10.6922C12.7487 10.7008 11.3814 10.5675 10.4011 10.4127C9.91092 10.3353 9.51536 10.2623 9.24879 10.1935C8.97791 10.129 8.83173 10.086 8.83603 10.0688C8.84463 10.0301 9.44657 10.1247 10.4269 10.2322C11.4072 10.3396 12.7659 10.4428 14.2664 10.4342C15.767 10.4213 17.1257 10.3009 18.1017 10.1806C19.082 10.0645 19.6882 9.96128 19.6925 9.99998Z" fill="#CACACC"/>
<path d="M17.6718 35.3718C17.6847 35.3976 17.3751 35.5739 16.8333 35.7502C16.2916 35.9265 15.5048 36.0727 14.6319 36.0512C13.7548 36.0254 12.9809 35.8405 12.4477 35.6384C11.9146 35.4363 11.6136 35.2429 11.6308 35.2171C11.6566 35.1397 12.9336 35.7674 14.6405 35.8018C16.3432 35.8577 17.6503 35.2944 17.6718 35.3718Z" fill="#CACACC"/>
<path d="M18.8283 96.1205C18.8283 96.1893 17.0311 96.2452 14.8125 96.2452C12.5939 96.2452 10.7966 96.1893 10.7966 96.1205C10.7966 96.0517 12.5939 95.9958 14.8125 95.9958C17.0311 95.9915 18.8283 96.0517 18.8283 96.1205Z" fill="#CACACC"/>
</svg>
