<svg width="58" height="61" viewBox="0 0 58 61" fill="none" xmlns="http://www.w3.org/2000/svg">
<path d="M41.1035 4.05378C42.1542 3.62353 43.4404 3.83188 44.3009 4.57461C45.1614 5.31735 45.5599 6.55374 45.2882 7.65879C47.3036 6.7666 49.8035 7.95317 50.895 9.86889C51.9864 11.7846 51.8959 14.1759 51.2663 16.2863C52.6884 16.3271 54.0335 17.328 54.4818 18.6776C54.9302 20.0272 54.4502 21.6349 53.3315 22.5181C54.9891 22.4184 56.6195 23.6684 56.9546 25.2943C57.2898 26.9202 56.2889 28.7136 54.7309 29.2797C56.4338 30.5252 57.0769 33.0206 56.1938 34.9363C55.3061 36.852 52.9873 37.9752 50.9357 37.4815C50.8995 39.1572 49.9258 40.7831 48.4675 41.6119C47.0092 42.4361 45.1116 42.4316 43.6578 41.5938C42.3988 43.36 40.3336 44.5285 38.1733 44.7006C36.013 44.8727 33.7894 44.0439 32.2676 42.4995C30.7912 43.4144 29.1608 44.2703 27.4263 44.1798C25.6917 44.0846 23.9254 42.6626 24.0794 40.9371C22.5124 41.4715 20.7779 41.9244 19.238 41.313C17.7027 40.7016 16.7245 38.5639 17.8205 37.323C15.0216 37.8348 12.0914 35.276 12.2182 32.4363C10.769 33.0704 8.93933 32.6945 7.85693 31.5441C6.77452 30.3938 6.50732 28.546 7.22288 27.1375C5.32981 26.4129 4.71388 23.845 5.47926 21.9701C6.24464 20.0906 7.96562 18.7953 9.67754 17.7129C8.50456 16.0146 8.41398 13.6369 9.45562 11.8525C10.4973 10.0727 12.6123 8.98122 14.6684 9.17143C14.2155 7.46404 15.0262 5.50303 16.5479 4.6063C18.0696 3.71411 20.1755 3.96321 21.4481 5.19054C21.3485 2.4098 24.4915 0.0411957 27.1364 0.910743C27.9516 1.17795 28.7215 1.69423 29.582 1.66706C30.7505 1.63083 31.6427 0.61636 32.7432 0.226876C34.4642 -0.379996 36.5746 0.924329 36.8056 2.73588C36.7965 1.91163 37.7295 1.29116 38.5447 1.43608C39.3554 1.58101 39.9758 2.29205 40.2475 3.07555C40.5193 3.85452 40.5102 4.70141 40.4966 5.52567" fill="#DDE3EE"/>
<path d="M41.6787 27.9844C41.5836 27.9753 40.7186 35.1491 39.7449 44.0121C38.7712 52.8752 38.0556 60.067 38.1507 60.0761C38.2458 60.0851 39.1108 52.9114 40.0845 44.0484C41.0582 35.1853 41.7738 27.9934 41.6787 27.9844Z" fill="#B5C0D9"/>
<path d="M40.397 38.4191C40.4695 38.478 41.7195 36.9789 43.1868 35.0767C44.6542 33.1701 45.7819 31.5804 45.7049 31.5261C45.6324 31.4672 44.3825 32.9663 42.9151 34.8684C41.4477 36.7706 40.32 38.3602 40.397 38.4191Z" fill="#E0E0E0"/>
<path d="M35.2386 18.2295C35.1435 18.225 34.7359 27.5771 34.3238 39.1167C33.9116 50.6563 33.6535 60.013 33.7486 60.0176C33.8437 60.0221 34.2513 50.6699 34.6634 39.1303C35.0756 27.5907 35.3337 18.234 35.2386 18.2295Z" fill="#B5C0D9"/>
<path d="M30.112 18.6637C30.0984 18.6637 30.0938 18.8086 30.0984 19.0849C30.1029 19.3974 30.112 19.7914 30.121 20.285C30.1527 21.372 30.1935 22.8665 30.2478 24.7007C30.352 28.428 30.4607 33.5818 30.4833 39.2701C30.506 44.9629 30.4335 50.1123 30.3565 53.8441C30.3203 55.6783 30.2886 57.1728 30.2659 58.2598C30.2614 58.7534 30.2524 59.152 30.2524 59.4599C30.2524 59.7362 30.2569 59.8811 30.2705 59.8811C30.2841 59.8811 30.2976 59.7362 30.3203 59.4644C30.3429 59.1565 30.3656 58.7579 30.3973 58.2643C30.4607 57.2226 30.5286 55.7145 30.5966 53.8486C30.7324 50.1213 30.8411 44.9629 30.823 39.2656C30.8004 33.5728 30.6554 28.4189 30.4879 24.6916C30.4063 22.8257 30.3248 21.3176 30.2524 20.2805C30.2161 19.7868 30.189 19.3928 30.1663 19.0803C30.1437 18.8041 30.1256 18.6591 30.112 18.6637Z" fill="#B5C0D9"/>
<path d="M27.9516 32.4047C27.8656 32.4318 28.2188 33.632 29.0023 34.9408C29.7813 36.2587 30.6644 37.1373 30.7278 37.0785C30.8048 37.0151 30.053 36.0549 29.2922 34.7687C28.5268 33.4871 28.0422 32.3684 27.9516 32.4047Z" fill="#E0E0E0"/>
<path d="M20.642 24.6603C20.6284 24.6648 20.6511 24.7871 20.6918 25.0226C20.7462 25.2943 20.8186 25.6295 20.9047 26.0416C21.1085 26.97 21.3847 28.2336 21.7244 29.7779C22.4173 32.9346 23.3367 37.2959 24.2515 42.1373C25.1618 46.9787 25.8955 51.3807 26.3982 54.5691C26.6428 56.127 26.8466 57.4087 26.996 58.3462C27.064 58.7628 27.1229 59.098 27.1681 59.3742C27.2134 59.6097 27.2406 59.732 27.2497 59.7275C27.2632 59.7275 27.2542 59.6007 27.2361 59.3652C27.2089 59.0889 27.1727 58.7493 27.1274 58.3281C27.0277 57.4313 26.8602 56.1316 26.6383 54.5329C26.1944 51.3309 25.497 46.9198 24.5867 42.0739C23.6718 37.228 22.7117 32.8666 21.9599 29.7236C21.584 28.1521 21.267 26.884 21.036 26.0099C20.9228 25.6023 20.8322 25.2717 20.7598 25.0045C20.6964 24.7735 20.6556 24.6558 20.642 24.6603Z" fill="#B5C0D9"/>
<path d="M17.7163 31.9703C17.6529 32.0382 18.8848 33.261 20.4699 34.6921C22.055 36.1278 23.391 37.2328 23.4499 37.1649C23.5133 37.097 22.2815 35.8742 20.6963 34.4385C19.1158 33.0074 17.7797 31.9023 17.7163 31.9703Z" fill="#E0E0E0"/>
<path d="M22.0414 30.6022C22.123 30.6475 22.7208 29.6738 23.3775 28.4329C24.0341 27.192 24.4961 26.1458 24.41 26.105C24.3285 26.0597 23.7307 27.0335 23.074 28.2744C22.4219 29.5153 21.9599 30.5615 22.0414 30.6022Z" fill="#E0E0E0"/>
<path d="M7.22744 11.8026C7.49464 9.68306 5.97294 7.49107 3.89417 7.00195C3.68585 9.02184 4.89506 11.3271 7.22744 11.8026Z" fill="#CBD2E3"/>
<path d="M6.16768 14.0037C5.16226 15.6024 2.0328 15.9783 0.157837 14.9502C1.46669 13.107 4.35612 12.6541 6.16768 14.0037Z" fill="#CBD2E3"/>
</svg>
