<svg xmlns="http://www.w3.org/2000/svg" width="71.61" height="71.61" viewBox="0 0 71.61 71.61">
  <g id="partner1" transform="translate(-160.393 -3745.195)">
    <circle id="Ellipse_5" data-name="Ellipse 5" cx="35.585" cy="35.585" r="35.585" transform="translate(160.424 3745.415)" fill="#fff"/>
    <g id="Group_75" data-name="Group 75">
      <path id="Path_156" data-name="Path 156" d="M207.676,3759.955c-.077.107-.019.169.1.219a8.794,8.794,0,0,1,1.685,1.015q.609.447,1.229.879c.2.141.422.259.626.4.062.043.086.138.144.188.311.266.627.526.941.788a.8.8,0,0,1,.067.051c.253.255.492.524.76.762.418.373.736.836,1.137,1.225a7.757,7.757,0,0,1,.834,1.006c.3.418.575.861.866,1.29.213.314.453.612.649.936.233.385.431.792.647,1.187.1.188.222.368.316.56.19.386.386.77.545,1.169.229.57.433,1.151.635,1.732.129.372.238.752.35,1.13.119.4.24.805.342,1.212.053.211.057.433.1.648s.1.418.158.627c0,.014.013.026.014.039.03.238.065.475.088.713a7.783,7.783,0,0,0,.106,1.129,10.708,10.708,0,0,1,.077,1.751c.01.113.051.224.069.337a.881.881,0,0,1,.011.229c-.022.175-.072.349-.077.525-.012.386.009.772-.006,1.158a6.847,6.847,0,0,1-.093,1.093,8.217,8.217,0,0,0-.176,1.149,5.9,5.9,0,0,1-.177.98c-.066.283-.167.558-.241.84-.045.171-.056.35-.1.52-.059.216-.141.426-.207.64-.081.266-.154.533-.235.8-.038.123-.087.243-.133.363-.16.416-.309.836-.485,1.245-.137.319-.308.623-.464.934-.254.5-.5,1.015-.766,1.513-.157.291-.354.56-.532.839-.112.176-.22.353-.331.529a1.49,1.49,0,0,0-.12.191,6.411,6.411,0,0,1-.714.965,7.26,7.26,0,0,1-.49.666c-.292.343-.6.675-.906,1.006-.384.415-.761.839-1.167,1.231-.312.3-.665.561-1,.841-.059.05-.106.114-.166.162q-.47.378-.943.752c-.059.047-.129.081-.185.132a1.573,1.573,0,0,1-.641.462c-.135.036-.238.181-.366.262-.262.166-.532.321-.8.483-.094.058-.183.125-.278.181-.376.222-.745.458-1.133.659-.5.257-1.006.5-1.519.723-.432.191-.873.361-1.316.523-.228.083-.471.122-.7.2-.311.1-.618.211-.928.313a4.291,4.291,0,0,1-.429.12c-.286.063-.575.111-.861.176-.349.08-.7.172-1.043.259a.276.276,0,0,1-.041.007,5.162,5.162,0,0,0-.962.094c-.339.1-.685.018-1.006.095a10.929,10.929,0,0,1-1.75.076c-.155.013-.32.109-.459.076-.63-.15-1.271,0-1.894-.093-.305-.043-.607-.037-.907-.076-.274-.035-.541-.124-.814-.172-.242-.042-.49-.05-.732-.092s-.488-.113-.733-.163c-.187-.039-.377-.061-.565-.1-.1-.02-.2-.058-.293-.088-.266-.082-.53-.166-.8-.245-.222-.066-.449-.117-.667-.193q-.657-.229-1.306-.48c-.48-.185-.961-.368-1.429-.58-.355-.161-.689-.367-1.033-.554-.055-.029-.111-.057-.165-.088-.414-.238-.833-.467-1.24-.717-.293-.179-.569-.386-.853-.58-.212-.143-.428-.279-.635-.428s-.418-.316-.625-.477c-.261-.2-.521-.408-.781-.613a.883.883,0,0,1-.08-.068c-.536-.513-1.077-1.019-1.6-1.542-.327-.324-.631-.673-.947-1.01-.137-.147-.356-.272-.4-.442-.069-.272-.294-.4-.423-.613-.239-.394-.549-.745-.814-1.124-.173-.248-.321-.515-.478-.774-.252-.415-.518-.822-.748-1.248-.213-.4-.385-.819-.577-1.229-.053-.113-.12-.22-.169-.335-.232-.543-.476-1.082-.687-1.633-.148-.387-.25-.791-.372-1.188-.113-.369-.233-.736-.337-1.108-.048-.17-.061-.349-.1-.522-.052-.238-.115-.473-.169-.71-.035-.152-.071-.3-.093-.459-.036-.25-.056-.5-.091-.753-.053-.392-.114-.782-.171-1.173a.79.79,0,0,1-.007-.084c-.028-.863-.072-1.726-.077-2.589a10.134,10.134,0,0,1,.1-1.681c.049-.3.04-.591.078-.884a6.817,6.817,0,0,1,.164-.71.614.614,0,0,0,.011-.062c.027-.272.041-.547.085-.816.028-.172.108-.334.151-.5.047-.185.073-.375.115-.562.035-.152.079-.3.123-.452.009-.032.046-.06.046-.09a7.528,7.528,0,0,1,.366-1.421,5.685,5.685,0,0,1,.367-.932c.17-.426.318-.861.511-1.276s.425-.8.636-1.2c.166-.315.31-.643.49-.949.231-.392.49-.768.735-1.152.145-.227.28-.459.431-.681.163-.24.331-.478.513-.7.2-.243.443-.452.614-.71a9.811,9.811,0,0,1,1.233-1.389c.4-.41.794-.83,1.219-1.214.442-.4.91-.77,1.383-1.132.329-.251.686-.464,1.028-.7.307-.21.6-.437.919-.634s.662-.38,1-.559c.528-.28,1.052-.569,1.593-.824.42-.2.864-.345,1.295-.52.323-.131.639-.281.965-.4.235-.087.483-.139.725-.21.13-.038.257-.09.389-.125.3-.079.6-.151.906-.225q.306-.075.612-.146c.179-.042.357-.085.537-.12.313-.061.625-.125.94-.172.285-.042.572-.071.859-.089a12.982,12.982,0,0,0,1.658-.106,6.386,6.386,0,0,1,1.812-.047c.473.043.944.015,1.412.064.345.037.685.114,1.028.173l.042,0c.322.028.645.043.965.088.171.025.333.109.5.151s.38.058.559.118c.31.1.659.025.951.234a1.394,1.394,0,0,0,.429.114c.256.071.512.14.764.222.3.1.592.2.887.309.316.112.633.219.944.344.179.071.346.176.521.259.476.225.952.451,1.432.667C207.508,3759.99,207.591,3759.96,207.676,3759.955Zm-12.968-1.393c0,.252,0,.44,0,.628,0,.375,0,.387-.379.372a.8.8,0,0,0-.7.247c-.029.034-.071.088-.061.121a1.146,1.146,0,0,0,.132.338c.154.229.332.442.487.669a.337.337,0,0,1,.061.242.275.275,0,0,1-.185.141c-.316.068-.638.108-.953.178a6.528,6.528,0,0,0-1.079.285c-.457.188-.886.444-1.327.67a3.314,3.314,0,0,0-1.126,1.054,2.026,2.026,0,0,0-.4,1.314,2.99,2.99,0,0,0,0,.379,4.577,4.577,0,0,0,.142.613,1.808,1.808,0,0,0,.727.9,4.511,4.511,0,0,0,.95.488,4.044,4.044,0,0,0,.752.186,6.836,6.836,0,0,0,.987.161c.56.027,1.123.015,1.685,0,.164,0,.2.05.2.2-.009.449,0,.9,0,1.348,0,.2-.053.259-.249.208a3.378,3.378,0,0,1-.614-.214c-.615-.3-1.229-.6-1.831-.922-.431-.233-.84-.507-1.262-.757a1.124,1.124,0,0,0-.415-.2c-.3-.031-.6,0-.9-.007-.128,0-.169.035-.168.167q.008,1.76,0,3.518c0,.127.033.178.164.175a4.872,4.872,0,0,1,.673,0,.644.644,0,0,0,.682-.4,1.263,1.263,0,0,1,.4-.387,1.348,1.348,0,0,1,1-.078c.45.079.873.3,1.319.416a7.654,7.654,0,0,0,1.046.172c.117.015.161.043.159.161,0,.309.006.618-.008.927a.208.208,0,0,1-.143.139,3.9,3.9,0,0,1-.484,0,.219.219,0,0,0-.243.206c-.026.147-.056.293-.094.437-.113.432-.234.862-.345,1.295-.068.27-.117.545-.185.815-.079.309-.169.615-.256.922-.026.091-.062.179-.084.271-.039.165-.06.335-.108.5-.1.351-.219.7-.33,1.046-.081.258-.159.517-.243.774-.094.292-.2.581-.287.874-.1.331-.177.668-.282,1s-.227.627-.339.94c-.178.5-.345,1-.532,1.5-.167.448-.354.888-.531,1.332s-.35.88-.528,1.318c-.142.35-.282.7-.437,1.046-.181.4-.375.8-.568,1.2-.217.447-.445.889-.659,1.338-.158.33-.286.675-.455,1-.277.53-.577,1.048-.867,1.571-.181.328-.355.66-.547.981-.211.356-.443.7-.658,1.052-.2.325-.38.659-.58.981-.244.394-.5.781-.749,1.17q-.125.192-.26.377-.379.519-.764,1.034t-.787,1.041c-.146.19-.3.376-.459.578a1.209,1.209,0,0,0,.145.017q2.085,0,4.171,0c.127,0,.222,0,.276-.152a1.775,1.775,0,0,1,.2-.312q.324-.517.643-1.037c.058-.095.1-.2.162-.291.2-.3.422-.582.609-.887.231-.377.432-.772.657-1.152a.39.39,0,0,1,.379-.211c.435.017.871.006,1.306.006h.854c-.031.08-.048.128-.066.175-.071.179-.153.354-.21.536-.106.337-.186.682-.3,1.016-.09.271-.223.527-.315.8-.132.393-.24.794-.368,1.189-.084.262-.048.32.235.321.618,0,1.236,0,1.854,0a.265.265,0,0,0,.294-.18q.141-.385.283-.77l.333-.9c0-.006,0-.014,0-.021.093-.334.177-.671.281-1,.1-.311.237-.61.317-.925.045-.18.114-.246.292-.245q2.276,0,4.551,0a1.453,1.453,0,0,1,.154.015l.033.219.1-.03a1.544,1.544,0,0,0,.035.235c.065.208.14.413.209.619.091.271.179.542.271.813.052.154.114.3.165.459.082.251.158.506.239.758a4.909,4.909,0,0,0,.207.6c.068.145.086.352.331.35.681-.006,1.363,0,2.044,0,.162,0,.2-.075.146-.228-.088-.248-.166-.5-.246-.751-.1-.311-.192-.623-.293-.933s-.214-.631-.321-.947-.2-.623-.317-.927c-.075-.2-.054-.246.162-.246.618,0,1.236.009,1.854-.007a.429.429,0,0,1,.4.243c.091.139.172.284.266.421.291.42.592.833.877,1.257.177.264.321.551.5.814.293.432.6.854.916,1.3.734.017,1.507.008,2.281.009h2.381c-.213-.291-.389-.553-.586-.8-.183-.227-.388-.438-.584-.655-.107-.12-.228-.229-.323-.357-.209-.282-.4-.575-.607-.861-.088-.125-.188-.241-.273-.368-.157-.234-.3-.476-.461-.708-.22-.32-.459-.626-.671-.95-.235-.358-.446-.73-.672-1.094-.284-.458-.572-.913-.858-1.37-.1-.165-.2-.33-.3-.5-.246-.409-.508-.809-.732-1.229-.318-.6-.606-1.21-.912-1.813-.1-.2-.225-.384-.326-.583-.078-.152-.129-.317-.2-.471-.165-.343-.343-.678-.5-1.022-.257-.55-.5-1.1-.756-1.655-.088-.189-.2-.367-.281-.559-.179-.43-.345-.866-.518-1.3-.03-.078-.072-.151-.1-.229q-.2-.517-.391-1.036c-.076-.2-.152-.41-.225-.616s-.138-.413-.212-.617c-.133-.364-.277-.725-.4-1.091-.1-.3-.19-.61-.289-.913-.136-.42-.284-.836-.413-1.257-.1-.331-.177-.669-.274-1-.108-.371-.238-.735-.338-1.107s-.181-.768-.27-1.153c-.029-.125-.059-.251-.09-.377a6,6,0,0,1-.163-.666c-.024-.185-.1-.265-.279-.261-.085,0-.17,0-.253,0-.144.015-.181-.051-.177-.185q.014-.346,0-.695c-.005-.139.046-.175.182-.18.457-.017.912-.051,1.368-.078a.153.153,0,0,0,.021,0c.355-.087.716-.159,1.065-.267a12.379,12.379,0,0,0,1.232-.443,3.557,3.557,0,0,0,1.169-.783,5.373,5.373,0,0,0,.4-.476,1.391,1.391,0,0,0,.361-1c-.016-.167.039-.362-.03-.5a4.735,4.735,0,0,0-.5-.712,2.858,2.858,0,0,0-.873-.653,2.929,2.929,0,0,0-.447-.258c-.3-.109-.613-.182-.918-.277-.252-.079-.5-.185-.753-.246a6.214,6.214,0,0,0-.964-.169,6.336,6.336,0,0,1-1.133-.093c-.14-.035-.184-.058-.182-.2.007-.513,0-1.026,0-1.538,0-.118.015-.235.023-.352l.322.068a.046.046,0,0,0,.021,0,3.126,3.126,0,0,1,1.267.384,6.939,6.939,0,0,1,.97.6.477.477,0,0,0,.173.027.459.459,0,0,1-.019.042c.208.205.389.4.583.571a3.1,3.1,0,0,1,.634.8.3.3,0,0,0,.219.122c.358.012.717,0,1.075.006.124,0,.173-.031.173-.165q-.006-1.812,0-3.624c0-.127-.038-.172-.168-.169-.358.007-.717,0-1.075,0a.222.222,0,0,0-.15.069c-.177.213-.351.428-.513.651s-.388.181-.591.138c-.263-.056-.513-.174-.774-.246-.347-.1-.7-.172-1.05-.264-.319-.084-.636-.179-.955-.267-.282-.078-.364-.25-.221-.5a2.64,2.64,0,0,1,.247-.332c.152-.189.318-.369.46-.565.232-.32.2-.48-.176-.627a2.124,2.124,0,0,0-.672-.074c-.118-.005-.163-.036-.158-.158.007-.189-.014-.381.005-.568.022-.213-.062-.275-.258-.246-.23.033-.46.07-.691.083-.259.015-.519.007-.779,0a.807.807,0,0,1-.184-.025C194.971,3758.635,194.863,3758.6,194.708,3758.562Z" fill="#002b7f"/>
      <path id="Path_157" data-name="Path 157" d="M222.953,3773.143c-.144-.046-.3-.091-.451-.145-.05-.018-.119-.046-.136-.088-.082-.2-.147-.412-.222-.617q-.241-.664-.489-1.326c-.037-.1-.1-.181-.142-.278a.6.6,0,0,1,.127-.6c.152-.2.131-.288-.005-.512a1.077,1.077,0,0,0-.673-.558c-.477-.1-.562-.521-.779-.827-.3-.427-.561-.886-.84-1.33-.132-.21-.264-.42-.4-.623-.1-.14-.212-.267-.326-.41a5.125,5.125,0,0,1-.493.148c-.176.036-.31-.116-.327-.332-.022-.3-.038-.591-.082-.882a6.292,6.292,0,0,0-.182-.791.211.211,0,0,0-.182-.094.491.491,0,0,1-.506-.23c-.232-.293-.5-.555-.763-.827a1.755,1.755,0,0,0-.189-.15c-.14.071-.3.164-.464.231a4.439,4.439,0,0,1-.562.179,1.976,1.976,0,0,1-.5.08,1.135,1.135,0,0,1-.536-.1.583.583,0,0,1-.233-.388,3.481,3.481,0,0,1,0-.777,2.691,2.691,0,0,1,.131-.476c.4.527.867.934,1.609.678-.2-.219-.4-.428-.593-.635a.682.682,0,0,1-.061-.847,2.381,2.381,0,0,1,.874-.749,1.07,1.07,0,0,1,.43-.117,7.951,7.951,0,0,1,.8-.089.653.653,0,0,1,.571.848c-.1.245-.159.5-.25.751a1.431,1.431,0,0,1-.2.377c-.1.126-.045.191.046.28.341.333.68.669,1.013,1.012.17.175.28.443.614.25a.9.9,0,0,1,.458-.085,2.247,2.247,0,0,1,.627.089,5.058,5.058,0,0,1,.6.294c.353.17.448.519.582.839.041.1-.113.369-.214.432-.228.143-.451.293-.675.442-.046.03-.09.065-.112.082l1.858,2.982.045-.014a1.26,1.26,0,0,0,0-.174,2.263,2.263,0,0,1-.074-.482,1.128,1.128,0,0,0-.222-.817c-.027-.035-.017-.1-.024-.148a.477.477,0,0,1,.161-.018,5.677,5.677,0,0,1,.648.17,3.088,3.088,0,0,1,.524.257c.124.073.115.213.146.344a16.664,16.664,0,0,1,.088,2.08,5.144,5.144,0,0,0,.3,1.093c.05.144.032.179-.107.176h-.169c-.125,0-.154.034-.1.167.176.408.336.823.5,1.238.1.267.2.489.551.55a4.207,4.207,0,0,1,.931.369c.2.088.39.194.583.3.388.205.457.419.322.857a1.773,1.773,0,0,1-.831.92,2.374,2.374,0,0,1-.584.289,1.06,1.06,0,0,1-.453.005c-.187-.025-.368-.089-.553-.125s-.393-.051-.586-.094c-.088-.019-.207-.059-.11-.2a.139.139,0,0,0,.025-.057c.031-.273.055-.546.092-.818C222.845,3773.81,222.9,3773.509,222.953,3773.143Zm-4.075-8.857-.048.016c.039.157.076.313.116.469.013.049.034.1.051.145a.6.6,0,0,0,.142-.066,4.074,4.074,0,0,1,.422-.362c.115-.073.094-.12.026-.19a1.906,1.906,0,0,0-.36-.343,1.063,1.063,0,0,0-.406-.078.208.208,0,0,0-.037.127A2.556,2.556,0,0,0,218.878,3764.286Zm5.157,10.057v.027c0,.246.016.264.215.134a1.866,1.866,0,0,0,.436-.379.322.322,0,0,0,0-.313,1.465,1.465,0,0,0-.418-.259c-.032-.016-.134.023-.138.048C224.09,3773.835,224.066,3774.072,224.035,3774.343Zm-7.836-13.178a2.315,2.315,0,0,0,.191-.383.258.258,0,0,0-.144-.333c-.108-.047-.419.044-.451.138a.211.211,0,0,0,.017.175C215.918,3760.891,216.042,3761,216.2,3761.165Z" fill="#002b7f"/>
      <path id="Path_158" data-name="Path 158" d="M169.013,3765.791a4.752,4.752,0,0,1,.419.687.587.587,0,0,0,.471.4,1.8,1.8,0,0,1,.5.3c.109.069.154.027.161-.088,0-.014,0-.028,0-.042.028-.49.026-.985.1-1.469a1.332,1.332,0,0,1,.332-.666,1.519,1.519,0,0,1,.574-.253,1.823,1.823,0,0,1,.334-.087,1.162,1.162,0,0,1,1.031.3c.08.073.128.066.187-.047a2.013,2.013,0,0,1,.266-.315c.279-.337.558-.673.83-1.015.037-.047.032-.129.049-.209l.141.033.024-.031c-.048-.04-.09-.1-.146-.117-.15-.042-.31-.053-.458-.1a.281.281,0,0,1-.178-.151c-.05-.212-.07-.432-.1-.649-.006-.041.006-.1-.016-.122-.137-.157-.03-.233.055-.288a2.569,2.569,0,0,1,.4.08,2.416,2.416,0,0,1,.592.279,2.9,2.9,0,0,1,.807,1.1c.307.626.232.491-.171.931-.2.223-.367.484-.553.724-.149.191-.312.37-.454.565-.259.357-.507.722-.761,1.082-.159.226-.327.447-.481.677-.139.205-.275.415-.4.632-.212.381-.411.771-.62,1.154-.12.22-.262.428-.372.651-.224.452-.434.91-.648,1.366a1.4,1.4,0,0,1-.12.275c-.042.055-.135.071-.214.108a.412.412,0,0,1-.016.422c-.143.33-.251.677-.369,1.019-.083.243-.16.488-.233.711.277.178.566.34.824.542a.735.735,0,0,1,.189.375,4.418,4.418,0,0,1,.084,1.494.973.973,0,0,1-.775.816,4.641,4.641,0,0,0-.485.151.477.477,0,0,1-.228.012,4.065,4.065,0,0,1-1.325-.489l-.765-.509.024-.069c.159.048.319.1.479.143s.326.088.488.137a2.1,2.1,0,0,0,.27.092,1.054,1.054,0,0,0,.806-.207.861.861,0,0,0,.385-.675,2.017,2.017,0,0,0-.174-.969.591.591,0,0,0-.818-.286.309.309,0,0,1-.14.028.92.92,0,0,0-.656.149.14.14,0,0,1-.135-.023c-.186-.289-.362-.584-.571-.927l.561-.074c.23-.03.461-.058.691-.091a.113.113,0,0,0,.082-.052q.144-.372.278-.75c.09-.256.173-.514.262-.77.049-.14.1-.278.155-.414-.012-.013-.021-.03-.031-.031-.411-.021-.554-.162-.65-.644-.009-.047-.025-.092-.036-.139s-.044-.136-.031-.143a.552.552,0,0,1,.238-.088,2.02,2.02,0,0,1,.385.045,2.434,2.434,0,0,1,.252.063.272.272,0,0,0,.331-.157c.262-.5.514-1.006.767-1.51a.424.424,0,0,0-.232-.5c-.41-.182-.824-.352-1.236-.528-.176-.075-.351-.156-.529-.225-.034-.013-.086.013-.127.028a.353.353,0,0,1-.5-.192c-.1-.2-.21-.392-.3-.594a.665.665,0,0,1-.018-.217.911.911,0,0,0,.176.033.283.283,0,0,0,.162-.034c.277-.206.548-.42.822-.629A.277.277,0,0,1,169.013,3765.791Zm2.274,1.775a.594.594,0,0,0,.093-.083c.333-.508.669-1.014.989-1.529.033-.052-.007-.222-.045-.234a.975.975,0,0,0-.968.423,3.189,3.189,0,0,0-.177,1.233C171.182,3767.434,171.242,3767.49,171.287,3767.566Z" fill="#002b7f"/>
      <path id="Path_159" data-name="Path 159" d="M195.847,3750.792a9.316,9.316,0,0,0-1.656.45c.205.214.4.42.6.622.336.34.678.672,1.009,1.016a1.057,1.057,0,0,1,.211.331.365.365,0,0,1-.009.262c-.125.272-.28.532-.4.806-.069.154-.176.165-.321.2a7.58,7.58,0,0,1-1.533.087,6.235,6.235,0,0,0-.651.081c-.309.051-.615.118-.924.167-.256.04-.516.058-.773.1-.174.026-.345.076-.519.1a1.76,1.76,0,0,1-.546.051c-.078-.012-.149-.187-.188-.3a5.6,5.6,0,0,1-.152-.589c-.041-.179-.071-.361-.112-.54-.072-.31-.149-.618-.224-.927l-.042-.178a6.243,6.243,0,0,0-.152-.628,1.364,1.364,0,0,1,.132-.886c.206-.266.392-.548.6-.848a.671.671,0,0,1,.113.172,3.391,3.391,0,0,1,.091.437c.035.244.051.491.093.733.036.206.1.406.149.609.012.047.017.095.026.142.057.285.117.569.17.855a1.476,1.476,0,0,1,.009.231.319.319,0,0,0,.33.326c.346-.038.688-.1,1.031-.159.014,0,.027-.006.041-.007.3-.031.6-.059.9-.092.408-.046.815-.1,1.223-.143a1,1,0,0,0,.169,0,4.783,4.783,0,0,0-.926-.937,1.234,1.234,0,0,1-.275-.06,3.09,3.09,0,0,1-.391-.232c-.1-.066-.125-.38-.067-.532.116-.3.217-.616.337-.92.073-.184.251-.219.424-.252.12-.023.237-.056.354-.088.313-.088.626-.178.939-.267.286-.081.572-.168.86-.242.184-.046.374-.07.561-.108.072-.015.141-.042.212-.059a1.129,1.129,0,0,1,.132-.013c0,.044.02.1,0,.131-.148.274-.292.551-.462.811-.056.085-.187.12-.28.184A1.083,1.083,0,0,0,195.847,3750.792Z" fill="#002b7f"/>
      <path id="Path_160" data-name="Path 160" d="M179.81,3754.969c.019.371.029.686.056,1a.525.525,0,0,0,.11.233c.291.41.6.807.873,1.228a2.03,2.03,0,0,1,.157.525c.05.167.1.338.161.5a.614.614,0,0,1-.249.72c-.292.182-.577.378-.853.584-.387.289-.756.6-1.146.884-.078.057-.212.036-.346.055-.052.432-.46.643-.791.922-.149.126-.272.284-.418.415-.179.16-.371.3-.553.461a.5.5,0,0,0-.107.152.421.421,0,0,1-.705.113c-.212-.2-.438-.386-.652-.585-.059-.054-.082-.148-.142-.2-.182-.16-.376-.306-.562-.463-.046-.038-.076-.1-.118-.133l-1.1-1.082c.013-.223.028-.391.032-.559.006-.2,0-.407.005-.611,0-.056.027-.155.052-.159a.285.285,0,0,1,.209.041c.151.136.282.293.426.437.2.2.408.388.6.59.11.114.19.256.3.37.268.278.542.55.819.818a1.891,1.891,0,0,0,.254.176c.181-.142.357-.272.523-.414a1.046,1.046,0,0,0,.147-.2.466.466,0,0,1,.081-.118c.194-.145.4-.275.586-.429a1.69,1.69,0,0,0,.225-.3c-.255-.042-.31-.19-.283-.4.037-.277.064-.555.1-.876l1,.7c.172-.133.354-.278.541-.416q.366-.27.74-.529c.1-.071.25-.108.3-.2a.383.383,0,0,0-.023-.339,6.136,6.136,0,0,0-.5-.582,2.426,2.426,0,0,1-.442-.494,1.7,1.7,0,0,0-.358-.489.33.33,0,0,0-.177-.09.31.31,0,0,1-.3-.333c.008-.22.039-.439.059-.658a.26.26,0,0,0-.01-.06c-.006-.053-.011-.107-.016-.161.077.012.18,0,.228.041a.315.315,0,0,0,.386.066A4.993,4.993,0,0,1,179.81,3754.969Z" fill="#002b7f"/>
      <path id="Path_161" data-name="Path 161" d="M198.2,3752.273c.129.313.241.621.386.913.037.075.173.12.271.141.331.068.666.119,1,.176a.713.713,0,0,0,.083.008c.323.028.646.051.968.086.1.011.194.073.294.081.175.015.224-.073.162-.23a3.57,3.57,0,0,1-.161-.5.274.274,0,0,1,.163-.323,3.254,3.254,0,0,0,.428-.364.8.8,0,0,1,.139-.075c.019.048.04.1.056.145.085.256.173.512.249.771a2.62,2.62,0,0,1,.1.478.381.381,0,0,0,.324.368c.239.048.477.1.77.16a5.209,5.209,0,0,0-.11-.635c-.056-.184.059-.26.161-.35a4.524,4.524,0,0,1,.4-.326.937.937,0,0,1,.243-.08c.02.069.043.137.059.207.052.231.105.462.149.694a1.16,1.16,0,0,1,.024.331.585.585,0,0,0,.644.621c.143-.014.171-.075.145-.188a.718.718,0,0,0-.1-.306c-.119-.137-.052-.212.052-.29.237-.178.472-.358.717-.526.127-.087.281.037.3.259a2.131,2.131,0,0,1-.585,1.839,1.567,1.567,0,0,0-.22.3.369.369,0,0,1-.528.169c-.241-.089-.5-.137-.747-.207a.768.768,0,0,1-.32-.118c-.064-.063-.057-.2-.086-.316-.076.038-.153.082-.234.116a.388.388,0,0,1-.195.049c-.212-.042-.42-.1-.63-.156a1.721,1.721,0,0,0-.478-.1.445.445,0,0,1-.473-.306,2.04,2.04,0,0,1-.541.114,6.248,6.248,0,0,1-.817-.159.082.082,0,0,0-.021,0c-.287-.03-.575-.056-.861-.089-.177-.021-.351-.056-.527-.078-.157-.02-.294-.024-.383.164a7.212,7.212,0,0,1-.532.988c-.2.287-.439.574-.85.5a.914.914,0,0,1-.449-.225,3.484,3.484,0,0,1-.4-.554c-.071-.106-.135-.217-.238-.384.189.037.331.069.474.091a.854.854,0,0,0,.309.023,1.288,1.288,0,0,0,.916-.65.13.13,0,0,1,.022-.035c.136-.145.323-.27.2-.516-.084-.171-.17-.34-.247-.513-.063-.143-.118-.289-.167-.437a.134.134,0,0,1,.034-.114c.136-.127.283-.243.419-.37C198.046,3752.464,198.109,3752.378,198.2,3752.273Z" fill="#002b7f"/>
      <path id="Path_162" data-name="Path 162" d="M214.758,3758.928a3.934,3.934,0,0,0-.479-.675,1.592,1.592,0,0,0-.768-.425.567.567,0,0,0-.419.11c-.044.028-.008.215.024.321.046.152,0,.336.169.451.121.082.211.206.327.3.2.158.41.3.614.458.144.108.287.217.427.33s.078.2-.035.265a7.768,7.768,0,0,1-.784.426.446.446,0,0,1-.362-.033c-.4-.262-.8-.547-1.187-.83-.345-.251-.683-.512-1.026-.765a1.953,1.953,0,0,0-.181-.1c-.563-.327-1.127-.651-1.684-.986a.308.308,0,0,1-.11-.2,2.613,2.613,0,0,1,0-.38.784.784,0,0,0-.142.08c-.166.147-.323.076-.468-.026-.428-.3-.851-.613-1.276-.921-.01-.007-.014-.023-.034-.057.306-.337.606-.691.937-1.013a.763.763,0,0,1,.435-.157c.258-.025.519-.006.779-.007a.582.582,0,0,0,.5-.138c.084-.09.264-.091.4-.126.2-.05.4-.095.608-.145.091.06.119.117.05.259a4.073,4.073,0,0,0-.207.682q-.147.509-.292,1.017c-.044.155-.059.3.1.41a2.229,2.229,0,0,0,.311.206c.051.024.131-.016.158-.02.037.073.053.163.1.2.26.16.529.3.8.453.027.015.063.015.053-.024a3.063,3.063,0,0,1,.38-.456,1.785,1.785,0,0,1,.541-.3,1.3,1.3,0,0,1,1.069-.094,2.138,2.138,0,0,1,.394.14,1.116,1.116,0,0,1,.508,1.141,5.381,5.381,0,0,1-.159.655Zm-5.746-3a4.632,4.632,0,0,0,.416.288.2.2,0,0,0,.187-.053,1.471,1.471,0,0,0,.08-.342c0-.005-.021-.015-.033-.021A.916.916,0,0,0,209.012,3755.926Z" fill="#002b7f"/>
      <path id="Path_163" data-name="Path 163" d="M172.232,3795.665a.877.877,0,0,1-.669.855.909.909,0,0,1-1-.4q-.391-.714-.758-1.441c-.1-.2-.173-.422-.242-.595.255-.142.445-.26.645-.357.367-.179.741-.344,1.109-.52.328-.157.657-.313.975-.488.108-.059.176-.051.228.039.094.164.173.336.258.505.155.3.313.609.463.916a1.629,1.629,0,0,1,.215.787.9.9,0,0,1-.586.711C172.639,3795.778,172.454,3795.623,172.232,3795.665Zm-1.033-1.16c-.181-.018-.425.251-.364.424a1.219,1.219,0,0,0,.278.426c.036.037.195,0,.264-.05s.216-.12.1-.283a3.451,3.451,0,0,1-.232-.472C171.236,3794.528,171.209,3794.514,171.2,3794.5Zm1.415.07c-.089-.173-.144-.292-.21-.4-.037-.062-.112-.167-.134-.159a2.488,2.488,0,0,0-.383.2c-.011.006-.008.057.005.076a4.245,4.245,0,0,0,.28.381c.043.049.141.1.185.088A1.27,1.27,0,0,0,172.614,3794.575Z" fill="#002b7f"/>
      <path id="Path_164" data-name="Path 164" d="M187.705,3806.966a1.4,1.4,0,0,1,.755,1.358c-.162-.032-.31-.06-.457-.091s-.32-.063-.475-.109c-.049-.015-.087-.075-.122-.121-.1-.126-.162-.322-.285-.368a.746.746,0,0,0-.558.012.937.937,0,0,0-.408.483c-.09.277-.261.573-.052.886.19.285.808.51,1.061.167l-.61-.272c.062-.2.107-.383.179-.556.045-.11.1-.177.27-.093.328.161.688.256,1.032.385.163.062.318.1.184.364a8.1,8.1,0,0,0-.363,1.038c-.012.035-.044.082-.074.088a5.155,5.155,0,0,1-.524.092,2.583,2.583,0,0,1-1.509-.352,1.084,1.084,0,0,1-.352-.2,1.642,1.642,0,0,1-.434-1.373,2.23,2.23,0,0,1,.472-1.122,2.559,2.559,0,0,1,.574-.378,1.569,1.569,0,0,1,.9-.078,2.029,2.029,0,0,1,.559.186C187.546,3806.937,187.627,3806.948,187.705,3806.966Z" fill="#002b7f"/>
      <path id="Path_165" data-name="Path 165" d="M214.47,3802.5a4.593,4.593,0,0,1,.372-.765.831.831,0,0,1,1.332.063c.156.2.332.392.5.582.113.125.239.238.353.362a.282.282,0,0,1-.016.41c-.119.095-.243.184-.364.276-.242.186-.349.13-.522-.11a6.012,6.012,0,0,0-.741-.791.266.266,0,0,0-.246.055.951.951,0,0,0-.022.348c0,.015.029.029.043.045.278.311.554.625.836.933.1.108.016.165-.051.222-.158.136-.327.259-.48.4-.087.08-.155.114-.244.012-.234-.266-.464-.536-.708-.793a3.071,3.071,0,0,0-.346-.28c-.319.278-.313.292-.05.573s.5.559.742.845a.162.162,0,0,1-.013.156c-.182.2-.371.383-.565.566-.031.03-.123.049-.139.032-.319-.365-.627-.739-.946-1.1a6.669,6.669,0,0,0-.488-.494c-.108-.1-.115-.173,0-.273s.242-.233.36-.354c.084-.086.146-.186.289-.06.08.071.151,0,.135-.1-.064-.392.3-.5.479-.73.021-.027.091-.022.138-.023C214.25,3802.5,214.388,3802.5,214.47,3802.5Z" fill="#002b7f"/>
      <path id="Path_166" data-name="Path 166" d="M188.594,3754.262c-.189-.181-.344-.322-.489-.472a.2.2,0,0,1-.055-.156c.108-.295.221-.588.349-.874.045-.1.119-.2.26-.076a1.826,1.826,0,0,1,.579.879,1.433,1.433,0,0,1,.039,1.069,1.109,1.109,0,0,0-.012.479c.008.2-.04.309-.269.336a3.4,3.4,0,0,0-.581.187c-.258.083-.519.158-.776.244-.328.109-.652.23-.981.336a2.948,2.948,0,0,1-1.164.361.943.943,0,0,1-.882-.743c-.05-.2-.053-.408-.089-.61-.017-.1-.094-.194-.088-.288a6.268,6.268,0,0,1,.1-.667c0-.024.062-.061.07-.055.035.024.086.062.085.094a1.251,1.251,0,0,0,.275.715.587.587,0,0,0,.71.193c.311-.117.635-.2.951-.3.3-.1.591-.213.888-.312.238-.079.479-.144.718-.217C188.335,3754.349,188.437,3754.314,188.594,3754.262Z" fill="#002b7f"/>
      <path id="Path_167" data-name="Path 167" d="M167.57,3787.379c0-.382,0-.383.3-.259a.15.15,0,0,0,.04.014c.285.032.573.056.857.1s.575.1.862.155c.027.005.054.011.082.014.323.027.645.059.968.079.262.016.325.215.383.408.052.174.068.36.108.539.057.258-.122.4-.287.514-.49.325-1,.616-1.5.932-.314.2-.619.415-.923.631-.094.067-.163.1-.193-.043-.061-.307-.123-.614-.167-.924-.007-.055.06-.143.116-.18a.491.491,0,0,0,.221-.591,1.308,1.308,0,0,1-.077-.334c-.011-.165-.088-.259-.247-.245-.217.018-.39.02-.423-.267A3.96,3.96,0,0,0,167.57,3787.379Zm2.464.972-.027-.053h-.837c-.033.288.064.475.216.415A5.332,5.332,0,0,0,170.034,3788.351Z" fill="#002b7f"/>
      <path id="Path_168" data-name="Path 168" d="M207.965,3805.575c.221-.075.4-.131.582-.2a.939.939,0,0,1,.763,0c.233.111.452.254.724.409l-.871.666c-.384-.326-.444-.333-.8,0a.582.582,0,0,0-.111.578,4.6,4.6,0,0,0,.379.643,1.119,1.119,0,0,0,.368.264.238.238,0,0,0,.19-.037,2.394,2.394,0,0,0,.312-.238.216.216,0,0,0,.049-.128,2.1,2.1,0,0,0,0-.21c0-.323.083-.4.407-.43.146-.011.288-.061.433-.085.034-.006.1.017.1.03.015.23.227.44.049.692-.057.081-.034.214-.068.317a1.222,1.222,0,0,1-.574.652,1.859,1.859,0,0,1-1.4.312,1.2,1.2,0,0,1-.74-.486c-.1-.163-.261-.294-.35-.462a2.125,2.125,0,0,1-.231-.627,1.5,1.5,0,0,1,.663-1.511C207.907,3805.691,207.943,3805.6,207.965,3805.575Z" fill="#002b7f"/>
      <path id="Path_169" data-name="Path 169" d="M218.643,3801.532c-.139-.1-.28-.141-.392.04.162.3.6.34.664.712-.161.2-.318.4-.489.592a.194.194,0,0,1-.187.012c-.345-.276-.68-.565-1.021-.847-.325-.268-.655-.53-.979-.8a1.767,1.767,0,0,1-.324-.328.272.272,0,0,1,.007-.254,3.827,3.827,0,0,1,.441-.45c.038-.035.118-.024.149-.029.116-.243.219-.491.353-.72a.4.4,0,0,1,.267-.18,3.153,3.153,0,0,1,.76.03,1.4,1.4,0,0,1,.737.463,1.134,1.134,0,0,1,.3,1.058.562.562,0,0,1-.3.465C218.609,3801.3,218.637,3801.438,218.643,3801.532Zm-1.567-1c.117.108.261.22.382.354s.259.2.418.087c.206-.142.228-.23.077-.442-.1-.146-.2-.307-.435-.316A.382.382,0,0,0,217.076,3800.527Z" fill="#002b7f"/>
      <path id="Path_170" data-name="Path 170" d="M173.58,3800.8a5.518,5.518,0,0,1-.439-.524.209.209,0,0,1,.067-.333,2.732,2.732,0,0,0,.322-.291c.253-.2.512-.4.768-.6l.049-.039c.282-.248.561-.5.846-.743.1-.084.212-.152.344-.245a4.53,4.53,0,0,1,.458.515c.168.255.11.364-.156.531a3.851,3.851,0,0,0-.425.363c.111.053.164.082.22.1.266.109.36.33.481.58.138.285-.023.5-.039.739-.01.137-.18.269-.294.389a1.544,1.544,0,0,1-.319.259,1.81,1.81,0,0,1-.422.2.962.962,0,0,1-1.191-.527.525.525,0,0,1-.043-.219C173.8,3800.711,173.795,3800.7,173.58,3800.8Zm1.053.007c.108-.066.194-.122.283-.173a.385.385,0,0,0,.131-.627c-.15-.12-.3-.095-.5.135C174.229,3800.52,174.242,3800.666,174.633,3800.811Z" fill="#002b7f"/>
      <path id="Path_171" data-name="Path 171" d="M196.874,3812.743c-.02-.522-.034-1.046-.06-1.569-.024-.483-.059-.966-.09-1.449l0-.021c-.054-.264-.054-.255.228-.266.148-.006.293-.063.441-.069a.8.8,0,0,1,.251.079l-.017.051a3.613,3.613,0,0,1,.649-.233.9.9,0,0,1,.913.525,1.965,1.965,0,0,1,.111,1.365c-.054.319-.305.42-.475.612a.147.147,0,0,1-.114.038c-.272-.035-.559.086-.819-.078a.1.1,0,0,0-.09.022.252.252,0,0,0,0,.113c.022.252.047.5.06.756,0,.021-.083.064-.129.066-.161.009-.323,0-.484.006C197.139,3812.7,197.034,3812.719,196.874,3812.743Zm1.254-1.654c.045-.052.1-.121.163-.187a.817.817,0,0,0,.069-.666c-.1-.144-.266-.258-.4-.161s-.273.315-.241.435C197.772,3810.721,197.777,3811.024,198.128,3811.089Z" fill="#002b7f"/>
      <path id="Path_172" data-name="Path 172" d="M172.618,3799.581c-.147-.231-.3-.452-.431-.684-.033-.059,0-.153,0-.267a1.772,1.772,0,0,1-.249-.151,1.306,1.306,0,0,1-.5-1.218c.031-.318.658-.6.875-.423.259.208.5.441.753.657.068.058.1.207.249.123a.952.952,0,0,1,.1.127c.112-.047.14-.1.063-.22-.1-.155-.181-.314-.409-.293-.043,0-.107-.05-.135-.093-.113-.174-.214-.355-.323-.531a.167.167,0,0,1,.134-.245,1.157,1.157,0,0,1,.835.183.719.719,0,0,1,.15.216,8.378,8.378,0,0,1,.48.751.9.9,0,0,1-.418,1.229,7.556,7.556,0,0,0-.713.5C172.924,3799.347,172.777,3799.462,172.618,3799.581Zm-.248-1.925c-.16.15-.2.261-.069.4.222.232.321.249.586.044Z" fill="#002b7f"/>
      <path id="Path_173" data-name="Path 173" d="M177.6,3802.789a.84.84,0,0,1,.392-.213c.435-.143.73.138,1.029.309a2.494,2.494,0,0,1,.639.7,1,1,0,0,1-.162.994c-.3.358-.579.74-.873,1.106a.163.163,0,0,1-.156.027c-.208-.162-.4-.336-.614-.512l.094-.18c-.041-.022-.075-.056-.109-.057a1.392,1.392,0,0,1-1.019-.654c-.181-.214.017-.86.264-1a1.646,1.646,0,0,1,.821.077c.264.154.538.292.813.425.041.02.112-.023.169-.036-.033-.047-.064-.1-.1-.141s-.081-.132-.139-.16c-.117-.057-.229-.163-.386-.055-.038.026-.173-.042-.228-.1C177.887,3803.159,177.756,3802.98,177.6,3802.789Zm.778,1.538-.014-.078a3.176,3.176,0,0,0-.5-.158c-.132-.02-.246.167-.16.229a1.07,1.07,0,0,0,.436.19C178.208,3804.521,178.3,3804.392,178.38,3804.327Z" fill="#002b7f"/>
      <path id="Path_174" data-name="Path 174" d="M218.3,3799.009c-.1-.08-.213-.125-.235-.2a1.214,1.214,0,0,1-.072-.685,4.148,4.148,0,0,1,.643-1.073.622.622,0,0,1,.52-.261,1.3,1.3,0,0,1,.981.363,7.141,7.141,0,0,0,.754.442c.076.049.161.189.141.26a1.305,1.305,0,0,1-.241.457,1.215,1.215,0,0,1-.319.2,3.326,3.326,0,0,1-.235.665.969.969,0,0,1-.849.594.518.518,0,0,1-.469-.284c-.084-.146-.215-.27-.158-.448.091-.288.207-.567.307-.853.051-.145.091-.3.129-.445,0-.018-.04-.071-.06-.07a.391.391,0,0,0-.195.04.491.491,0,0,0-.117.51.183.183,0,0,1-.028.148C218.648,3798.58,218.487,3798.779,218.3,3799.009Zm1.371-.962a1.131,1.131,0,0,1-.135.351c-.125.142-.031.253.028.353a.229.229,0,0,0,.222.029A.484.484,0,0,0,219.676,3798.047Z" fill="#002b7f"/>
      <path id="Path_175" data-name="Path 175" d="M182.549,3808.409l-.768-.469c-.126-.078-.08-.166-.022-.263.216-.364.432-.727.639-1.1a.192.192,0,0,0-.126-.286c-.1-.034-.225-.073-.316.094-.195.355-.425.69-.644,1.032-.041.064-.094.121-.146.187-.261-.17-.5-.315-.719-.476a.2.2,0,0,1-.04-.181,1.683,1.683,0,0,1,.27-.539,7.521,7.521,0,0,0,.7-1.147,2.406,2.406,0,0,1,.242-.269c.188.112.361.208.525.317.07.047.173.124.17.184-.009.183.1.166.214.166a.883.883,0,0,1,.888.532.8.8,0,0,1,.015.58c-.241.5-.539.97-.813,1.452A1.581,1.581,0,0,0,182.549,3808.409Z" fill="#002b7f"/>
      <path id="Path_176" data-name="Path 176" d="M219.973,3795.4a.73.73,0,0,1,.02-.7c.051-.082.083-.176.127-.263a.64.64,0,0,1,.864-.3c.3.14.587.3.882.444.194.1.391.188.585.285a1.078,1.078,0,0,1,.129.08,2.536,2.536,0,0,1-.128.426,2.687,2.687,0,0,1-.285.426c-.018.023-.1,0-.146,0-.075-.006-.149-.016-.238-.027l.047-.113c-.269-.118-.541-.236-.812-.356a.166.166,0,0,1-.068-.047c-.12-.178-.221-.131-.345.006a.221.221,0,0,0,.032.372,1.318,1.318,0,0,0,.187.128c.316.174.636.34.948.521a.188.188,0,0,1,.061.172c-.132.268-.28.528-.424.793-.307-.19-.567-.358-.833-.513a4.535,4.535,0,0,0-.527-.261c-.052-.021-.131.02-.209.034l.034-.112-.59-.313c.133-.237.245-.452.375-.656C219.731,3795.308,219.835,3795.224,219.973,3795.4Z" fill="#002b7f"/>
      <path id="Path_177" data-name="Path 177" d="M223.7,3790.146c.092.109.175.207.257.306.023.027.064.055.063.081a7.537,7.537,0,0,1-.059,1.011,2.33,2.33,0,0,1-.279.664.743.743,0,0,1-.552.377c-.1.018-.2.088-.291.079-.188-.019-.371-.084-.559-.117-.293-.052-.446-.289-.63-.477a.53.53,0,0,1-.145-.328,3.892,3.892,0,0,1,.044-.843,1.358,1.358,0,0,1,.258-.527,3.9,3.9,0,0,1,.475-.477.2.2,0,0,1,.136-.036c.3.025.6.051.9.09a.162.162,0,0,1,.093.129,4.191,4.191,0,0,1-.123.475c-.1.329-.213.656-.309.988-.013.044.035.106.055.159a.41.41,0,0,0,.14-.073c.128-.15.314-.28.158-.529a.362.362,0,0,1,0-.287c.09-.217.207-.422.317-.63C223.665,3790.161,223.7,3790.151,223.7,3790.146Zm-1.154.841-.046-.154a1.09,1.09,0,0,0-.179.065c-.261.143-.274.356-.028.51.034.021.132.011.138-.007C222.48,3791.274,222.509,3791.142,222.55,3790.987Z" fill="#002b7f"/>
      <path id="Path_178" data-name="Path 178" d="M196.11,3811.824c-.242-.006-.46,0-.676-.022-.073-.006-.138-.073-.211-.1-.047-.02-.134-.046-.146-.029-.125.179-.308.136-.479.138h-.231a.678.678,0,0,1-.713-.718c0-.253-.014-.506,0-.758.016-.294.051-.588.088-.88a.143.143,0,0,1,.1-.093c.246-.009.492-.011.737,0a.173.173,0,0,1,.118.121c.012.267.011.534.006.8a.382.382,0,0,1-.064.148.624.624,0,0,0,.1.569.157.157,0,0,0,.078.025.443.443,0,0,0,.415-.376c0-.2,0-.407,0-.61s.009-.378.023-.567c0-.033.046-.088.074-.09a2.172,2.172,0,0,1,.331.006c.115.012.228.05.343.053.274.007.369.151.264.408a.8.8,0,0,0-.066.274c-.006.428.007.856-.006,1.284A2.211,2.211,0,0,1,196.11,3811.824Z" fill="#002b7f"/>
      <path id="Path_179" data-name="Path 179" d="M213.254,3805.646a1.38,1.38,0,0,1-.779,1.262,2.145,2.145,0,0,1-.755.237,1.217,1.217,0,0,1-1.137-.87,1.4,1.4,0,0,1,.951-1.734,1.1,1.1,0,0,1,.933-.013,1.375,1.375,0,0,1,.577.576A4.709,4.709,0,0,1,213.254,3805.646Zm-1.33.72a2.245,2.245,0,0,0,.231-.114c.216-.135.226-.228.13-.462a.9.9,0,0,0-.328-.4.318.318,0,0,0-.461.033.3.3,0,0,0-.021.456C211.623,3806.045,211.776,3806.206,211.924,3806.366Z" fill="#002b7f"/>
      <path id="Path_180" data-name="Path 180" d="M191.476,3808.96a1.855,1.855,0,0,0,.355.042,1.761,1.761,0,0,1,.819.189.932.932,0,0,0,.227.04,3.562,3.562,0,0,1,.228.414c.1.254.292.495.127.8a2,2,0,0,0-.1.373,1.162,1.162,0,0,1-1,.735,2.155,2.155,0,0,1-1.055-.236,1.092,1.092,0,0,1-.487-.626,1.27,1.27,0,0,1,.079-1.056,2.853,2.853,0,0,1,.549-.518A1.769,1.769,0,0,1,191.476,3808.96Zm.476.707a1.157,1.157,0,0,0-.166.11c-.134.129-.274.243-.258.473.006.086-.108.177,0,.286.081.084.132.2.217.275a.224.224,0,0,0,.192.021,1.03,1.03,0,0,0,.4-.7.214.214,0,0,0-.041-.071,2.46,2.46,0,0,0-.163-.24A1.484,1.484,0,0,0,191.952,3809.667Z" fill="#002b7f"/>
      <path id="Path_181" data-name="Path 181" d="M202.659,3808.615c.222.04.446.07.664.125a.431.431,0,0,1,.191.156,1.464,1.464,0,0,1,.4,1.219,1.333,1.333,0,0,1-.381.668,1.454,1.454,0,0,1-1.335.4,1.124,1.124,0,0,1-1-1.117c0-.077,0-.155,0-.232a1.175,1.175,0,0,1,.863-1.095c.1-.025.193-.07.292-.085a1.935,1.935,0,0,1,.294,0Zm-.49,1.174a.685.685,0,0,0,.208.523.3.3,0,0,0,.5-.071c.175-.243.04-.456-.03-.665a.421.421,0,0,0-.281-.214C202.326,3809.312,202.171,3809.5,202.169,3809.789Z" fill="#002b7f"/>
      <path id="Path_182" data-name="Path 182" d="M223.653,3789.718a.62.62,0,0,0,.078-.58c-.024-.077.064-.2.128-.288.084-.111.2-.2.291-.3a.185.185,0,0,0,.03-.158,1.189,1.189,0,0,0-.148-.211,1.409,1.409,0,0,0-.146.213c-.1.206-.187.416-.269.628a.848.848,0,0,1-.652.488.655.655,0,0,1-.688-.576c0-.162,0-.323,0-.485a1.367,1.367,0,0,1,.219-.876c.023-.03-.007-.1-.011-.132a1,1,0,0,0,.223-.16.382.382,0,0,1,.367-.149c.171.016.218.084.144.245-.018.037-.062.079-.054.109.083.349-.126.593-.293.855a.489.489,0,0,0-.029.192c.067-.037.166-.057.2-.113.1-.189.173-.389.254-.586a.916.916,0,0,1,.464-.563c.329-.145.982.069.982.532,0,.1.085.212.079.315a2.62,2.62,0,0,1-.378,1.35,1.394,1.394,0,0,1-.525.359C223.867,3789.85,223.76,3789.764,223.653,3789.718Z" fill="#002b7f"/>
      <path id="Path_183" data-name="Path 183" d="M181.365,3754.388c.045.1.076.17.1.238.02.048.068.126.054.14-.171.165,0,.283.06.4.12.224.27.431.4.65a5.225,5.225,0,0,1,.362.653,1.741,1.741,0,0,1,.247.9c-.025.193.007.393-.009.588-.014.178-.058.354-.089.531l-.053.008c-.126-.225-.243-.456-.38-.675-.2-.316-.407-.623-.614-.933s-.409-.605-.61-.909a4.347,4.347,0,0,0-.408-.618.56.56,0,0,1-.111-.528,8.7,8.7,0,0,1,.229-.843c.015-.052.005-.112.02-.164.023-.079.059-.155.106-.275C180.94,3753.869,181.051,3754.251,181.365,3754.388Z" fill="#002b7f"/>
      <path id="Path_184" data-name="Path 184" d="M204.874,3807.771c.127.212.233.213.341.079.179.091.365.473.281.631-.052.095-.186.147-.308.236l.316,1.059a.523.523,0,0,0,.041.094.325.325,0,0,1-.158.512,2.24,2.24,0,0,1-.559.178c-.054.007-.155-.159-.2-.261-.086-.22-.148-.45-.219-.676-.049-.155-.087-.314-.146-.465s-.156-.219-.34-.04l-.247-.7c0-.008.005-.018.01-.02.293-.107.251-.355.232-.58-.039-.489.311-.654.719-.746.139-.032.279-.065.419-.09.112-.02.184,0,.186.147a3.277,3.277,0,0,0,.082.332c.006.041-.047.107-.091.132C205.126,3807.659,205,3807.709,204.874,3807.771Z" fill="#002b7f"/>
      <path id="Path_185" data-name="Path 185" d="M176.711,3803.151l-.451.565c-.2-.145-.367-.276-.544-.393a.774.774,0,0,1-.315-.581.714.714,0,0,1,.181-.459,6.639,6.639,0,0,1,.589-.6.23.23,0,0,0,.05-.334c-.029-.042-.061-.128-.041-.151a3.492,3.492,0,0,1,.423-.443c.022-.019.151.088.238.141a.728.728,0,0,1,.853-.055c.159.071.325.128.559.22-.176.155-.32.285-.469.41s-.165.25-.012.386a.2.2,0,0,1,0,.327l-.164.164c-.232.229-.234.229-.422-.021-.077-.1-.152-.13-.252-.014s-.233.243-.353.361C176.357,3802.9,176.382,3803.021,176.711,3803.151Z" fill="#002b7f"/>
      <path id="Path_186" data-name="Path 186" d="M168.436,3790.947l3.1-1.005c.087.219.16.436.257.641s.08.326-.183.384a9.543,9.543,0,0,0-.953.295c-.3.1-.587.213-.885.308-.251.081-.509.143-.762.218a2.776,2.776,0,0,0-.263.113Z" fill="#002b7f"/>
      <path id="Path_187" data-name="Path 187" d="M189.871,3808.688c.219-.15.461.009.7.1.054.02.1.187.075.263a1.077,1.077,0,0,1-.215.325c-.087.106-.165.22-.341.085-.125-.1-.369.013-.449.2a5.9,5.9,0,0,0-.2.621,2.856,2.856,0,0,1-.188.578c-.093.163-.276.089-.425.041a2.35,2.35,0,0,0-.4-.136c-.177-.022-.14-.116-.113-.222.053-.209.1-.419.162-.626.073-.253.162-.5.233-.754a3.95,3.95,0,0,0,.116-.537c.024-.177.144-.275.3-.223.167.058.337.1.5.165A2.28,2.28,0,0,1,189.871,3808.688Z" fill="#002b7f"/>
      <path id="Path_188" data-name="Path 188" d="M179.007,3806.1c.339-.477.648-.916.961-1.353.112-.157.243-.3.35-.463.124-.187.255-.092.367-.01a3.794,3.794,0,0,1,.377.339.214.214,0,0,1-.034.374.257.257,0,0,0-.087.09,6.868,6.868,0,0,1-.738,1.082,1.71,1.71,0,0,0-.24.361c-.055.133-.143.143-.229.088C179.48,3806.446,179.237,3806.264,179.007,3806.1Z" fill="#002b7f"/>
      <path id="Path_189" data-name="Path 189" d="M220.634,3793.358l.413-.871c.537.244,1.038.472,1.54.7a2.557,2.557,0,0,0,.439.168c.181.043.158.185.126.28-.081.244-.2.478-.3.723-.295-.131-.564-.252-.834-.37-.415-.18-.833-.356-1.248-.537A.882.882,0,0,1,220.634,3793.358Z" fill="#002b7f"/>
      <path id="Path_190" data-name="Path 190" d="M211.811,3752.9c.1.182.195.35.28.524a2.205,2.205,0,0,0,.127.324c.11.158,0,.241-.1.269a4.992,4.992,0,0,1-.646.1c-.1.013-.159-.015-.173-.145-.028-.25-.1-.293-.353-.292-.377,0-.43-.05-.526-.436a1.612,1.612,0,0,0-.147-.3c-.1-.2-.027-.318.191-.321a.494.494,0,0,0,.185-.019c.319-.126.356-.116.506.166C211.27,3753,211.52,3753.056,211.811,3752.9Z" fill="#002b7f"/>
      <path id="Path_191" data-name="Path 191" d="M203.817,3750.8l.4.414a1.419,1.419,0,0,1,.254-.138c.125-.037.243-.091.344.095a7.361,7.361,0,0,0,.521.735c-.127.071-.234.14-.349.194a2.885,2.885,0,0,1-.38.148.176.176,0,0,1-.15-.024c-.1-.118-.19-.249-.268-.355l-.711.231c.153-.186.031-.279-.067-.39a1.746,1.746,0,0,1-.261-.347c-.071-.135,0-.241.132-.3C203.456,3750.973,203.624,3750.89,203.817,3750.8Z" fill="#002b7f"/>
      <path id="Path_192" data-name="Path 192" d="M186.087,3752.717c.074-.11.142-.206.2-.3a.222.222,0,0,1,.331-.1c.264.129.538.236.844.367l-.492.716c-.18-.008-.323-.192-.5-.068a.367.367,0,0,0-.108.11.3.3,0,0,1-.423.133c-.206-.088-.419-.157-.627-.241-.037-.015-.093-.075-.086-.088a6.783,6.783,0,0,1,.351-.643c.027-.042.153-.047.223-.029A1.432,1.432,0,0,1,186.087,3752.717Z" fill="#002b7f"/>
      <path id="Path_193" data-name="Path 193" d="M171.444,3772.8a3.524,3.524,0,0,0-.223-.576c-.089-.151-.015-.205.086-.263a2.945,2.945,0,0,1,.28-.129l-.127-.487.924-.339a6.489,6.489,0,0,1,.263.632c.017.051-.076.171-.145.208-.173.092-.26.185-.13.376a.149.149,0,0,1-.006.143,2.546,2.546,0,0,1-.431.277A3.809,3.809,0,0,1,171.444,3772.8Z" fill="#002b7f"/>
      <path id="Path_194" data-name="Path 194" d="M205.064,3750.511c-.236.122-.471.251-.713.36a.212.212,0,0,1-.183-.065c-.237-.275-.464-.559-.678-.821l.238-.1c.188-.08.374-.165.566-.236a.164.164,0,0,1,.139.051C204.64,3749.955,204.839,3750.218,205.064,3750.511Z" fill="#002b7f"/>
      <path id="Path_195" data-name="Path 195" d="M166.527,3775.549c-.123-.243-.247-.478-.357-.721-.016-.034.028-.118.067-.149.167-.132.347-.248.514-.38a.246.246,0,0,1,.412.082c.029.056.054.113.083.168.177.344.138.452-.21.652C166.87,3775.3,166.718,3775.418,166.527,3775.549Z" fill="#002b7f"/>
      <path id="Path_196" data-name="Path 196" d="M219.469,3769.928c.044-.164.1-.416.189-.657.016-.041.167-.065.242-.046a2.332,2.332,0,0,1,.453.182.172.172,0,0,1,.08.142c-.037.163-.1.322-.145.482-.011.033-.024.065-.032.1-.018.077-.029.218-.052.22a1.764,1.764,0,0,1-.383-.027c-.046-.006-.087-.043-.133-.048C219.47,3770.25,219.47,3770.252,219.469,3769.928Z" fill="#002b7f"/>
      <path id="Path_197" data-name="Path 197" d="M179.092,3761.171c.094.023.17.05.248.061.236.032.473.054.708.093.029.005.068.088.063.132-.012.126-.06.249-.065.375-.009.277-.168.375-.427.251a.512.512,0,0,0-.507.007C178.98,3761.973,178.98,3761.973,179.092,3761.171Z" fill="#002b7f"/>
      <path id="Path_198" data-name="Path 198" d="M175.775,3764.374c.363-.027.65-.047.935-.072.127-.011.181.033.174.165-.008.162-.005.324,0,.485,0,.107-.036.144-.145.153-.19.015-.378.061-.568.079-.123.012-.265.06-.264-.175A3.213,3.213,0,0,0,175.775,3764.374Z" fill="#002b7f"/>
      <path id="Path_199" data-name="Path 199" d="M181.791,3803.976c-.2.219-.344.383-.494.544a.078.078,0,0,1-.076-.008c-.185-.2-.469-.289-.623-.528-.015-.023-.041-.061-.033-.073a2.256,2.256,0,0,1,.32-.424c.038-.033.2.06.3.11.134.071.261.157.39.237C181.636,3803.874,181.7,3803.915,181.791,3803.976Z" fill="#002b7f"/>
      <path id="Path_200" data-name="Path 200" d="M220.255,3792.14l.6.29c-.081.225-.161.455-.247.682-.019.05-.065.13-.094.129a1.485,1.485,0,0,1-.483-.076.306.306,0,0,1-.117-.276A8.008,8.008,0,0,1,220.255,3792.14Z" fill="#002b7f"/>
      <path id="Path_201" data-name="Path 201" d="M196.024,3774.763c.059.242.111.486.176.726.059.217.134.43.2.647.054.188.1.378.152.567.028.1.055.21.088.313.11.341.232.68.333,1.024.079.267.125.542.2.809.06.217.14.428.21.642.1.316.205.634.312.95s.221.614.323.924c.076.231.135.468.208.7.078.248.161.494.247.738.116.328.237.654.356.981l.364,1c.114.313.225.628.344.94s.256.635.379.955c.111.286.208.577.322.862s.257.594.38.893c.2.481.385.969.594,1.446.2.462.425.915.644,1.369.12.251.272.488.372.746a.86.86,0,0,1,.014.451c-.012.06-.148.135-.229.137-.512.012-1.025.008-1.538,0a.192.192,0,0,1-.143-.1c-.124-.338-.233-.681-.352-1.022-.078-.225-.164-.447-.244-.672-.1-.27-.19-.541-.286-.811-.062-.174-.132-.345-.192-.519-.113-.326-.221-.654-.332-.981-.1-.3-.2-.593-.3-.889-.131-.38-.262-.76-.4-1.139-.1-.263-.2-.521-.3-.784-.112-.32-.209-.645-.32-.965-.091-.265-.2-.524-.29-.788-.141-.411-.268-.828-.414-1.237a3.839,3.839,0,0,0-.3-.7.574.574,0,0,0-.537-.289.77.77,0,0,0-.719.316,1.726,1.726,0,0,0-.178.361,9.3,9.3,0,0,0-.515,1.5c-.08.439-.29.82-.39,1.244-.1.4-.27.784-.4,1.177-.1.3-.189.608-.289.91s-.215.615-.317.924-.194.61-.293.915-.193.594-.294.89-.215.617-.323.925c-.1.277-.2.552-.289.83a3.3,3.3,0,0,0-.142.51.414.414,0,0,1-.438.4h-1.306a.312.312,0,0,1-.307-.47c.259-.555.531-1.1.778-1.663.15-.343.258-.7.394-1.054.087-.224.2-.439.283-.663.2-.515.4-1.034.6-1.549.082-.211.187-.414.269-.625.09-.234.162-.475.247-.711.068-.186.148-.368.215-.555.137-.378.269-.757.4-1.136.089-.251.18-.5.268-.753s.167-.5.253-.75c.068-.2.142-.4.211-.6.108-.314.224-.626.316-.945a2.692,2.692,0,0,1,.133-.62,2.9,2.9,0,0,0,.246-.619c.083-.251.161-.5.24-.756.112-.354.226-.708.334-1.064.069-.228.123-.46.192-.688.108-.357.225-.711.333-1.068.041-.136.068-.277.1-.416q.136-.556.274-1.113Z" fill="#002b7f"/>
      <path id="Path_202" data-name="Path 202" d="M196.056,3792.583h-1.473c-.228,0-.287-.114-.21-.332.123-.351.22-.711.334-1.065.093-.292.193-.581.293-.87s.217-.6.316-.9c.148-.45.29-.9.43-1.355.068-.219.126-.442.193-.661.01-.034.047-.06.072-.089.033.029.085.051.1.087.146.423.292.846.425,1.273.1.331.181.668.281,1,.051.171.129.333.187.5.088.256.166.515.253.771.12.355.244.708.366,1.063.054.16.113.319.152.482,0,.019-.1.094-.159.095C197.094,3792.585,196.575,3792.582,196.056,3792.583Z" fill="#002b7f"/>
      <path id="Path_203" data-name="Path 203" d="M197.342,3768.723c0-.3,0-.6,0-.9,0-.1-.017-.2-.025-.3a1.345,1.345,0,0,0,.287.033,3.547,3.547,0,0,1,1,.192c.047.008.091.064.126.107a.938.938,0,0,1,.186,1.108,1.923,1.923,0,0,1-.49.508,3.873,3.873,0,0,1-.689.356c-.246.108-.393,0-.393-.259Z" fill="#002b7f"/>
      <path id="Path_204" data-name="Path 204" d="M194.616,3763.993c0,.274-.01.548,0,.82.008.164-.05.211-.205.2a1.9,1.9,0,0,0-.4,0,1.041,1.041,0,0,1-.76-.276,1.433,1.433,0,0,1-.313-.3.549.549,0,0,1-.145-.345,1.04,1.04,0,0,1,.47-.646,4.419,4.419,0,0,1,1.156-.438c.117-.043.2,0,.2.151C194.61,3763.432,194.616,3763.713,194.616,3763.993Z" fill="#002b7f"/>
      <path id="Path_205" data-name="Path 205" d="M195.126,3762.87h.565a.571.571,0,0,1,.065.2c.007.589,0,1.177.006,1.766,0,.125-.029.18-.164.172-.173-.011-.346,0-.536,0,0-.688,0-1.346,0-2A.283.283,0,0,1,195.126,3762.87Z" fill="#002b7f"/>
      <path id="Path_206" data-name="Path 206" d="M196.813,3768.656c0,.336-.006.673,0,1.008,0,.143-.048.177-.182.177-.432,0-.432.006-.432-.427,0-.581,0-1.162,0-1.743,0-.149.026-.213.194-.21.421.006.422,0,.423.418,0,.259,0,.518,0,.777Z" fill="#002b7f"/>
      <path id="Path_207" data-name="Path 207" d="M195.759,3769.655a1.712,1.712,0,0,1-.383,0c-.25-.063-.313-.168-.313-.439v-1.656c.209,0,.41,0,.609.005.031,0,.083.075.083.115C195.76,3768.327,195.759,3768.978,195.759,3769.655Z" fill="#002b7f"/>
      <path id="Path_208" data-name="Path 208" d="M196.2,3763.888c0-.309,0-.617,0-.925,0-.106.027-.156.141-.151.582.023.464-.1.474.447.009.519,0,1.037,0,1.556,0,.139-.022.2-.183.2-.431-.01-.431,0-.431-.43v-.694Z" fill="#002b7f"/>
      <path id="Path_209" data-name="Path 209" d="M195.063,3770.913c.719-.054.713-.056.7.557,0,.133-.009.267,0,.4s-.048.166-.173.165c-.507-.006-.544.049-.527-.527C195.068,3771.313,195.063,3771.118,195.063,3770.913Z" fill="#002b7f"/>
      <path id="Path_210" data-name="Path 210" d="M196.2,3771.483c0-.119-.006-.239,0-.358.009-.138.038-.264.227-.162a.241.241,0,0,0,.1.015c.281.013.282.013.283.3,0,.2,0,.393,0,.589,0,.115-.029.161-.153.165C196.2,3772.049,196.2,3772.053,196.2,3771.483Z" fill="#002b7f"/>
    </g>
    <g id="Group_76" data-name="Group 76">
      <path id="Path_211" data-name="Path 211" d="M196.2,3815.554a34.446,34.446,0,1,1,13.45-2.715A34.333,34.333,0,0,1,196.2,3815.554Zm0-68.23A33.676,33.676,0,1,0,229.874,3781,33.714,33.714,0,0,0,196.2,3747.324Z" fill="#002b7f"/>
    </g>
    <g id="Group_77" data-name="Group 77">
      <path id="Path_212" data-name="Path 212" d="M196.2,3816.8a35.7,35.7,0,1,1,13.937-2.814A35.585,35.585,0,0,1,196.2,3816.8Zm0-71.171A35.366,35.366,0,1,0,231.564,3781,35.406,35.406,0,0,0,196.2,3745.634Z" fill="#002b7f"/>
    </g>
  </g>
</svg>
