<?xml version="1.0" encoding="utf-8"?>
<!-- Generator: Adobe Illustrator 23.1.0, SVG Export Plug-In . SVG Version: 6.00 Build 0)  -->
<svg version="1.1" id="Layer_1" xmlns="http://www.w3.org/2000/svg" xmlns:xlink="http://www.w3.org/1999/xlink" x="0px" y="0px"
	 viewBox="0 0 22 18.9" style="enable-background:new 0 0 22 18.9;" xml:space="preserve">
<style type="text/css">
	.st0{fill:#007BFF;}
</style>
<path class="st0" d="M15.1,0h-1.2H8.1H6.9H0v6v1v5v1v6h6.9h1.2h5.8h1.2H22v-6v-1v-5V6V0H15.1z M8.1,1h5.8v5H8.1V1z M13.9,11.9H8.1
	v-5h5.8V11.9z M1.2,1h5.8v5H1.2V1z M1.2,6.9h5.8v5H1.2V6.9z M6.9,17.9H1.2v-5h5.8V17.9z M13.9,17.9H8.1v-5h5.8V17.9z M20.8,17.9
	h-5.8v-5h5.8V17.9z M20.8,11.9h-5.8v-5h5.8V11.9z M15.1,6V1h5.8v5H15.1z"/>
</svg>
