<svg xmlns="http://www.w3.org/2000/svg" width="179.764" height="36.776" viewBox="0 0 179.764 36.776"><defs><style>.a{fill:#2b2b2b;}</style></defs><g transform="translate(-1178 -373.764)"><g transform="translate(1246 370.648)"><path class="a" d="M-51.192.2c3.078,0,3.942-1.854,3.942-4.428V-5.4h-2.556v1.314c0,1.3-.054,2.322-1.368,2.322-1.17,0-1.494-.756-1.494-2.34v-6.318c0-1.332.126-2.376,1.494-2.376,1.35,0,1.368.99,1.368,2.214v1.26h2.556v-1.224c0-2.538-.954-4.194-3.942-4.194-3.2,0-4.158,1.89-4.158,4.878v5.2C-55.35-1.818-54.4.2-51.192.2Zm9.774,0c3.114,0,4.194-1.836,4.194-4.77v-5.472c0-2.952-1.08-4.7-4.194-4.7-3.132,0-4.212,1.746-4.212,4.7v5.472C-45.63-1.62-44.568.2-41.418.2Zm0-1.962c-1.314,0-1.512-.972-1.512-2.178v-6.714c0-1.224.216-2.142,1.512-2.142s1.494.918,1.494,2.142v6.714C-39.924-2.736-40.122-1.764-41.418-1.764ZM-35.3,0h2l.2-10.17L-31,0h1.6l2.07-10.134L-27.108,0h1.98l-.27-14.58H-28.08l-2.142,10.1-2.07-10.1h-2.754Zm12.33,0h2.646V-6.48h1.458c2.358,0,3.906-1.1,3.906-3.96,0-2.628-1.116-4.14-3.726-4.14h-4.284Zm2.646-8.352v-4.356H-19.3c1.638,0,1.836.684,1.836,2.25,0,1.548-.378,2.106-1.836,2.106ZM-14.976,0h2.5l.594-3.366h2.538L-8.766,0H-6.3L-9.216-14.58H-12.06Zm3.366-5.058.99-6.12.99,6.12ZM-4.842,0h2.268V-8.712L.99,0H2.754V-14.58H.558v8.316L-2.988-14.58H-4.842ZM7,0H9.54V-5.562l2.916-9.018h-2.43L8.334-8.8l-1.8-5.778H4.05L7-5.562ZM18.108,0h2.268V-8.712L23.94,0H25.7V-14.58h-2.2v8.316L19.962-14.58H18.108ZM27.18,0h2.5l.594-3.366h2.538L33.39,0h2.466L32.94-14.58H30.1Zm3.366-5.058.99-6.12.99,6.12ZM37.278,0h2l.2-10.17L41.58,0h1.6l2.07-10.134L45.468,0h1.98l-.27-14.58H44.5l-2.142,10.1-2.07-10.1H37.53Zm12.33,0h6.156V-1.818h-3.51V-6.66H54.99V-8.514H52.254v-4.194h3.474V-14.58h-6.12Z" transform="translate(56 21)"/><path class="a" d="M-40.052,0h.592V-2.152l1.424-4.328h-.6l-1.12,3.6-1.168-3.6h-.592l1.464,4.328ZM-34.2.08c1.272,0,1.656-.816,1.656-1.984V-4.6c0-1.168-.408-1.944-1.656-1.944-1.264,0-1.672.768-1.672,1.944v2.688C-35.868-.736-35.484.08-34.2.08Zm0-.488c-.864,0-1.056-.552-1.056-1.368V-4.712c0-.824.192-1.344,1.056-1.344.848,0,1.04.52,1.04,1.344v2.936C-33.156-.96-33.348-.408-34.2-.408Zm5.848.488c1.28,0,1.648-.768,1.648-1.848V-6.48h-.584v4.728c0,.76-.232,1.344-1.064,1.344-.872,0-1.064-.584-1.064-1.344V-6.48H-30v4.712C-30-.688-29.676.08-28.348.08ZM-24.036,0h.608V-3.184h1.016L-21.46,0h.592l-.992-3.312c.7-.152.9-.784.9-1.52,0-1.024-.4-1.648-1.608-1.648h-1.464Zm.608-3.632V-6.024h.84c.824,0,1.032.392,1.032,1.192s-.248,1.2-1.048,1.2ZM-14.308,0h.608V-6.008h1.192V-6.48h-3.024v.472h1.224Zm3.56,0h.592l.328-1.736h1.544L-7.964,0h.6L-8.74-6.48h-.64ZM-9.74-2.176l.688-3.5.688,3.5ZM-3.532.088A1.112,1.112,0,0,0-2.364-.736L-2.292,0H-1.9V-3.136H-3.42v.456h.96v.76c0,.96-.216,1.512-1.016,1.512-.84,0-1.04-.552-1.04-1.5V-4.568c0-.864.136-1.488,1.032-1.488.792,0,.984.464.984,1.376v.224h.576V-4.68c0-1.192-.408-1.864-1.568-1.864-1.3,0-1.64.8-1.64,2.04v2.528C-5.132-.736-4.764.088-3.532.088ZM.756,0H3.2V-.456H1.364V-6.48H.756ZM5.428,0h.608V-6.48H5.428Zm3.36,0h.528V-5.088L11.388,0h.432V-6.48h-.528v5.032L9.228-6.48h-.44ZM14.54,0H16.9V-.456H15.156V-3.128h1.408v-.448H15.156V-6.008h1.728V-6.48H14.54Zm8.016,0h.616V-3.152h2.04V0h.608V-6.48h-.608v2.872h-2.04V-6.48h-.616Zm5.992,0h2.36V-.456H29.164V-3.128h1.408v-.448H29.164V-6.008h1.728V-6.48H28.548ZM33.34,0h.608V-3.184h1.016L35.916,0h.592l-.992-3.312c.7-.152.9-.784.9-1.52,0-1.024-.4-1.648-1.608-1.648H33.34Zm.608-3.632V-6.024h.84c.824,0,1.032.392,1.032,1.192s-.248,1.2-1.048,1.2ZM39.028,0h2.36V-.456H39.644V-3.128h1.408v-.448H39.644V-6.008h1.728V-6.48H39.028Z" transform="translate(42.124 39.431)"/></g><g transform="translate(1178 373.764)"><path class="a" d="M57.768,74.383l18-18.165-4.384-4.344,1.775-1.792L79.331,56.2,63.847,71.831,77.1,71.769l15.484-15.63L77.476,41.174,61.257,57.547l-20.386.1L60.641,37.686,66.817,43.8,65.042,45.6l-4.384-4.343L46.949,55.091,60.2,55.029,77.46,37.607,96.15,56.122l-18,18.165Z" transform="translate(-40.87 -37.607)"/></g></g></svg>