<svg xmlns="http://www.w3.org/2000/svg" width="27.523" height="29.999" viewBox="0 0 27.523 29.999"><defs><style>.a{fill:#63799b;}.b{fill:#2aaa05;}</style></defs><g transform="translate(-1799 -2022.24)"><path class="a" d="M9292.791,5045a3.2,3.2,0,0,1-3.192-3.19v-1.43h-.311a1.291,1.291,0,0,1-1.288-1.288v-7.8a1.291,1.291,0,0,1,1.288-1.288h.311v-11.807a3.2,3.2,0,0,1,3.192-3.192h12.05l7.584,7.546v1.295h-2v-.517l-4.1.012a2.214,2.214,0,0,1-2.216-2.213v-4.181l-11.316.012a1.242,1.242,0,0,0-1.238,1.239v11.8h12.835a1.291,1.291,0,0,1,1.288,1.288v7.808a1.292,1.292,0,0,1-1.288,1.288h-12.835v1.43a1.238,1.238,0,0,0,1.238,1.239h15.43l1.839,1.839a3.08,3.08,0,0,1-.832.112Zm1.936-12.3v5.312a9.757,9.757,0,0,0,1.386.082,3.9,3.9,0,0,0,2.5-.7,2.749,2.749,0,0,0,.9-2.19,2.392,2.392,0,0,0-.916-2.04,3.476,3.476,0,0,0-2.213-.58A11.436,11.436,0,0,0,9294.727,5032.693Zm5.6,5.338h1.228v-2.178h1.939v-1h-1.939v-1.236h2.077v-1h-3.3Zm-10.265-5.338v5.338h1.213V5036.1a2.694,2.694,0,0,0,.419.025,2.506,2.506,0,0,0,1.76-.573,1.718,1.718,0,0,0,.5-1.283,1.591,1.591,0,0,0-.58-1.25,2.58,2.58,0,0,0-1.654-.435A10.143,10.143,0,0,0,9290.059,5032.693Zm6.315,4.442a2.126,2.126,0,0,1-.423-.025v-3.541a2.6,2.6,0,0,1,.554-.049,1.552,1.552,0,0,1,1.7,1.718,1.68,1.68,0,0,1-1.821,1.9Zm-5.1-1.984v-1.6a2.066,2.066,0,0,1,.5-.049c.61,0,.959.3.959.8,0,.554-.4.883-1.052.883A1.911,1.911,0,0,1,9291.274,5035.152Z" transform="translate(-7489 -2992.759)"/><g transform="translate(1818.317 2031.735)"><path class="b" d="M360.495,276.188V266.9h-2.184v9.288H355.3l4.106,4.1,4.1-4.1Z" transform="translate(-355.3 -259.789)"/><rect class="b" width="2.19" height="1.642" transform="translate(3.011 4.921)"/><rect class="b" width="2.19" height="1.095" transform="translate(3.011 3.279)"/><rect class="b" width="2.19" height="0.821" transform="translate(3.011 1.916)"/><rect class="b" width="2.19" height="0.547" transform="translate(3.011 0.821)"/><rect class="b" width="2.19" height="0.274" transform="translate(3.011)"/></g></g></svg>