<svg xmlns="http://www.w3.org/2000/svg" viewBox="0 0 28.68 28.68" width="28" height="28"><defs><style>.cls-1{fill:#5f646a;}</style></defs><circle class="cls-1" cx="21.93" cy="6.8" r="1.68"/><path class="cls-1" d="M14.46,7.28a7.06,7.06,0,1,0,7.06,7.06A7.07,7.07,0,0,0,14.46,7.28Zm0,11.58A4.52,4.52,0,1,1,19,14.34,4.53,4.53,0,0,1,14.46,18.86Z"/><path class="cls-1" d="M20.06,28.68H8.61A8.62,8.62,0,0,1,0,20.07V8.61A8.62,8.62,0,0,1,8.61,0H20.06a8.62,8.62,0,0,1,8.62,8.61V20.07A8.62,8.62,0,0,1,20.06,28.68ZM8.61,2.7A5.92,5.92,0,0,0,2.7,8.61V20.07A5.92,5.92,0,0,0,8.61,26H20.06A5.92,5.92,0,0,0,26,20.07V8.61A5.92,5.92,0,0,0,20.06,2.7Z"/></svg>