<svg xmlns="http://www.w3.org/2000/svg" viewBox="0 0 175.59 68.49" width="170" height="68"><defs><style>.cls-1,.cls-2{fill:#fff;}.cls-2,.cls-3{fill-rule:evenodd;}.cls-3{fill:#a3a6a8;}</style></defs><path class="cls-1" d="M64.68,49.61a19.78,19.78,0,0,1-7.51-7.73,22.16,22.16,0,0,1-2.67-10.8,22,22,0,0,1,2.67-10.77,20.05,20.05,0,0,1,7.51-7.73A21.34,21.34,0,0,1,75.82,9.71,21.49,21.49,0,0,1,87,12.58a20.06,20.06,0,0,1,7.54,7.73,22,22,0,0,1,2.67,10.77,22.16,22.16,0,0,1-2.67,10.8A19.79,19.79,0,0,1,87,49.61a21.67,21.67,0,0,1-11.16,2.84A21.52,21.52,0,0,1,64.68,49.61ZM69.07,18.9a13.38,13.38,0,0,0-4.92,5,14.13,14.13,0,0,0-1.83,7.14,14.3,14.3,0,0,0,1.83,7.17,13.29,13.29,0,0,0,4.92,5.06,13.46,13.46,0,0,0,13.55,0,13.22,13.22,0,0,0,4.89-5.06,14.49,14.49,0,0,0,1.8-7.17,14.32,14.32,0,0,0-1.8-7.14,13.2,13.2,0,0,0-11.69-6.86A13.09,13.09,0,0,0,69.07,18.9Z"/><path class="cls-1" d="M138.29,51.66,111.18,27.2V48a3.77,3.77,0,0,1-1,2.76,3.73,3.73,0,0,1-2.76.95h-4.11V10.49h.85l27.05,24.92V14.21a3.74,3.74,0,0,1,1-2.76,3.7,3.7,0,0,1,2.75-1h4.16V51.66Z"/><path class="cls-1" d="M145.32,10.49h30.26V14a3.37,3.37,0,0,1-1,2.59,3.86,3.86,0,0,1-2.75.9H153.14V27.76H170.8V31a3.35,3.35,0,0,1-3.71,3.72h-14v9.95h18.67a3.66,3.66,0,0,1,3.77,3.77v3.2H145.32Z"/><path class="cls-1" d="M54.49,64.4V57.78h3.9v1H55.65v1.67h2.44v1H55.65V64.4Z"/><path class="cls-1" d="M59.55,64.4H58.37l3.26-6.84h.09l3.14,6.84H63.64l-.54-1.18h-3Zm1-2.12h2.17l-1.07-2.47Z"/><path class="cls-1" d="M70.63,64a3.69,3.69,0,0,1-.95.48,3.46,3.46,0,0,1-2.14,0,3,3,0,0,1-1-.54,3.24,3.24,0,0,1-1-1.22,3.76,3.76,0,0,1-.33-1.58,3.51,3.51,0,0,1,1-2.53,3.19,3.19,0,0,1,2.4-1,3.39,3.39,0,0,1,1,.16,3.6,3.6,0,0,1,.94.47l-.12,1.29a2.94,2.94,0,0,0-.83-.63,2.22,2.22,0,0,0-2.54.47,2.52,2.52,0,0,0-.63,1.77,2.45,2.45,0,0,0,.62,1.72,2,2,0,0,0,1.56.68,2.29,2.29,0,0,0,1-.24,3.36,3.36,0,0,0,1-.74Z"/><path class="cls-1" d="M72.08,64.4V57.78h1.17V64.4Z"/><path class="cls-1" d="M74.64,64.4V57.78H75.8v5.58h2.84v1Z"/><path class="cls-1" d="M80,64.4V57.78H81.2V64.4Z"/><path class="cls-1" d="M86,58.79V64.4H84.84V58.79H82.6v-1h5.63v1Z"/><path class="cls-1" d="M89.61,64.4V57.78h1.17V64.4Z"/><path class="cls-1" d="M92.17,64.4V57.78H96v1H93.3v1.63h2.34v1H93.3v1.93h2.77v1Z"/><path class="cls-1" d="M97.47,62.93a5.47,5.47,0,0,0,1,.51,2.49,2.49,0,0,0,.85.16,1.34,1.34,0,0,0,.85-.25.85.85,0,0,0,.32-.67,1,1,0,0,0-.21-.62,3.12,3.12,0,0,0-.76-.59l-.5-.3a3.6,3.6,0,0,1-1.07-.88,1.65,1.65,0,0,1-.32-1A1.6,1.6,0,0,1,98.17,58a2.14,2.14,0,0,1,1.45-.49,3.86,3.86,0,0,1,.84.1,4.22,4.22,0,0,1,.83.31l0,1a5.15,5.15,0,0,0-.87-.39,2,2,0,0,0-.67-.13,1.16,1.16,0,0,0-.72.2.67.67,0,0,0-.27.56.76.76,0,0,0,.2.5,2.84,2.84,0,0,0,.71.53l.48.27a4,4,0,0,1,1.18,1,1.84,1.84,0,0,1,.35,1.12,1.82,1.82,0,0,1-.62,1.43,2.46,2.46,0,0,1-1.66.54,4.08,4.08,0,0,1-.93-.1,3.79,3.79,0,0,1-.86-.29Z"/><path class="cls-1" d="M105.47,64.4l1.35-6.84h.08l2.37,4.85,2.35-4.85h.08L113,64.4h-1.13l-.72-3.74-1.88,4h-.1l-1.94-4-.72,3.74Z"/><path class="cls-1" d="M115.62,64.4h-1.18l3.25-6.84h.09l3.15,6.84H119.7l-.53-1.18h-3Zm1-2.12h2.17l-1.08-2.47Z"/><path class="cls-1" d="M122.32,64.4V57.56h.12L126.71,62V57.78h1.13v6.83h-.12l-4.28-4.42V64.4Z"/><path class="cls-1" d="M130.41,64.4h-1.18l3.26-6.84h.09l3.14,6.84H134.5L134,63.22h-3Zm1-2.12h2.17l-1.07-2.47Z"/><path class="cls-1" d="M141.67,59.46a3.4,3.4,0,0,0-1-.64,2.59,2.59,0,0,0-1-.21,2.23,2.23,0,0,0-1.69.68,2.52,2.52,0,0,0-.65,1.79,2.45,2.45,0,0,0,.65,1.76,2.28,2.28,0,0,0,1.7.67,2.58,2.58,0,0,0,.6-.07,3.79,3.79,0,0,0,.69-.21V61.85h-1.6v-1h2.74V64a5.18,5.18,0,0,1-1.2.5,4.85,4.85,0,0,1-1.24.16,3.39,3.39,0,0,1-3.54-3.53,3.49,3.49,0,0,1,1-2.55,3.45,3.45,0,0,1,2.54-1,4.3,4.3,0,0,1,1.07.14,4.23,4.23,0,0,1,1,.42Z"/><path class="cls-1" d="M143.5,64.4V57.78h3.86v1h-2.72v1.63H147v1h-2.33v1.93h2.76v1Z"/><path class="cls-1" d="M148.79,64.4l1.36-6.84h.08l2.36,4.85L155,57.56H155l1.35,6.84h-1.14l-.72-3.74-1.87,4h-.1l-1.95-4-.72,3.74Z"/><path class="cls-1" d="M157.75,64.4V57.78h3.86v1h-2.72v1.63h2.33v1h-2.33v1.93h2.76v1Z"/><path class="cls-1" d="M163.05,64.4V57.56h.12L167.43,62V57.78h1.14v6.83h-.13l-4.27-4.42V64.4Z"/><path class="cls-1" d="M173.37,58.79V64.4H172.2V58.79H170v-1h5.63v1Z"/><polygon class="cls-2" points="32.66 15.97 16.96 25.1 0 13.67 23.5 0 32.66 15.97"/><polygon class="cls-3" points="23.48 68.49 42.08 57.87 42.08 10.22 23.5 0 23.48 68.49"/></svg>