<svg xmlns="http://www.w3.org/2000/svg" viewBox="0 0 56.46 61.07" width="56" height="61"><defs><style>.cls-1{fill:#5f646a;}.cls-2{fill:#a3a6a8;}.cls-3{fill:#fff;}</style></defs><rect class="cls-1" x="43.43" y="4.76" width="9.13" height="34.83" transform="translate(96 44.34) rotate(-180)"/><path class="cls-1" d="M8.06,18H19.48A10.54,10.54,0,0,1,30,28.56v11H20.9V28.65a1.52,1.52,0,0,0-1.51-1.51H8.06Z"/><path class="cls-1" d="M30,29.38v16a6.71,6.71,0,0,0,6.71,6.71h0a6.7,6.7,0,0,0,6.7-6.71v-16h9.15V45.22A15.85,15.85,0,0,1,36.74,61.07h0A15.85,15.85,0,0,1,20.9,45.22V29.38Z"/><rect class="cls-2" x="17" y="33.97" width="16.92" height="5.62" transform="translate(50.92 73.55) rotate(-180)"/><rect class="cls-2" x="39.54" y="33.97" width="16.92" height="5.62" transform="translate(96 73.55) rotate(-180)"/><rect class="cls-2" x="39.54" width="16.92" height="5.62" transform="translate(96 5.62) rotate(-180)"/><circle class="cls-3" cx="5.47" cy="35.5" r="5.47"/><polygon class="cls-3" points="5.47 26.96 9.77 32.11 2.79 33.47 1.35 31.91 5.47 26.96"/><rect class="cls-2" x="5.47" y="18.02" width="5.49" height="9.13" transform="translate(16.44 45.16) rotate(-180)"/></svg>