<svg xmlns="http://www.w3.org/2000/svg" viewBox="0 0 60.17 60.17" width="60" height="60"><defs><style>.cls-1{fill:#5f646a;}.cls-2{fill:#a3a6a8;}</style></defs><path class="cls-1" d="M30.09,23.81a6.26,6.26,0,0,1,4.34,1.74c3.22-2.51,6.64-6.84,6.64-10.27,0-5.15-7.69-6.3-10.87-6.3s-3.78,4.17-3.78,9.31A24.59,24.59,0,0,0,27,24.6,6.33,6.33,0,0,1,30.09,23.81Z"/><path class="cls-1" d="M41.88,26.42a24.64,24.64,0,0,0-6.31.61,6.3,6.3,0,0,1-1,7.4c2.51,3.22,6.84,6.64,10.27,6.64,5.15,0,6.31-7.69,6.31-10.87S47,26.42,41.88,26.42Z"/><path class="cls-1" d="M30.09,36.36a6.27,6.27,0,0,1-4.35-1.74c-3.22,2.51-6.64,6.84-6.64,10.27C19.1,50,26.79,51.2,30,51.2s3.77-4.18,3.77-9.32a24.64,24.64,0,0,0-.61-6.31A6.18,6.18,0,0,1,30.09,36.36Z"/><path class="cls-1" d="M23.81,30.09a6.27,6.27,0,0,1,1.74-4.35C23,22.52,18.71,19.1,15.28,19.1,10.13,19.1,9,26.79,9,30s4.17,3.77,9.31,3.77a24.59,24.59,0,0,0,6.31-.61A6.29,6.29,0,0,1,23.81,30.09Z"/><path class="cls-2" d="M30.09,60.17A30.09,30.09,0,1,1,60.17,30.09,30.12,30.12,0,0,1,30.09,60.17Zm0-56.28a26.2,26.2,0,1,0,26.19,26.2A26.23,26.23,0,0,0,30.09,3.89Z"/><path class="cls-2" d="M30.09,23.06a7,7,0,1,0,7,7A7,7,0,0,0,30.09,23.06Zm0,10.26a3.24,3.24,0,1,1,3.23-3.23A3.24,3.24,0,0,1,30.09,33.32Z"/></svg>