<svg xmlns="http://www.w3.org/2000/svg" viewBox="0 0 48.97 59.94" width="49" height="60"><defs><style>.cls-1{fill:#5f646a;}.cls-2{fill:#a3a6a8;}</style></defs><polygon class="cls-1" points="37.4 59.89 40.51 59.91 40.65 59.91 43.76 59.94 45.68 47.88 43.16 45.27 43.39 18.41 40.99 18.39 40.85 18.39 38.45 18.37 38.22 45.23 35.65 47.81 37.4 59.89"/><path class="cls-2" d="M36.54,31.61l8.69.07a3.47,3.47,0,0,0,3.5-3.45L49,3.56A3.49,3.49,0,0,0,45.52.06L36.83,0a3.47,3.47,0,0,0-3.5,3.45l-.24,24.66A3.47,3.47,0,0,0,36.54,31.61Z"/><path class="cls-1" d="M17.36,0V13.47H7.69V0a12.53,12.53,0,1,0,9.67,0Z"/><path class="cls-1" d="M21,50.12h0L15.6,21.69l-3-1.54V20l-.12.06L12.41,20v.12l-3,1.54L3.93,50.5H4a7.92,7.92,0,0,0,0,.85,8.59,8.59,0,0,0,17.18,0A9.89,9.89,0,0,0,21,50.12Zm-8.5,4.16a3.63,3.63,0,1,1,3.63-3.62A3.62,3.62,0,0,1,12.52,54.28Z"/></svg>