<svg xmlns="http://www.w3.org/2000/svg" viewBox="0 0 55.33 55.52" width="55" height="55"><defs><style>.cls-1{fill:#5f646a;}.cls-2{fill:#a3a6a8;}</style></defs><polygon class="cls-1" points="38.38 35.17 5.35 35.17 21.86 12.04 38.38 35.17"/><polygon class="cls-2" points="50.03 35.17 28.16 35.17 39.09 19.85 50.03 35.17"/><polygon class="cls-2" points="5 13.83 0 13.83 0 0 13.83 0 13.83 5 5 5 5 13.83"/><polygon class="cls-2" points="55.33 13.83 50.33 13.83 50.33 5 41.5 5 41.5 0 55.33 0 55.33 13.83"/><polygon class="cls-2" points="55.33 55.52 41.5 55.52 41.5 50.52 50.33 50.52 50.33 41.69 55.33 41.69 55.33 55.52"/><polygon class="cls-2" points="13.83 55.52 0 55.52 0 41.69 5 41.69 5 50.52 13.83 50.52 13.83 55.52"/></svg>