<svg xmlns="http://www.w3.org/2000/svg" viewBox="0 0 26.68 21.96" width="27" height="22"><defs><style>.cls-1{fill:#5f646a;}</style></defs><path class="cls-1" d="M26.57,2.63a10.67,10.67,0,0,1-2.7.77c.43-.07,1.07-.86,1.33-1.17A4.94,4.94,0,0,0,26.09.59a.11.11,0,0,0,0-.14.19.19,0,0,0-.15,0,13.49,13.49,0,0,1-3.2,1.23.22.22,0,0,1-.22-.06,2.57,2.57,0,0,0-.28-.29A5.72,5.72,0,0,0,20.69.39,5.45,5.45,0,0,0,18.32,0a5.59,5.59,0,0,0-2.26.64,5.79,5.79,0,0,0-1.82,1.48,5.65,5.65,0,0,0-1.08,2.18,5.93,5.93,0,0,0-.06,2.3c0,.12,0,.14-.11.12C8.6,6.08,5,4.51,2,1.14c-.13-.15-.2-.15-.3,0C.4,3.09,1,6.21,2.65,7.74c.21.2.43.4.67.59A5.62,5.62,0,0,1,1.2,7.74c-.13-.08-.19,0-.2.11a2.71,2.71,0,0,0,0,.63A5.64,5.64,0,0,0,4.51,13a3.35,3.35,0,0,0,.7.22,6.27,6.27,0,0,1-2.08.06c-.15,0-.21.05-.15.19A5.82,5.82,0,0,0,7.35,17.1c.2,0,.4,0,.59.08l0,0c-.49.75-2.19,1.3-3,1.58a10.74,10.74,0,0,1-4.53.58c-.24,0-.29,0-.36,0s0,.1.07.16A10.11,10.11,0,0,0,1,20.1a15.24,15.24,0,0,0,3,1.22c5.45,1.5,11.58.39,15.67-3.67,3.21-3.19,4.34-7.59,4.34-12,0-.18.2-.27.32-.36a10.73,10.73,0,0,0,2.14-2.22.68.68,0,0,0,.14-.42v0C26.68,2.56,26.68,2.58,26.57,2.63Z"/></svg>